<svg xmlns="http://www.w3.org/2000/svg" width="138.065" height="100" viewBox="0 0 138.065 100"><defs><style>.a{fill:#002145;}.a,.b{fill-rule:evenodd;}.b{fill:#fff;}</style></defs><g transform="translate(71.529 -42.272)"><path class="a" d="M66.274,142.272l.262-100-138.065.033.15,99.967Z"/><path class="b" d="M55.721,150.27c.808.671,2.221.974,4.23.974l1.928,0v14.011h5.059l0-14.008,6.863,0c2.126,2.224,4.729,5.093,6.611,7.061v6.95h5.037v-6.95c3.709-3.876,10.391-10.908,10.391-10.908h-2.7c-2.009,0-3.427.294-4.236.965-.048.04-3.384,3.481-5.945,6.125-2.561-2.644-5.9-6.084-5.946-6.125-.808-.671-2.174-.964-4.182-.965H54.59a3.96,3.96,0,0,0,1.131,2.87m24.265-6.337v.011h.281C80.173,143.943,80.08,143.936,79.986,143.932ZM39.462,156.347a5.321,5.321,0,0,1,1.611-4.058,6.037,6.037,0,0,1,4.324-1.523,6,6,0,0,1,4.314,1.523,5.932,5.932,0,0,1,.011,8.1,5.992,5.992,0,0,1-4.325,1.523,6.034,6.034,0,0,1-4.324-1.523A5.3,5.3,0,0,1,39.462,156.347Zm-4.656.007a8.815,8.815,0,0,0,2.877,6.88,11.1,11.1,0,0,0,7.723,2.595,11.006,11.006,0,0,0,7.722-2.595,9.774,9.774,0,0,0-.019-13.795,11.025,11.025,0,0,0-7.7-2.595,11.1,11.1,0,0,0-7.723,2.595A8.857,8.857,0,0,0,34.806,156.354Zm7.934-12.411h9.551V126.086H47.224l-.01,14.01H43.12a4.018,4.018,0,0,1-2.64-.677,3.222,3.222,0,0,1-.657-2.388V126.086H34.756V137.4q0,3.491,1.914,5.015T42.74,143.943ZM1.387,165.258c-.094,0-.187-.007-.281-.011v.011Zm3.669-21.315h9.651v-8.079l-.124-.1a9.178,9.178,0,0,0-5.151-2.143v6.507l-3.07-.015q-3.092,0-4.433-1.169T.588,134.891q0-2.748,1.23-3.848a6.165,6.165,0,0,1,4.135-1.1h6.022l2.733.009v-3.873H4.724a9.754,9.754,0,0,0-7.06,2.424,8.911,8.911,0,0,0-2.514,6.73A8.771,8.771,0,0,0-2.727,141.2a7.391,7.391,0,0,0,3.278,2.171A14.479,14.479,0,0,0,5.056,143.943ZM3.127,161.412H1.365c-1.09,0-1.91-.533-1.91-1.589s.874-1.613,1.966-1.613H9.5l0,3.2Zm-1.656,3.847H14.708V154.076q0-6.674-7.911-6.675l-10.031,0v3.859l8.088,0a7.986,7.986,0,0,1,3.547.444,3.187,3.187,0,0,1,1.069,2.683H1.389c-3.426,0-6.2,2.3-6.2,5.435s2.778,5.435,6.2,5.435h.082Zm15.016-13.987H27.557l-9.376,10.142c-2.075,2.3-1.907,3.844-1.907,3.844h0l0,.012.027-.012H35.746a4.159,4.159,0,0,0-1.177-2.9c-.808-.672-2.231-.918-4.239-.918H24.414l.012-.016,0,0,9.2-10.153C36,148.8,35.746,147.4,35.746,147.4h-.009v0H21.824c-2.008,0-3.394.281-4.2.952A4.063,4.063,0,0,0,16.488,151.271Zm15.481-24.2q-1.2-1-4.193-1H17.013v17.856h5.051l-.013-13.987H33.089A3.974,3.974,0,0,0,31.969,127.074Zm28.483-20.635c-2.133-2.35-4.746.3-4.953.513-.02-.014-1.258-.811-1.376-.9Q49.01,102.261,36.83,102.9l-4.429.232c.011,0,.92.167,2.146.264,11.771.943,14.359,5.49,16.555,7.084l.011.005c-.006,3.467-9.929,9.524-20.579,11.917C48.621,120.343,59.34,113.6,60.452,106.439Zm7.578,19.636c.095,0,.187.006.28.011v-.011Zm1.933,5.435c0,1.055-.874,1.613-1.966,1.613h-8.08l.01-3.177h8.161C69.18,129.946,69.963,130.454,69.963,131.51Zm4.268,0c0-3.138-2.777-5.435-6.2-5.435H54.709V137.5q0,5.433,5.241,6.443s0-6.954,0-7h8.08C71.453,136.945,74.231,134.649,74.231,131.51Zm7.776,8.586H80.245c-1.091,0-1.911-.533-1.911-1.588s.874-1.613,1.965-1.613h8.08l0,3.2Zm-1.635,3.847H93.588V132.761q0-6.674-7.911-6.675l-10.023-.011v3.871h8.08a8,8,0,0,1,3.547.444,3.188,3.188,0,0,1,1.069,2.683H80.27c-3.426,0-6.2,2.3-6.2,5.435s2.778,5.435,6.2,5.435h.1Z" transform="translate(-46.934 -42.607)"/></g></svg>