<svg xmlns="http://www.w3.org/2000/svg" width="250" height="250.045" viewBox="0 0 250 250.045"><defs><style>.a{fill:#ea5b62;}</style></defs><path class="a" d="M443.09,829.289l-1.171-.632a.185.185,0,0,1-.085-.284l3.1-5.75a.188.188,0,0,1,.287-.086l1.174.632a.187.187,0,0,1,.083.285l-3.1,5.749A.186.186,0,0,1,443.09,829.289Zm15.794-21.818-14.93-.008-.065,0c-.112-.03-.146-.112-.108-.249l.457-1.65a.217.217,0,0,1,.245-.174l10.882.139a.056.056,0,0,0,.053-.039.06.06,0,0,0-.026-.063l-9.443-5.334a.213.213,0,0,1-.121-.273l.446-1.608a.217.217,0,0,1,.245-.174l10.9.145c.033-.006.051-.016.056-.032s-.006-.028-.032-.051l-9.417-5.5a.215.215,0,0,1-.122-.274l.429-1.548a.192.192,0,0,1,.1-.134.2.2,0,0,1,.171.013l12.831,7.521a.213.213,0,0,1,.119.272l-.433,1.571a.218.218,0,0,1-.246.173l-11.249-.24c-.044,0-.068.008-.071.024s.012.032.05.056l9.794,5.5a.2.2,0,0,1,.121.274l-.411,1.49A.211.211,0,0,1,458.883,807.471Zm4.673-21.716-5.893-.717c-.057-.006-.092,0-.107.01l-8.733,3.363a.239.239,0,0,1-.109.012c-.1-.013-.14-.077-.128-.187l.21-1.723a.249.249,0,0,1,.18-.233l6.536-2.462a.067.067,0,0,0,.05-.057.075.075,0,0,0-.035-.069l-5.756-3.957a.244.244,0,0,1-.116-.268l.212-1.742a.186.186,0,0,1,.092-.15.16.16,0,0,1,.178.034l7.667,5.381a.164.164,0,0,0,.105.035l5.893.715a.189.189,0,0,1,.184.237l-.193,1.594A.187.187,0,0,1,463.556,785.755Zm1.06-11.334-14.372.018a.189.189,0,0,1-.212-.212l-.006-5.114a5.129,5.129,0,0,1,1.147-3.51,3.9,3.9,0,0,1,3.073-1.314l6.34-.006a3.882,3.882,0,0,1,3.076,1.306,5.114,5.114,0,0,1,1.158,3.5l.006,5.116A.187.187,0,0,1,464.616,774.42Zm-1.546-2.112,0-3.3a2.617,2.617,0,0,0-.752-1.956,2.869,2.869,0,0,0-2.019-.747l-5.75.007a2.771,2.771,0,0,0-2.018.733,2.621,2.621,0,0,0-.746,1.975l0,3.3a.076.076,0,0,0,.084.086l11.117-.014A.076.076,0,0,0,463.071,772.309Zm1.218-12.731-1.469.179a.429.429,0,0,1-.282-.051L450.752,753.7c-.017-.013-.038-.009-.065.009a.068.068,0,0,0-.033.069l.877,7.151a.188.188,0,0,1-.186.237l-1.321.163a.189.189,0,0,1-.235-.186l-1.14-9.312a.185.185,0,0,1,.183-.235l1.469-.181a.426.426,0,0,1,.282.053l11.792,6.047c.014.012.035.009.063-.007a.066.066,0,0,0,.032-.068l-.88-7.2a.186.186,0,0,1,.183-.234l1.324-.162a.186.186,0,0,1,.234.183l1.143,9.315A.188.188,0,0,1,464.289,759.578Zm-2.158-14.523-14.063,2.962a.185.185,0,0,1-.25-.162l-.331-1.571a.187.187,0,0,1,.163-.25l14.061-2.963a.187.187,0,0,1,.251.165l.332,1.569A.188.188,0,0,1,462.13,745.055Zm-4.219-15.926-2.137,1.456a.081.081,0,0,0-.038.1l1.754,5.674a.085.085,0,0,0,.088.062l2.586,0a.247.247,0,0,1,.237.193l.506,1.636c.045.146-.012.223-.174.229l-15.114-.17a.244.244,0,0,1-.237-.194l-.624-2.019a.243.243,0,0,1,.083-.29l12.373-8.715.073-.044c.1-.029.16.018.2.137l.511,1.655A.249.249,0,0,1,457.911,729.129Zm-2.117,7.278a.117.117,0,0,0,.007-.081l-1.437-4.643a.108.108,0,0,0-.052-.06.059.059,0,0,0-.074.012l-6.766,4.658a.068.068,0,0,0,.038.121l8.213.024A.059.059,0,0,0,455.794,736.407Zm-3.161-16.335-3.019-6.637a.186.186,0,0,1,.1-.279l1.214-.553a.186.186,0,0,1,.278.105l3.81,8.369a.187.187,0,0,1-.107.279l-4.211,1.918a.076.076,0,0,0-.045.056c0,.024.014.041.051.055l2.219,1.151a.164.164,0,0,1,.088.1.2.2,0,0,1,0,.19l-.485,1.033a.183.183,0,0,1-.275.1l-3.435-1.781a.138.138,0,0,0-.113.006l-6.867,3.126a.186.186,0,0,1-.279-.105l-.666-1.461a.187.187,0,0,1,.1-.281l5.365-2.443a.072.072,0,0,0,.047-.056c0-.024-.013-.046-.05-.058l-5.011-2.594a.182.182,0,0,1-.094-.1.2.2,0,0,1,.007-.189l.5-1.04a.2.2,0,0,1,.11-.119.175.175,0,0,1,.167.016l6.209,3.233a.134.134,0,0,0,.114-.006l4.232-1.924A.074.074,0,0,0,452.633,720.072ZM445.4,703.007l-11.843,8.14a.189.189,0,0,1-.294-.055l-2.9-4.215a5.115,5.115,0,0,1-1.04-3.542,3.888,3.888,0,0,1,1.795-2.822l5.223-3.591a3.891,3.891,0,0,1,3.275-.662,5.137,5.137,0,0,1,2.939,2.24l2.9,4.214A.185.185,0,0,1,445.4,703.007Zm-2.468-.868-1.868-2.714a2.6,2.6,0,0,0-1.724-1.187,2.851,2.851,0,0,0-2.089.524l-4.738,3.256a2.767,2.767,0,0,0-1.25,1.743,2.636,2.636,0,0,0,.5,2.053l1.867,2.718a.076.076,0,0,0,.118.021l9.161-6.3A.076.076,0,0,0,442.931,702.138Zm-8.546-13.551a4.438,4.438,0,0,1-.055,2.505,4.884,4.884,0,0,1-1.457,2.189l-7.357,6.607a.188.188,0,0,1-.3-.016l-1.075-1.2a.187.187,0,0,1,.017-.3l7.392-6.635a2.953,2.953,0,0,0,1.066-2.136,3.18,3.18,0,0,0-.9-2.271,3.136,3.136,0,0,0-2.156-1.134,2.971,2.971,0,0,0-2.23.839l-7.389,6.636a.19.19,0,0,1-.3-.016l-1.072-1.194a.191.191,0,0,1,.017-.3l7.358-6.607a4.988,4.988,0,0,1,2.325-1.221,4.339,4.339,0,0,1,2.486.208,6.439,6.439,0,0,1,3.632,4.041Zm-10.856-11.268a4.132,4.132,0,0,1,.451,2.291,3.724,3.724,0,0,1-.937,2.067l-.4.463a.186.186,0,0,1-.3.024l-1.167-1.012a.184.184,0,0,1-.021-.3l.333-.385a2.131,2.131,0,0,0,.456-1.95,4.17,4.17,0,0,0-1.476-2.2,3.377,3.377,0,0,0-2.063-.974,1.985,1.985,0,0,0-1.61.731,1.71,1.71,0,0,0-.446,1.1,3.606,3.606,0,0,0,.281,1.373,21,21,0,0,0,.99,2.1,21.353,21.353,0,0,1,1.141,2.411A4.515,4.515,0,0,1,419.05,685a3.237,3.237,0,0,1-.859,1.9,3.433,3.433,0,0,1-2.85,1.3A5.478,5.478,0,0,1,412,686.685a6.677,6.677,0,0,1-1.731-2.2,4.207,4.207,0,0,1-.414-2.315,3.79,3.79,0,0,1,.949-2.084l.276-.319a.185.185,0,0,1,.3-.021l1.2,1.036a.188.188,0,0,1,.023.3l-.207.24a2.27,2.27,0,0,0-.533,1.955,3.68,3.68,0,0,0,1.351,2.135,3.325,3.325,0,0,0,1.888.921,1.829,1.829,0,0,0,1.559-.705,1.765,1.765,0,0,0,.475-1.1,3.111,3.111,0,0,0-.29-1.3q-.306-.725-1.049-2.1a23.539,23.539,0,0,1-1.126-2.414,4.666,4.666,0,0,1-.311-2,3.276,3.276,0,0,1,.857-1.926,3.576,3.576,0,0,1,2.96-1.339,5.838,5.838,0,0,1,3.549,1.632A7.173,7.173,0,0,1,423.528,677.319Zm-9.5-8.015-.832,1.222a.417.417,0,0,1-.225.182L400.7,675.629c-.019,0-.032.021-.036.05a.071.071,0,0,0,.027.071l5.965,4.049a.185.185,0,0,1,.056.291l-.748,1.1a.187.187,0,0,1-.293.055l-7.765-5.268a.189.189,0,0,1-.056-.294l.83-1.225a.432.432,0,0,1,.225-.179l12.311-4.9c.022-.005.033-.021.036-.053a.059.059,0,0,0-.029-.07l-6-4.072a.188.188,0,0,1-.057-.292l.75-1.1a.187.187,0,0,1,.293-.056l7.765,5.269A.188.188,0,0,1,414.031,669.3Zm-26.348.54a3.76,3.76,0,0,1-.653-2.042,4.521,4.521,0,0,1,.554-2.237,4.367,4.367,0,0,1,1.508-1.715,3.8,3.8,0,0,1,2.06-.6,4.916,4.916,0,0,1,2.3.6l3.3,1.713a.074.074,0,0,0,.113-.035l2.765-5.326a.187.187,0,0,1,.285-.09l1.425.739a.189.189,0,0,1,.092.284L394.8,673.909a.185.185,0,0,1-.284.088l-5.066-2.627A4.663,4.663,0,0,1,387.683,669.844Zm3.194-4.687a2.469,2.469,0,0,0-1.473,1.306,2.432,2.432,0,0,0,1.1,3.476l3.132,1.626a.075.075,0,0,0,.115-.035l2.278-4.39a.074.074,0,0,0-.036-.113l-3.132-1.626A2.561,2.561,0,0,0,390.877,665.156Zm-10.621-13.574-.16,2.583a.085.085,0,0,0,.056.089l5.555,2.1a.082.082,0,0,0,.1-.032l1.585-2.042a.243.243,0,0,1,.3-.07l1.6.6q.218.081.076.278l-9.408,11.83a.248.248,0,0,1-.3.07l-1.978-.747a.249.249,0,0,1-.178-.248l.713-15.114.009-.086c.035-.092.11-.114.229-.071l1.621.612A.249.249,0,0,1,380.256,651.582Zm4.45,6.14a.1.1,0,0,0-.059-.056l-4.548-1.717a.116.116,0,0,0-.082,0,.06.06,0,0,0-.034.066l-.474,8.2a.071.071,0,0,0,.042.063.067.067,0,0,0,.076-.018l5.061-6.47A.06.06,0,0,0,384.706,657.722Zm-12.273-8.332a4.122,4.122,0,0,1,1.437,1.834,3.718,3.718,0,0,1,.1,2.268l-.148.6a.185.185,0,0,1-.255.153l-1.5-.371a.186.186,0,0,1-.152-.257l.121-.493a2.127,2.127,0,0,0-.475-1.946,4.186,4.186,0,0,0-2.312-1.292,3.384,3.384,0,0,0-2.281.066,1.987,1.987,0,0,0-1.106,1.381,1.729,1.729,0,0,0,.1,1.178,3.676,3.676,0,0,0,.873,1.1,20.412,20.412,0,0,0,1.834,1.426,21.015,21.015,0,0,1,2.109,1.633,4.5,4.5,0,0,1,1.14,1.6,3.236,3.236,0,0,1,.091,2.081,3.434,3.434,0,0,1-1.947,2.457,5.481,5.481,0,0,1-3.662.16,6.661,6.661,0,0,1-2.541-1.178,4.215,4.215,0,0,1-1.419-1.875,3.829,3.829,0,0,1-.1-2.288l.1-.409a.188.188,0,0,1,.257-.154l1.54.38a.186.186,0,0,1,.154.255l-.076.31a2.274,2.274,0,0,0,.411,1.986,3.684,3.684,0,0,0,2.174,1.29,3.317,3.317,0,0,0,2.1-.035,1.818,1.818,0,0,0,1.071-1.335,1.743,1.743,0,0,0-.074-1.193,3.087,3.087,0,0,0-.845-1.026q-.6-.51-1.885-1.392a24.674,24.674,0,0,1-2.1-1.644,4.645,4.645,0,0,1-1.179-1.643,3.252,3.252,0,0,1-.108-2.107,3.563,3.563,0,0,1,2.03-2.532,5.842,5.842,0,0,1,3.9-.156A7.191,7.191,0,0,1,372.433,649.389Zm-23.924,10.142.169-1.338a.19.19,0,0,1,.238-.187l4.026.511a.074.074,0,0,0,.094-.072l1.606-12.621a.186.186,0,0,1,.236-.184l1.593.2a.187.187,0,0,1,.182.235l-1.6,12.621a.075.075,0,0,0,.072.094l3.837.489a.185.185,0,0,1,.183.234l-.171,1.344a.187.187,0,0,1-.237.181l-10.041-1.276A.187.187,0,0,1,348.509,659.531Zm-13.047-1.774,7.5.037a.075.075,0,0,0,.084-.085l.021-4.542a.074.074,0,0,0-.083-.085l-5.155-.025a.19.19,0,0,1-.213-.214l.006-1.33a.191.191,0,0,1,.214-.213l5.156.028a.075.075,0,0,0,.085-.084l.023-4.651a.073.073,0,0,0-.083-.084l-7.5-.037a.189.189,0,0,1-.211-.214l.007-1.331a.187.187,0,0,1,.212-.21l9.4.047a.187.187,0,0,1,.211.214l-.071,14.367a.19.19,0,0,1-.214.213l-9.4-.047a.188.188,0,0,1-.21-.214l.006-1.33A.188.188,0,0,1,335.462,657.757Zm-13.786-11.565,3.692,5.92a.082.082,0,0,0,.091.053l3.019-.363a.075.075,0,0,0,.075-.094l-.743-6.19a.183.183,0,0,1,.184-.233l1.6-.192a.185.185,0,0,1,.234.182l1.715,14.268a.185.185,0,0,1-.184.235l-5.644.68a4.582,4.582,0,0,1-2.276-.258,3.716,3.716,0,0,1-1.657-1.292,4.473,4.473,0,0,1-.786-2.118,4.054,4.054,0,0,1,.465-2.58,3.789,3.789,0,0,1,1.967-1.629c.053-.035.063-.071.029-.111l-3.8-5.927a.228.228,0,0,1-.035-.1q-.018-.146.15-.168l1.657-.2A.235.235,0,0,1,321.676,646.192Zm7.654,11.977-.565-4.7c-.007-.058-.038-.084-.1-.077l-3.5.422a2.455,2.455,0,0,0-1.7.874,2.373,2.373,0,0,0-.46,1.834,2.323,2.323,0,0,0,2.75,2.157l3.5-.419A.076.076,0,0,0,329.331,658.169Zm-16.449-10.114a4.125,4.125,0,0,1,2.121.973A3.736,3.736,0,0,1,316.132,651l.14.594a.187.187,0,0,1-.158.254l-1.5.357a.186.186,0,0,1-.254-.158l-.116-.492a2.138,2.138,0,0,0-1.316-1.515,4.166,4.166,0,0,0-2.647-.088,3.358,3.358,0,0,0-2,1.1,1.982,1.982,0,0,0-.35,1.731,1.719,1.719,0,0,0,.628,1.006,3.628,3.628,0,0,0,1.277.573,20.732,20.732,0,0,0,2.284.429,21.321,21.321,0,0,1,2.622.486,4.492,4.492,0,0,1,1.743.9,3.244,3.244,0,0,1,1.036,1.806,3.443,3.443,0,0,1-.61,3.075,5.474,5.474,0,0,1-3.184,1.819,6.673,6.673,0,0,1-2.8.118,4.215,4.215,0,0,1-2.119-1.02,3.818,3.818,0,0,1-1.134-1.99l-.095-.412a.183.183,0,0,1,.156-.253l1.544-.364a.185.185,0,0,1,.254.156l.071.309A2.285,2.285,0,0,0,310.885,661a3.666,3.666,0,0,0,2.523.155,3.336,3.336,0,0,0,1.851-.992,1.821,1.821,0,0,0,.339-1.678,1.741,1.741,0,0,0-.611-1.027,3.054,3.054,0,0,0-1.221-.524q-.768-.18-2.314-.377a24.608,24.608,0,0,1-2.616-.5,4.729,4.729,0,0,1-1.8-.92,3.277,3.277,0,0,1-1.06-1.823,3.571,3.571,0,0,1,.649-3.182,5.872,5.872,0,0,1,3.4-1.925A7.2,7.2,0,0,1,312.882,648.055ZM296.21,668.194l-.473-1.266a.186.186,0,0,1,.124-.271l3.8-1.418a.075.075,0,0,0,.048-.11l-4.447-11.919a.185.185,0,0,1,.124-.271l1.5-.562a.187.187,0,0,1,.272.124l4.448,11.92a.075.075,0,0,0,.109.049l3.623-1.351a.188.188,0,0,1,.273.122l.471,1.269a.188.188,0,0,1-.124.272l-9.484,3.538A.186.186,0,0,1,296.21,668.194Zm-12.571-10,10.435,10.679.05.046c.056.1.02.181-.1.248l-1.5.828a.217.217,0,0,1-.294-.053l-7.511-7.875a.058.058,0,0,0-.065-.012.059.059,0,0,0-.026.063l2.791,10.479a.218.218,0,0,1-.11.281l-1.463.806a.218.218,0,0,1-.3-.054l-7.519-7.891c-.025-.021-.047-.024-.057-.018s-.018.024-.018.057l2.656,10.582a.215.215,0,0,1-.113.276l-1.4.779a.179.179,0,0,1-.279-.111l-3.6-14.431a.215.215,0,0,1,.115-.277l1.423-.789a.22.22,0,0,1,.294.053l7.7,8.21c.032.03.054.041.068.032s.013-.029.006-.073l-2.922-10.843a.2.2,0,0,1,.11-.279l1.354-.747A.213.213,0,0,1,283.639,658.2Zm-21.293,13.639,2.086,1.528a.08.08,0,0,0,.106,0l4.762-3.543a.085.085,0,0,0,.032-.1l-.866-2.437a.246.246,0,0,1,.1-.288l1.373-1.02c.124-.094.216-.065.275.085l4.876,14.308a.241.241,0,0,1-.1.287l-1.695,1.262a.25.25,0,0,1-.3.016l-12.338-8.76-.07-.054c-.057-.08-.036-.155.065-.231l1.39-1.035A.249.249,0,0,1,262.346,671.835Zm7.57-.431a.12.12,0,0,0-.08.019l-3.9,2.9a.106.106,0,0,0-.039.07.06.06,0,0,0,.036.064l6.648,4.828a.069.069,0,0,0,.1-.075l-2.714-7.755A.06.06,0,0,0,269.916,671.4Zm-13.581,26.382-1.091,1.179a.186.186,0,0,1-.3.013l-10.553-9.757a.187.187,0,0,1-.009-.3l1.09-1.179a.185.185,0,0,1,.3-.011l7.944,7.345a.091.091,0,0,0,.092.027c.029-.013.033-.038.014-.075l-1.333-5.347a.289.289,0,0,1,.079-.274l.545-.587a.313.313,0,0,1,.269-.1l5.416.863c.039.018.064.012.073-.016a.083.083,0,0,0-.034-.088l-7.914-7.318a.187.187,0,0,1-.011-.3l1.09-1.179a.187.187,0,0,1,.3-.011l10.551,9.755a.189.189,0,0,1,.01.3l-1.091,1.179a.284.284,0,0,1-.266.1l-6.574-1.044a.079.079,0,0,0-.059.032.083.083,0,0,0-.029.062l1.568,6.457A.318.318,0,0,1,256.335,697.786Zm-16.37-.175-4.184,5.972a.188.188,0,0,1-.294.052l-1.091-.764a.19.19,0,0,1-.052-.3l5.276-7.527a.187.187,0,0,1,.294-.053l3.79,2.656a.067.067,0,0,0,.07.012c.024-.009.033-.033.025-.074l-.136-2.493a.167.167,0,0,1,.038-.128.2.2,0,0,1,.168-.091l1.134-.108a.208.208,0,0,1,.158.03.194.194,0,0,1,.073.156l.208,3.864a.142.142,0,0,0,.063.094l6.178,4.329a.191.191,0,0,1,.053.3l-.922,1.313a.186.186,0,0,1-.3.053l-4.829-3.382a.067.067,0,0,0-.069-.011c-.024.009-.033.032-.026.073l.31,5.635a.174.174,0,0,1-.038.128.2.2,0,0,1-.166.091l-1.152.1a.219.219,0,0,1-.158-.032.185.185,0,0,1-.069-.155l-.37-6.992a.125.125,0,0,0-.062-.094l-3.805-2.67A.075.075,0,0,0,239.966,697.611Zm-8.912,11.55a4.516,4.516,0,0,1,2.438-.791,5.273,5.273,0,0,1,2.649.656l4.45,2.352a5.228,5.228,0,0,1,2.029,1.812,4.554,4.554,0,0,1,.709,2.456,6.212,6.212,0,0,1-2.555,4.838,4.532,4.532,0,0,1-2.427.8,5.2,5.2,0,0,1-2.643-.652l-4.447-2.35a5.268,5.268,0,0,1-2.039-1.819A4.536,4.536,0,0,1,228.5,714a6.235,6.235,0,0,1,2.557-4.839Zm-.584,5.4a3.162,3.162,0,0,0,1.657,1.88l4.542,2.4a3.225,3.225,0,0,0,2.518.326,3.133,3.133,0,0,0,1.879-1.636,3.086,3.086,0,0,0,.285-2.467,3.265,3.265,0,0,0-1.691-1.885l-4.542-2.4a3.2,3.2,0,0,0-2.483-.321,3.476,3.476,0,0,0-2.166,4.1Zm-5.7,6.838,13.453,5.058a.186.186,0,0,1,.123.272l-1.8,4.788a5.14,5.14,0,0,1-2.311,2.879,3.912,3.912,0,0,1-3.341.144l-5.935-2.233A3.89,3.89,0,0,1,222.539,730a5.128,5.128,0,0,1,.157-3.691l1.8-4.784A.183.183,0,0,1,224.766,721.4Zm.7,2.521-1.159,3.086a2.6,2.6,0,0,0,.015,2.094,2.849,2.849,0,0,0,1.624,1.413l5.38,2.021a2.775,2.775,0,0,0,2.147.031,2.63,2.63,0,0,0,1.4-1.587l1.158-3.087a.073.073,0,0,0-.047-.108l-10.4-3.912A.078.078,0,0,0,225.467,723.924ZM219.829,735.4l1.439.35a.421.421,0,0,1,.244.149l8.9,9.784c.011.018.031.024.062.016a.068.068,0,0,0,.056-.05l1.709-7a.186.186,0,0,1,.257-.153l1.291.315a.187.187,0,0,1,.157.255l-2.225,9.116a.186.186,0,0,1-.257.153l-1.436-.349a.427.427,0,0,1-.246-.148l-8.894-9.826c-.011-.016-.031-.022-.061-.016a.07.07,0,0,0-.056.052l-1.719,7.041a.187.187,0,0,1-.257.156l-1.292-.317a.184.184,0,0,1-.156-.252l2.225-9.117A.186.186,0,0,1,219.829,735.4Zm-3.12,14.393,14.2,2.182a.189.189,0,0,1,.177.242l-.243,1.588a.188.188,0,0,1-.243.175L216.4,751.8a.186.186,0,0,1-.177-.241l.243-1.587A.188.188,0,0,1,216.709,749.795Zm11.134,18.092.456-7.487c0-.057-.021-.088-.078-.089l-4.535-.277a.076.076,0,0,0-.091.08l-.312,5.147a.188.188,0,0,1-.224.2l-1.328-.081a.189.189,0,0,1-.2-.225l.314-5.147a.077.077,0,0,0-.08-.09l-4.642-.282a.075.075,0,0,0-.089.08l-.456,7.487a.185.185,0,0,1-.223.2l-1.33-.083a.185.185,0,0,1-.2-.222l.572-9.387a.19.19,0,0,1,.225-.2l14.344.876a.187.187,0,0,1,.2.224L229.6,768a.19.19,0,0,1-.225.2l-1.329-.082A.187.187,0,0,1,227.843,767.887Zm-12.805,4.02,1.478-.085a.417.417,0,0,1,.278.069l11.382,6.744c.014.012.036.01.062,0a.066.066,0,0,0,.039-.067l-.42-7.193a.185.185,0,0,1,.2-.223l1.33-.077a.186.186,0,0,1,.222.2l.548,9.366a.186.186,0,0,1-.2.222l-1.479.088a.439.439,0,0,1-.276-.067l-11.383-6.787a.051.051,0,0,0-.063,0,.067.067,0,0,0-.039.066l.424,7.236a.187.187,0,0,1-.2.223l-1.33.079a.184.184,0,0,1-.222-.2l-.548-9.368A.186.186,0,0,1,215.038,771.907Zm16.852,2.911a1.434,1.434,0,1,1-.323.994A1.313,1.313,0,0,1,231.89,774.818Zm-15.019,15.5,5.845-1.036a.185.185,0,0,0,.1-.038l7.369-5.768a.209.209,0,0,1,.1-.041c.1-.018.154.03.174.142l.3,1.708a.245.245,0,0,1-.1.273l-5.534,4.264a.07.07,0,0,0-.033.069.072.072,0,0,0,.056.055l6.66,2.105a.247.247,0,0,1,.189.225l.308,1.725a.181.181,0,0,1-.047.168.155.155,0,0,1-.179.022l-8.9-2.909a.175.175,0,0,0-.107,0l-5.848,1.036a.188.188,0,0,1-.246-.171l-.279-1.582A.186.186,0,0,1,216.87,790.322Zm3.985,17.013,13.531-4.843a.186.186,0,0,1,.269.128l1.724,4.816a5.138,5.138,0,0,1,.1,3.69,3.888,3.888,0,0,1-2.454,2.269l-5.969,2.136a3.884,3.884,0,0,1-3.337-.2,5.113,5.113,0,0,1-2.267-2.915l-1.721-4.814A.184.184,0,0,1,220.855,807.335Zm2.163,1.47,1.114,3.1A2.593,2.593,0,0,0,225.5,813.5a2.839,2.839,0,0,0,2.154.025l5.412-1.937a2.765,2.765,0,0,0,1.653-1.366,2.633,2.633,0,0,0,.042-2.113l-1.114-3.1a.074.074,0,0,0-.107-.052L223.07,808.7A.073.073,0,0,0,223.019,808.8Zm3.426,12.826,13.021-6.076a.186.186,0,0,1,.281.1l.679,1.454a.187.187,0,0,1-.1.28L227.3,823.47a.187.187,0,0,1-.281-.1l-.679-1.456A.187.187,0,0,1,226.445,821.631Zm19.293,8.833-3.78-6.479a.073.073,0,0,0-.116-.031l-3.926,2.289a.073.073,0,0,0-.028.115l2.6,4.453a.188.188,0,0,1-.077.29l-1.151.671a.187.187,0,0,1-.287-.076l-2.6-4.456a.076.076,0,0,0-.116-.029l-4.015,2.341a.076.076,0,0,0-.032.117l3.78,6.48a.189.189,0,0,1-.077.29l-1.149.671a.188.188,0,0,1-.29-.077l-4.737-8.125a.186.186,0,0,1,.076-.289l12.414-7.238a.186.186,0,0,1,.289.077l4.737,8.124a.184.184,0,0,1-.077.288l-1.149.669A.183.183,0,0,1,245.738,830.463Zm-6.464,12.726a4.361,4.361,0,0,1,.257-2.483,4.993,4.993,0,0,1,1.632-2.059l4.349-3.323a4.928,4.928,0,0,1,2.4-1.022,4.4,4.4,0,0,1,2.448.42,5.849,5.849,0,0,1,2.113,1.775,5.93,5.93,0,0,1,1.167,2.484,4.333,4.333,0,0,1-.2,2.432,4.637,4.637,0,0,1-1.558,2l-.015.01a.242.242,0,0,1-.175.055.2.2,0,0,1-.137-.079l-1.044-1.228a.176.176,0,0,1,.024-.281l.049-.041a2.889,2.889,0,0,0,1.217-1.993,3.532,3.532,0,0,0-2.753-3.6,2.879,2.879,0,0,0-2.249.642l-4.467,3.412a2.89,2.89,0,0,0-1.209,2,3.126,3.126,0,0,0,.726,2.3,3.092,3.092,0,0,0,2.026,1.3,2.908,2.908,0,0,0,2.243-.649l.034-.024a.176.176,0,0,1,.279.051l.908,1.328a.186.186,0,0,1-.042.3,4.66,4.66,0,0,1-2.345.983,4.4,4.4,0,0,1-2.416-.43,6.346,6.346,0,0,1-3.256-4.28Zm24.226,8.469-5.26-5.351a.073.073,0,0,0-.119,0l-3.241,3.186a.071.071,0,0,0,0,.118l3.614,3.68a.185.185,0,0,1,0,.3l-.951.933a.186.186,0,0,1-.3,0l-3.614-3.678a.075.075,0,0,0-.121,0l-3.316,3.258a.078.078,0,0,0,0,.121l5.26,5.35a.189.189,0,0,1,0,.3l-.949.934a.187.187,0,0,1-.3,0l-6.592-6.706a.189.189,0,0,1,0-.3l10.249-10.073a.188.188,0,0,1,.3,0l6.592,6.709a.187.187,0,0,1,0,.3l-.95.933A.185.185,0,0,1,263.5,851.659Zm-5.62,12.178.928-1.154a.42.42,0,0,1,.235-.162l12.633-3.928c.021,0,.033-.016.041-.047a.069.069,0,0,0-.024-.074l-5.62-4.511a.184.184,0,0,1-.032-.295l.832-1.041a.186.186,0,0,1,.3-.029l7.32,5.868a.189.189,0,0,1,.03.3l-.924,1.152a.439.439,0,0,1-.237.162l-12.669,3.9c-.016,0-.03.017-.038.05a.07.07,0,0,0,.024.071l5.653,4.538a.186.186,0,0,1,.032.3l-.833,1.037a.185.185,0,0,1-.3.033l-7.319-5.871A.187.187,0,0,1,257.88,863.837Zm13.073,9.644a4.129,4.129,0,0,1-.624-2.288,4.6,4.6,0,0,1,.749-2.349l.8-1.27a.187.187,0,0,1,.293-.066l1.358.853a.183.183,0,0,1,.068.287l-.8,1.274a2.691,2.691,0,0,0-.4,2.155,3.368,3.368,0,0,0,3.633,2.278,2.66,2.66,0,0,0,1.783-1.291l5.41-8.629a.188.188,0,0,1,.292-.068l1.362.854a.187.187,0,0,1,.068.291l-5.412,8.63a4.533,4.533,0,0,1-1.8,1.692,4.189,4.189,0,0,1-2.346.422,6.268,6.268,0,0,1-4.432-2.777Zm11.405,6.9,6.526-12.8a.186.186,0,0,1,.283-.092l1.433.729a.186.186,0,0,1,.09.284l-6.526,12.8a.186.186,0,0,1-.284.1l-1.432-.732A.185.185,0,0,1,282.359,880.379Zm26.163-4.725-.449,1.277a.187.187,0,0,1-.27.131l-3.829-1.341a.075.075,0,0,0-.107.053l-4.2,12.007a.189.189,0,0,1-.27.13l-1.515-.53a.188.188,0,0,1-.13-.27l4.2-12.008a.076.076,0,0,0-.051-.11l-3.65-1.274a.187.187,0,0,1-.131-.269l.448-1.276a.186.186,0,0,1,.269-.131l9.555,3.342A.19.19,0,0,1,308.522,875.655Zm7.44,16.583-.193-2.58a.083.083,0,0,0-.068-.08l-5.792-1.317a.078.078,0,0,0-.1.043l-1.291,2.242a.244.244,0,0,1-.285.107l-1.669-.379c-.151-.036-.189-.124-.112-.265L314.162,877a.249.249,0,0,1,.284-.109l2.062.47a.243.243,0,0,1,.208.22l1.362,15.071v.085c-.021.1-.1.131-.217.1l-1.69-.386A.248.248,0,0,1,315.962,892.238Zm-5.246-5.475a.094.094,0,0,0,.065.048l4.74,1.078a.1.1,0,0,0,.078-.013.057.057,0,0,0,.026-.071l-.649-8.189a.065.065,0,0,0-.053-.054.069.069,0,0,0-.071.026l-4.13,7.1A.053.053,0,0,0,310.716,886.763Zm20.672,7.511-2.343-6.575a.078.078,0,0,0-.077-.069l-3.03-.291a.075.075,0,0,0-.092.077l-.593,6.2a.188.188,0,0,1-.234.19l-1.6-.153a.187.187,0,0,1-.189-.231l1.371-14.3a.188.188,0,0,1,.231-.19l5.659.542a4.592,4.592,0,0,1,2.17.738,3.749,3.749,0,0,1,1.342,1.618,4.486,4.486,0,0,1,.315,2.237,4.061,4.061,0,0,1-1.005,2.42,3.785,3.785,0,0,1-2.27,1.171c-.057.024-.077.057-.052.1l2.444,6.6a.254.254,0,0,1,.01.109c-.007.1-.068.142-.181.13l-1.662-.159A.236.236,0,0,1,331.388,894.274Zm-4.919-13.339-.451,4.713a.073.073,0,0,0,.074.091l3.515.337a2.434,2.434,0,0,0,1.849-.49,2.375,2.375,0,0,0,.844-1.694,2.328,2.328,0,0,0-2.225-2.7l-3.514-.338A.074.074,0,0,0,326.469,880.936Zm20.833-1.272,1.606-.059a.186.186,0,0,1,.219.2l.524,14.361a.186.186,0,0,1-.2.217l-1.54.056a.3.3,0,0,1-.259-.139l-7-10.549c-.017-.041-.038-.058-.065-.05s-.042.032-.041.075l.411,10.707a.186.186,0,0,1-.2.217l-1.606.059a.187.187,0,0,1-.219-.2l-.52-14.36a.187.187,0,0,1,.2-.221l1.562-.057a.313.313,0,0,1,.26.141l6.981,10.551c.015.041.038.058.065.052s.041-.033.039-.075l-.412-10.706A.189.189,0,0,1,347.3,879.664Zm10.666,13.24a4.535,4.535,0,0,1-2.115-1.451,5.288,5.288,0,0,1-1.091-2.5l-.845-4.96a5.211,5.211,0,0,1,.2-2.715,4.555,4.555,0,0,1,1.515-2.058,6.215,6.215,0,0,1,5.393-.918,4.546,4.546,0,0,1,2.112,1.439,5.22,5.22,0,0,1,1.09,2.493l.845,4.96a5.251,5.251,0,0,1-.2,2.723,4.511,4.511,0,0,1-1.511,2.07,6.221,6.221,0,0,1-5.395.921Zm4.64-2.828a3.169,3.169,0,0,0,.48-2.462l-.863-5.063a3.222,3.222,0,0,0-1.276-2.193,3.127,3.127,0,0,0-2.441-.5,3.091,3.091,0,0,0-2.129,1.275,3.25,3.25,0,0,0-.468,2.49l.865,5.063a3.2,3.2,0,0,0,1.259,2.166,3.106,3.106,0,0,0,2.429.485A3.14,3.14,0,0,0,362.609,890.076Zm11.714-.371-8.262-12.438-.038-.054c-.036-.106.014-.182.146-.225l1.627-.535a.219.219,0,0,1,.281.11l5.909,9.137a.066.066,0,0,0,.064.024c.021-.007.03-.026.035-.057l-.786-10.815a.217.217,0,0,1,.16-.256l1.588-.52a.217.217,0,0,1,.279.108l5.917,9.159c.023.022.039.032.054.026s.02-.021.024-.054l-.634-10.888a.219.219,0,0,1,.161-.254l1.526-.5a.177.177,0,0,1,.254.162l.842,14.846a.217.217,0,0,1-.162.253l-1.547.508a.218.218,0,0,1-.279-.109l-6.028-9.5c-.027-.035-.048-.051-.06-.047s-.02.03-.021.074l.847,11.2a.2.2,0,0,1-.16.254l-1.467.479A.207.207,0,0,1,374.323,889.7Zm18.817-7.321a4.115,4.115,0,0,1-2.285-.464,3.731,3.731,0,0,1-1.55-1.661l-.272-.548a.187.187,0,0,1,.094-.284l1.381-.686a.184.184,0,0,1,.282.092l.228.456a2.134,2.134,0,0,0,1.623,1.173,4.188,4.188,0,0,0,2.6-.518,3.366,3.366,0,0,0,1.692-1.531,1.984,1.984,0,0,0-.053-1.766,1.711,1.711,0,0,0-.841-.833,3.629,3.629,0,0,0-1.377-.271,21.119,21.119,0,0,0-2.32.108,21.525,21.525,0,0,1-2.666.125,4.507,4.507,0,0,1-1.9-.478,3.258,3.258,0,0,1-1.423-1.523,3.456,3.456,0,0,1-.111-3.133,5.5,5.5,0,0,1,2.687-2.5,6.718,6.718,0,0,1,2.694-.753,4.235,4.235,0,0,1,2.3.506,3.83,3.83,0,0,1,1.556,1.681l.189.378a.186.186,0,0,1-.094.283l-1.419.708a.189.189,0,0,1-.284-.1l-.143-.284a2.274,2.274,0,0,0-1.6-1.244,3.665,3.665,0,0,0-2.489.427,3.352,3.352,0,0,0-1.576,1.389,1.826,1.826,0,0,0,.05,1.71,1.779,1.779,0,0,0,.831.862,3.168,3.168,0,0,0,1.311.231c.525,0,1.305-.057,2.338-.161a23.312,23.312,0,0,1,2.661-.11,4.667,4.667,0,0,1,1.965.48,3.273,3.273,0,0,1,1.449,1.533,3.579,3.579,0,0,1,.1,3.247,5.852,5.852,0,0,1-2.871,2.647A7.166,7.166,0,0,1,393.139,882.383Zm11.848-6.176-7.959-11.964a.184.184,0,0,1,.06-.291l1.336-.891a.188.188,0,0,1,.294.059l3.733,5.614a.05.05,0,0,0,.065.021.054.054,0,0,0,.035-.063l1.239-9.047a.285.285,0,0,1,.14-.248l1.53-1.015a.181.181,0,0,1,.184-.034c.05.026.069.085.063.171l-.9,7.732a.184.184,0,0,0,.071.106l9.039,3.858a.31.31,0,0,1,.1.085c.05.069.024.137-.069.2l-1.53,1.017a.309.309,0,0,1-.282.035l-7.627-3.224a.07.07,0,0,0-.076,0,.082.082,0,0,0-.042.052l-.377,2.639a.315.315,0,0,0,.024.111l2.633,3.957a.187.187,0,0,1-.057.293l-1.339.889A.185.185,0,0,1,404.987,876.207Zm12.5-8.85-9.038-11.171a.186.186,0,0,1,.03-.3l1.25-1.011a.188.188,0,0,1,.3.031l9.039,11.172a.185.185,0,0,1-.03.3l-1.248,1.01A.188.188,0,0,1,417.489,867.357Zm3.928-20.858-5.379,5.229a.075.075,0,0,0,0,.119l3.167,3.258a.074.074,0,0,0,.119,0l3.7-3.594a.188.188,0,0,1,.3.005l.927.954a.187.187,0,0,1-.006.3l-3.7,3.594a.075.075,0,0,0,0,.121l3.241,3.333a.074.074,0,0,0,.118,0l5.38-5.23a.186.186,0,0,1,.3.005l.928.953a.187.187,0,0,1,0,.3l-6.742,6.556a.19.19,0,0,1-.3,0l-10.015-10.3a.186.186,0,0,1,0-.3l6.741-6.555a.187.187,0,0,1,.3,0l.928.954A.19.19,0,0,1,421.417,846.5Zm13.3,3.968a4.144,4.144,0,0,1-2.344.349,4.6,4.6,0,0,1-2.244-1.021l-1.167-.943a.185.185,0,0,1-.033-.294l1.008-1.252a.189.189,0,0,1,.3-.032l1.167.942a2.693,2.693,0,0,0,2.092.654,2.97,2.97,0,0,0,1.955-1.191,3,3,0,0,0,.738-2.146,2.668,2.668,0,0,0-1.07-1.924l-7.928-6.393a.187.187,0,0,1-.032-.3l1.01-1.251a.185.185,0,0,1,.3-.032l7.928,6.4a4.514,4.514,0,0,1,1.467,1.985A4.206,4.206,0,0,1,438,846.4a6.289,6.289,0,0,1-3.283,4.069Z" transform="translate(-214.827 -644.719)"/></svg>