<svg xmlns="http://www.w3.org/2000/svg" width="57.399" height="25.54" viewBox="0 0 57.399 25.54"><defs><style>.a{fill:#fcb433;}.b{fill:#fff;}</style></defs><g transform="translate(-28.337 -44.118)"><path class="a" d="M33.775,68.034q-3.669,0-4.77-2.275a9.247,9.247,0,0,1-.661-3.816V55.338q0-5.431,5.578-5.431,3.009,0,4.11,1.468a6.385,6.385,0,0,1,1.174,4.11V59.3H32.234v3.523a4.4,4.4,0,0,0,.367,2.348,1.394,1.394,0,0,0,1.174.514,1.321,1.321,0,0,0,1.027-.294,2.128,2.128,0,0,0,.44-1.1q.073-.732.073-1.468V61.062h3.816v.954a9.247,9.247,0,0,1-.44,3.449,3.89,3.89,0,0,1-1.1,1.541,6.238,6.238,0,0,1-3.816,1.027ZM32.234,57.319H35.39V55.044a5.5,5.5,0,0,0-.294-2.055,1.174,1.174,0,0,0-1.174-.661h0q-1.541,0-1.615,1.908v.954Z" transform="translate(0 -1.533)"/><path class="a" d="M44.517,71.19V50.054h3.89v1.615a2.862,2.862,0,0,1,1.321-1.321,3.963,3.963,0,0,1,1.835-.44,4.7,4.7,0,0,1,1.688.294,3.009,3.009,0,0,1,1.835,1.908,10.2,10.2,0,0,1,.44,3.376v6.458a8.89,8.89,0,0,1-.734,4.33,3.376,3.376,0,0,1-1.908,1.541,5.8,5.8,0,0,1-1.615.22,3.6,3.6,0,0,1-1.615-.367,3.523,3.523,0,0,1-1.174-.954V71.19Zm4.257-6.385a1.321,1.321,0,0,0,1.321.661,1.248,1.248,0,0,0,1.321-.734,5.945,5.945,0,0,0,.294-2.275V55.118q0-2.128-.734-2.569a1.615,1.615,0,0,0-.807-.22,1.541,1.541,0,0,0-1.321.587,3.816,3.816,0,0,0-.44,2.128V62.6a5.064,5.064,0,0,0,.367,2.2Z" transform="translate(-4.283 -1.532)"/><path class="a" d="M61.186,46.833V44.118h3.89v2.715Zm.073,19.375V48.521h3.89v17.76Z" transform="translate(-8.696)"/><path class="a" d="M73.719,68q-3.3,0-4.477-1.541a7.559,7.559,0,0,1-1.174-4.55v-5.8q0-3.89,1.688-5.211a6.311,6.311,0,0,1,4.036-1.1,4.98,4.98,0,0,1,3.89,1.321,5.5,5.5,0,0,1,1.174,3.816V56.92H75.113V54.792a3.6,3.6,0,0,0-.367-2.055,1.541,1.541,0,0,0-1.174-.44,1.248,1.248,0,0,0-1.174.587,3.816,3.816,0,0,0-.367,1.908v8.073a4.256,4.256,0,0,0,.294,1.908,1.321,1.321,0,0,0,1.248.587q1.321,0,1.468-1.468a6.386,6.386,0,0,0,.073-.807V60.737h3.743v1.835a6.018,6.018,0,0,1-1.174,4.036Q76.508,68,73.719,68Z" transform="translate(-10.514 -1.5)"/><path class="b" d="M89.672,44.417H92.02V56.453H89.672V55.206a2.2,2.2,0,0,1-.954,1.027,3.523,3.523,0,0,1-1.761.367,2.936,2.936,0,0,1-1.908-.661,2.422,2.422,0,0,1-.807-1.982V44.417h2.348v9.321a1.248,1.248,0,0,0,1.468,1.394,1.688,1.688,0,0,0,1.248-.367,1.394,1.394,0,0,0,.44-1.027Z" transform="translate(-14.798 -0.079)"/><path class="b" d="M98.37,45.418a1.982,1.982,0,0,1,.954-.807,3.449,3.449,0,0,1,1.394-.294q2.055,0,2.569,1.468a7.045,7.045,0,0,1,.367,2.348v4.33q0,2.422-.881,3.229a3.3,3.3,0,0,1-2.422.807,2.5,2.5,0,0,1-1.174-.294,2.275,2.275,0,0,1-.807-.661v3.009H96.021V44.391H98.37Zm2.936,2.5v-.44h0a2.055,2.055,0,0,0-.147-.881l-.294-.44a1.174,1.174,0,0,0-.881-.294l-.881.147q-.734.367-.734,2.128v4.7a3.963,3.963,0,0,0,.294,1.835,1.248,1.248,0,0,0,1.174.587,1.174,1.174,0,0,0,1.174-.587,4.477,4.477,0,0,0,.294-1.908Z" transform="translate(-17.918 -0.053)"/></g></svg>