<svg xmlns="http://www.w3.org/2000/svg" width="199.797" height="199.816" viewBox="0 0 199.797 199.816"><defs><style>.a{fill:#ea5b62;}</style></defs><path class="a" d="M360.915,762.844l-.75-.4a.118.118,0,0,1-.054-.182l1.982-3.68a.12.12,0,0,1,.184-.055l.751.4a.12.12,0,0,1,.053.183L361.1,762.79A.119.119,0,0,1,360.915,762.844Zm10.108-13.964-9.555-.005-.042,0c-.071-.019-.094-.072-.069-.159l.292-1.056a.139.139,0,0,1,.157-.111l6.964.089a.036.036,0,0,0,.034-.025.038.038,0,0,0-.017-.04l-6.044-3.414a.136.136,0,0,1-.078-.175l.285-1.029a.139.139,0,0,1,.157-.111l6.976.093c.021,0,.033-.01.036-.02s0-.018-.02-.033l-6.027-3.521a.137.137,0,0,1-.078-.175l.274-.991a.123.123,0,0,1,.066-.086.125.125,0,0,1,.109.008l8.212,4.813a.136.136,0,0,1,.076.174l-.277,1.005a.139.139,0,0,1-.157.111l-7.2-.154c-.028,0-.043.005-.045.015s.008.021.032.036l6.268,3.517a.129.129,0,0,1,.077.175l-.263.953A.135.135,0,0,1,371.023,748.88Zm2.991-13.9-3.771-.459c-.037,0-.059,0-.069.006l-5.589,2.152a.152.152,0,0,1-.07.008c-.062-.008-.09-.049-.082-.119l.134-1.1a.159.159,0,0,1,.115-.149l4.183-1.576a.043.043,0,0,0,.032-.036.048.048,0,0,0-.022-.044l-3.684-2.533a.156.156,0,0,1-.074-.172l.135-1.115a.119.119,0,0,1,.059-.1.1.1,0,0,1,.114.022l4.907,3.444a.105.105,0,0,0,.067.022l3.772.458a.121.121,0,0,1,.118.152l-.124,1.02A.12.12,0,0,1,374.014,734.982Zm.678-7.254-9.2.012a.121.121,0,0,1-.135-.135l0-3.273a3.283,3.283,0,0,1,.734-2.246,2.5,2.5,0,0,1,1.967-.841l4.058,0a2.485,2.485,0,0,1,1.969.836,3.273,3.273,0,0,1,.741,2.243l0,3.274A.12.12,0,0,1,374.692,727.728Zm-.989-1.352,0-2.109a1.675,1.675,0,0,0-.481-1.252,1.836,1.836,0,0,0-1.292-.478l-3.68,0a1.773,1.773,0,0,0-1.292.469,1.677,1.677,0,0,0-.477,1.264l0,2.11a.049.049,0,0,0,.054.055l7.115-.009A.048.048,0,0,0,373.7,726.376Zm.78-8.148-.94.115a.275.275,0,0,1-.181-.033l-7.543-3.845c-.011-.008-.024-.006-.042.006a.044.044,0,0,0-.021.044l.561,4.577a.121.121,0,0,1-.119.151l-.845.1a.121.121,0,0,1-.151-.119l-.729-5.96a.118.118,0,0,1,.117-.151l.94-.116a.273.273,0,0,1,.18.034l7.547,3.87c.009.008.022.006.041,0a.042.042,0,0,0,.02-.043l-.563-4.606a.119.119,0,0,1,.117-.15l.847-.1a.119.119,0,0,1,.15.117l.732,5.961A.12.12,0,0,1,374.483,718.228Zm-1.381-9.295-9,1.9a.118.118,0,0,1-.16-.1l-.212-1.006a.12.12,0,0,1,.1-.16l9-1.9a.119.119,0,0,1,.16.106l.212,1A.12.12,0,0,1,373.1,708.934Zm-2.7-10.193-1.368.932a.052.052,0,0,0-.024.063l1.122,3.631a.054.054,0,0,0,.056.04l1.655,0a.158.158,0,0,1,.152.124l.324,1.047c.029.093-.008.143-.111.147l-9.673-.109a.156.156,0,0,1-.152-.124l-.4-1.292a.156.156,0,0,1,.053-.186l7.919-5.578.046-.028c.061-.019.1.011.126.088l.327,1.059A.159.159,0,0,1,370.4,698.741Zm-1.355,4.658a.075.075,0,0,0,0-.052l-.92-2.972a.069.069,0,0,0-.033-.039.038.038,0,0,0-.047.008l-4.33,2.981a.044.044,0,0,0-.014.047.044.044,0,0,0,.039.031l5.256.016A.038.038,0,0,0,369.046,703.4Zm-2.023-10.455-1.932-4.248a.119.119,0,0,1,.066-.179l.777-.354a.119.119,0,0,1,.178.067l2.438,5.356a.12.12,0,0,1-.069.178l-2.7,1.227a.048.048,0,0,0-.029.036c0,.016.009.026.033.035l1.42.736a.105.105,0,0,1,.056.063.127.127,0,0,1,0,.122l-.31.661a.117.117,0,0,1-.176.066l-2.2-1.14a.088.088,0,0,0-.072,0l-4.395,2a.119.119,0,0,1-.179-.067l-.426-.935a.119.119,0,0,1,.067-.18l3.434-1.563a.046.046,0,0,0,.03-.036c0-.016-.008-.029-.032-.037L359.8,693.1a.116.116,0,0,1-.06-.064.131.131,0,0,1,0-.121l.322-.666a.128.128,0,0,1,.071-.076.112.112,0,0,1,.107.01l3.973,2.069a.086.086,0,0,0,.073,0L367,693.016A.048.048,0,0,0,367.023,692.945Zm-4.629-10.922-7.58,5.21a.121.121,0,0,1-.188-.035l-1.853-2.7a3.274,3.274,0,0,1-.665-2.267,2.488,2.488,0,0,1,1.149-1.806l3.343-2.3a2.49,2.49,0,0,1,2.1-.424,3.288,3.288,0,0,1,1.881,1.434l1.853,2.7A.119.119,0,0,1,362.393,682.023Zm-1.58-.556-1.2-1.737a1.666,1.666,0,0,0-1.1-.76,1.825,1.825,0,0,0-1.337.335l-3.032,2.084a1.77,1.77,0,0,0-.8,1.116,1.687,1.687,0,0,0,.321,1.314l1.195,1.74a.048.048,0,0,0,.075.014l5.863-4.029A.048.048,0,0,0,360.814,681.467Zm-5.469-8.673a2.84,2.84,0,0,1-.035,1.6,3.126,3.126,0,0,1-.932,1.4l-4.709,4.228a.12.12,0,0,1-.191-.01l-.688-.766a.12.12,0,0,1,.011-.19l4.731-4.247a1.89,1.89,0,0,0,.682-1.367,2.035,2.035,0,0,0-.579-1.453,2.007,2.007,0,0,0-1.38-.726,1.9,1.9,0,0,0-1.427.537l-4.729,4.247a.122.122,0,0,1-.192-.01l-.686-.764a.122.122,0,0,1,.011-.193l4.709-4.228a3.193,3.193,0,0,1,1.488-.781,2.777,2.777,0,0,1,1.591.133,4.12,4.12,0,0,1,2.325,2.586Zm-6.948-7.211a2.644,2.644,0,0,1,.289,1.466,2.383,2.383,0,0,1-.6,1.323l-.257.3a.119.119,0,0,1-.19.015l-.747-.648a.118.118,0,0,1-.013-.189l.213-.247a1.364,1.364,0,0,0,.292-1.248,2.669,2.669,0,0,0-.945-1.408,2.161,2.161,0,0,0-1.321-.624,1.271,1.271,0,0,0-1.031.468,1.1,1.1,0,0,0-.285.7,2.308,2.308,0,0,0,.18.878,13.447,13.447,0,0,0,.634,1.345,13.67,13.67,0,0,1,.73,1.543,2.889,2.889,0,0,1,.184,1.242,2.072,2.072,0,0,1-.55,1.216,2.2,2.2,0,0,1-1.824.835,3.506,3.506,0,0,1-2.136-.972,4.273,4.273,0,0,1-1.108-1.406,2.692,2.692,0,0,1-.265-1.482,2.426,2.426,0,0,1,.608-1.334l.177-.2a.118.118,0,0,1,.19-.014l.767.663a.12.12,0,0,1,.015.192l-.132.154a1.453,1.453,0,0,0-.341,1.251,2.355,2.355,0,0,0,.865,1.366,2.128,2.128,0,0,0,1.209.589,1.171,1.171,0,0,0,1-.451,1.13,1.13,0,0,0,.3-.7,1.991,1.991,0,0,0-.185-.831q-.2-.464-.671-1.341a15.051,15.051,0,0,1-.721-1.545,2.987,2.987,0,0,1-.2-1.28,2.1,2.1,0,0,1,.549-1.233,2.289,2.289,0,0,1,1.895-.857,3.736,3.736,0,0,1,2.271,1.044A4.59,4.59,0,0,1,348.4,665.583Zm-6.078-5.13-.532.782a.267.267,0,0,1-.144.117l-7.857,3.15c-.012,0-.02.013-.023.032a.045.045,0,0,0,.017.045l3.818,2.591a.119.119,0,0,1,.036.186l-.479.707a.12.12,0,0,1-.187.035L332,664.727a.121.121,0,0,1-.036-.188l.531-.784a.276.276,0,0,1,.144-.115l7.879-3.135c.014,0,.021-.014.023-.034a.038.038,0,0,0-.018-.045l-3.838-2.606a.12.12,0,0,1-.037-.187l.48-.706a.119.119,0,0,1,.187-.036l4.97,3.372A.121.121,0,0,1,342.318,660.453Zm-16.863.346a2.407,2.407,0,0,1-.418-1.307,2.893,2.893,0,0,1,.354-1.432,2.794,2.794,0,0,1,.965-1.1,2.435,2.435,0,0,1,1.319-.383,3.147,3.147,0,0,1,1.47.383l2.114,1.1a.047.047,0,0,0,.072-.023l1.77-3.409a.119.119,0,0,1,.183-.058l.912.473a.121.121,0,0,1,.059.182L330.01,663.4a.119.119,0,0,1-.182.056l-3.242-1.681A2.984,2.984,0,0,1,325.455,660.8Zm2.044-3a1.58,1.58,0,0,0-.943.836,1.557,1.557,0,0,0,.7,2.225l2,1.041a.048.048,0,0,0,.073-.023l1.458-2.81a.047.047,0,0,0-.023-.073l-2-1.041A1.639,1.639,0,0,0,327.5,657.8Zm-6.8-8.687-.1,1.653a.054.054,0,0,0,.036.057l3.555,1.341a.052.052,0,0,0,.066-.02l1.014-1.307a.155.155,0,0,1,.189-.045l1.025.387q.139.052.048.178l-6.021,7.571a.159.159,0,0,1-.19.045l-1.266-.478a.159.159,0,0,1-.114-.159l.456-9.673.006-.055c.022-.059.071-.073.147-.046l1.038.391A.159.159,0,0,1,320.7,649.111Zm2.848,3.929a.066.066,0,0,0-.038-.036l-2.911-1.1a.074.074,0,0,0-.052,0,.038.038,0,0,0-.022.042l-.3,5.249a.045.045,0,0,0,.027.04.043.043,0,0,0,.048-.012l3.239-4.141A.039.039,0,0,0,323.55,653.041Zm-7.855-5.333a2.638,2.638,0,0,1,.92,1.174,2.379,2.379,0,0,1,.066,1.451l-.095.382a.119.119,0,0,1-.163.1l-.959-.238a.119.119,0,0,1-.1-.164l.077-.316a1.361,1.361,0,0,0-.3-1.245,2.679,2.679,0,0,0-1.48-.827,2.166,2.166,0,0,0-1.46.042,1.272,1.272,0,0,0-.708.884,1.107,1.107,0,0,0,.064.754,2.352,2.352,0,0,0,.558.7,13.062,13.062,0,0,0,1.174.913,13.45,13.45,0,0,1,1.35,1.045,2.877,2.877,0,0,1,.729,1.023,2.071,2.071,0,0,1,.058,1.332,2.2,2.2,0,0,1-1.246,1.572,3.508,3.508,0,0,1-2.344.1,4.264,4.264,0,0,1-1.626-.754,2.7,2.7,0,0,1-.908-1.2,2.451,2.451,0,0,1-.061-1.464l.064-.262a.12.12,0,0,1,.164-.1l.986.243a.119.119,0,0,1,.1.163l-.048.2a1.455,1.455,0,0,0,.263,1.271,2.358,2.358,0,0,0,1.391.825,2.123,2.123,0,0,0,1.343-.023,1.164,1.164,0,0,0,.685-.854,1.115,1.115,0,0,0-.047-.763,1.976,1.976,0,0,0-.541-.657q-.386-.326-1.207-.891a15.789,15.789,0,0,1-1.343-1.052,2.973,2.973,0,0,1-.755-1.051,2.081,2.081,0,0,1-.069-1.348,2.281,2.281,0,0,1,1.3-1.62,3.739,3.739,0,0,1,2.5-.1A4.6,4.6,0,0,1,315.695,647.708ZM300.384,654.2l.108-.857a.122.122,0,0,1,.153-.119l2.577.327a.047.047,0,0,0,.06-.046l1.028-8.077a.119.119,0,0,1,.151-.118l1.019.131a.12.12,0,0,1,.117.15l-1.027,8.078a.048.048,0,0,0,.046.06l2.456.313a.119.119,0,0,1,.117.15l-.109.86a.119.119,0,0,1-.152.116l-6.426-.817A.12.12,0,0,1,300.384,654.2Zm-8.35-1.135,4.8.024a.048.048,0,0,0,.054-.054l.013-2.907a.047.047,0,0,0-.053-.054l-3.3-.016a.122.122,0,0,1-.136-.137l0-.851a.122.122,0,0,1,.137-.136l3.3.018a.048.048,0,0,0,.054-.054l.015-2.977a.046.046,0,0,0-.053-.054l-4.8-.024a.121.121,0,0,1-.135-.137l0-.852a.12.12,0,0,1,.135-.134l6.019.03a.12.12,0,0,1,.135.137l-.045,9.2a.121.121,0,0,1-.137.136l-6.018-.03a.12.12,0,0,1-.134-.137l0-.851A.12.12,0,0,1,292.034,653.063Zm-8.823-7.4,2.363,3.789a.052.052,0,0,0,.058.034l1.932-.233a.048.048,0,0,0,.048-.06l-.475-3.962a.117.117,0,0,1,.118-.149l1.021-.123a.118.118,0,0,1,.15.116l1.1,9.131a.118.118,0,0,1-.118.151l-3.612.435a2.932,2.932,0,0,1-1.457-.165,2.378,2.378,0,0,1-1.061-.827,2.863,2.863,0,0,1-.5-1.356,2.594,2.594,0,0,1,.3-1.651,2.425,2.425,0,0,1,1.259-1.042c.034-.022.041-.045.018-.071l-2.43-3.793a.147.147,0,0,1-.022-.066q-.012-.093.1-.108l1.061-.128A.15.15,0,0,1,283.211,645.662Zm4.9,7.665-.361-3.006c0-.037-.024-.054-.061-.049l-2.242.27a1.571,1.571,0,0,0-1.091.56,1.518,1.518,0,0,0-.295,1.174,1.487,1.487,0,0,0,1.76,1.381l2.242-.268A.048.048,0,0,0,288.11,653.327Zm-10.527-6.473a2.64,2.64,0,0,1,1.357.623,2.391,2.391,0,0,1,.723,1.263l.09.38a.12.12,0,0,1-.1.162l-.96.228a.119.119,0,0,1-.162-.1l-.075-.315a1.368,1.368,0,0,0-.842-.97,2.666,2.666,0,0,0-1.694-.056,2.149,2.149,0,0,0-1.278.706,1.268,1.268,0,0,0-.224,1.108,1.1,1.1,0,0,0,.4.644,2.322,2.322,0,0,0,.817.367,13.265,13.265,0,0,0,1.462.274,13.644,13.644,0,0,1,1.678.311,2.874,2.874,0,0,1,1.116.577,2.076,2.076,0,0,1,.663,1.156,2.2,2.2,0,0,1-.39,1.968,3.5,3.5,0,0,1-2.038,1.164,4.271,4.271,0,0,1-1.789.076,2.7,2.7,0,0,1-1.356-.653,2.443,2.443,0,0,1-.726-1.274l-.061-.264a.117.117,0,0,1,.1-.162l.988-.233a.119.119,0,0,1,.162.1l.045.2a1.463,1.463,0,0,0,.816,1.008,2.346,2.346,0,0,0,1.614.1,2.135,2.135,0,0,0,1.184-.635,1.166,1.166,0,0,0,.217-1.074,1.114,1.114,0,0,0-.391-.657,1.955,1.955,0,0,0-.781-.335q-.491-.115-1.481-.241a15.75,15.75,0,0,1-1.674-.32,3.026,3.026,0,0,1-1.155-.589,2.1,2.1,0,0,1-.678-1.167,2.285,2.285,0,0,1,.416-2.036,3.758,3.758,0,0,1,2.175-1.232A4.609,4.609,0,0,1,277.582,646.854Zm-10.67,12.889-.3-.81a.119.119,0,0,1,.079-.174l2.434-.908a.048.048,0,0,0,.031-.07l-2.846-7.628a.118.118,0,0,1,.079-.174l.962-.359a.12.12,0,0,1,.174.079l2.847,7.629a.048.048,0,0,0,.07.032l2.318-.865a.12.12,0,0,1,.175.078l.3.812a.12.12,0,0,1-.079.174l-6.07,2.264A.119.119,0,0,1,266.912,659.743Zm-8.046-6.4,6.678,6.835.032.029c.036.062.012.116-.066.159l-.96.53a.139.139,0,0,1-.188-.034l-4.807-5.04a.037.037,0,0,0-.042-.008.038.038,0,0,0-.017.04l1.786,6.706a.139.139,0,0,1-.071.18l-.936.516a.139.139,0,0,1-.189-.035l-4.812-5.05c-.016-.013-.03-.016-.037-.012s-.012.016-.012.036l1.7,6.772a.138.138,0,0,1-.072.177l-.9.5a.115.115,0,0,1-.179-.071l-2.3-9.236a.138.138,0,0,1,.074-.177l.911-.5a.141.141,0,0,1,.188.034l4.925,5.254c.02.019.035.026.044.021s.008-.019,0-.047l-1.87-6.939a.13.13,0,0,1,.07-.179l.867-.478A.136.136,0,0,1,258.867,653.344Zm-13.627,8.729,1.335.978a.051.051,0,0,0,.068,0l3.048-2.268a.054.054,0,0,0,.02-.066l-.554-1.559a.157.157,0,0,1,.066-.184l.879-.653c.079-.06.138-.042.176.054l3.121,9.157a.154.154,0,0,1-.064.184l-1.085.808a.16.16,0,0,1-.194.01l-7.9-5.606-.045-.034c-.037-.051-.023-.1.042-.148l.89-.663A.16.16,0,0,1,245.24,662.073Zm4.845-.276a.077.077,0,0,0-.051.012l-2.5,1.858a.068.068,0,0,0-.025.045.039.039,0,0,0,.023.041l4.255,3.09a.044.044,0,0,0,.065-.048l-1.737-4.963A.038.038,0,0,0,250.084,661.8Zm-8.692,16.884-.7.755a.119.119,0,0,1-.191.008l-6.754-6.245a.12.12,0,0,1-.006-.191l.7-.755a.118.118,0,0,1,.19-.007l5.084,4.7a.059.059,0,0,0,.059.018c.018-.008.021-.024.009-.048l-.853-3.422a.185.185,0,0,1,.05-.176l.349-.375a.2.2,0,0,1,.172-.065l3.466.552c.025.012.041.008.046-.01a.053.053,0,0,0-.021-.057l-5.065-4.684a.12.12,0,0,1-.007-.191l.7-.754a.12.12,0,0,1,.192-.007l6.753,6.243a.121.121,0,0,1,.007.192l-.7.755a.182.182,0,0,1-.17.064l-4.207-.668a.05.05,0,0,0-.037.02.053.053,0,0,0-.018.04l1,4.133A.2.2,0,0,1,241.393,678.682Zm-10.477-.112-2.678,3.822a.12.12,0,0,1-.188.033l-.7-.489a.121.121,0,0,1-.033-.19l3.377-4.818a.119.119,0,0,1,.188-.034l2.426,1.7a.043.043,0,0,0,.045.008c.015-.006.021-.021.016-.048l-.087-1.6a.107.107,0,0,1,.024-.082.128.128,0,0,1,.107-.058l.725-.069a.133.133,0,0,1,.1.019.124.124,0,0,1,.046.1l.133,2.473a.091.091,0,0,0,.041.06l3.954,2.771a.122.122,0,0,1,.034.189l-.59.84a.119.119,0,0,1-.189.034l-3.091-2.165a.043.043,0,0,0-.044-.007c-.015.006-.021.021-.017.047l.2,3.606a.111.111,0,0,1-.024.082.13.13,0,0,1-.106.058l-.737.062a.14.14,0,0,1-.1-.021.119.119,0,0,1-.044-.1l-.237-4.475a.08.08,0,0,0-.04-.06l-2.435-1.709A.048.048,0,0,0,230.916,678.57Zm-5.7,7.392a2.89,2.89,0,0,1,1.56-.506,3.374,3.374,0,0,1,1.7.42l2.848,1.505a3.347,3.347,0,0,1,1.3,1.159,2.914,2.914,0,0,1,.454,1.572,3.976,3.976,0,0,1-1.635,3.1,2.9,2.9,0,0,1-1.553.51,3.329,3.329,0,0,1-1.692-.417l-2.846-1.5a3.372,3.372,0,0,1-1.305-1.164,2.9,2.9,0,0,1-.461-1.574,3.99,3.99,0,0,1,1.637-3.1Zm-.374,3.459a2.023,2.023,0,0,0,1.061,1.2l2.907,1.535a2.064,2.064,0,0,0,1.611.208,2,2,0,0,0,1.2-1.047,1.975,1.975,0,0,0,.183-1.579,2.089,2.089,0,0,0-1.082-1.206L227.814,687a2.046,2.046,0,0,0-1.589-.206,2.225,2.225,0,0,0-1.386,2.626Zm-3.65,4.377,8.61,3.237a.119.119,0,0,1,.079.174l-1.152,3.064a3.289,3.289,0,0,1-1.479,1.842,2.5,2.5,0,0,1-2.138.092l-3.8-1.429a2.49,2.49,0,0,1-1.547-1.476,3.282,3.282,0,0,1,.1-2.362l1.153-3.062A.117.117,0,0,1,221.188,693.8Zm.448,1.613-.742,1.975a1.661,1.661,0,0,0,.01,1.34,1.823,1.823,0,0,0,1.039.9l3.443,1.293a1.776,1.776,0,0,0,1.374.02,1.683,1.683,0,0,0,.894-1.016l.741-1.975a.046.046,0,0,0-.03-.069l-6.658-2.5A.05.05,0,0,0,221.637,695.41Zm-3.608,7.346.921.224a.269.269,0,0,1,.156.1l5.7,6.262c.007.012.02.016.04.01a.043.043,0,0,0,.036-.032l1.094-4.482a.119.119,0,0,1,.164-.1l.826.2a.12.12,0,0,1,.1.163l-1.424,5.834a.119.119,0,0,1-.164.1l-.919-.223a.273.273,0,0,1-.157-.095l-5.692-6.289c-.007-.01-.02-.014-.039-.01a.045.045,0,0,0-.036.034l-1.1,4.506a.12.12,0,0,1-.164.1l-.827-.2a.118.118,0,0,1-.1-.161l1.424-5.835A.119.119,0,0,1,218.028,702.756Zm-2,9.212,9.091,1.4a.121.121,0,0,1,.113.155l-.156,1.017a.121.121,0,0,1-.155.112l-9.091-1.4a.119.119,0,0,1-.113-.154l.155-1.016A.12.12,0,0,1,216.032,711.967Zm7.126,11.579.292-4.792c0-.037-.014-.056-.05-.057l-2.9-.177a.049.049,0,0,0-.058.051l-.2,3.294a.121.121,0,0,1-.143.126l-.85-.052a.121.121,0,0,1-.128-.144l.2-3.294a.049.049,0,0,0-.051-.058l-2.971-.181a.048.048,0,0,0-.057.051l-.292,4.792a.118.118,0,0,1-.143.127l-.851-.053a.118.118,0,0,1-.126-.142l.366-6.008a.122.122,0,0,1,.144-.127l9.18.561a.12.12,0,0,1,.127.143l-.366,6.008a.122.122,0,0,1-.144.127l-.85-.052A.12.12,0,0,1,223.157,723.546Zm-8.2,2.573.946-.054a.266.266,0,0,1,.178.044l7.284,4.316c.009.008.023.007.04,0a.042.042,0,0,0,.025-.043l-.269-4.6a.118.118,0,0,1,.128-.143l.851-.049a.119.119,0,0,1,.142.127l.351,5.994a.119.119,0,0,1-.128.142l-.947.056a.281.281,0,0,1-.177-.043l-7.285-4.344a.033.033,0,0,0-.041,0,.043.043,0,0,0-.025.042l.271,4.631a.12.12,0,0,1-.127.142l-.851.05a.118.118,0,0,1-.142-.126l-.351-6A.119.119,0,0,1,214.962,726.119Zm10.785,1.863a.918.918,0,1,1-.207.636A.84.84,0,0,1,225.747,727.982Zm-9.612,9.922,3.741-.663a.119.119,0,0,0,.066-.024l4.716-3.692a.134.134,0,0,1,.066-.026c.061-.012.1.019.111.091l.192,1.093a.157.157,0,0,1-.064.175l-3.542,2.729a.045.045,0,0,0-.021.044.046.046,0,0,0,.036.035l4.262,1.347a.158.158,0,0,1,.121.144l.2,1.1a.116.116,0,0,1-.03.108.1.1,0,0,1-.115.014l-5.7-1.862a.112.112,0,0,0-.068,0l-3.743.663a.12.12,0,0,1-.157-.109l-.179-1.012A.119.119,0,0,1,216.135,737.9Zm2.55,10.888,8.66-3.1a.119.119,0,0,1,.172.082l1.1,3.082a3.288,3.288,0,0,1,.063,2.362,2.488,2.488,0,0,1-1.571,1.452l-3.82,1.367a2.486,2.486,0,0,1-2.136-.126,3.272,3.272,0,0,1-1.451-1.866l-1.1-3.081A.118.118,0,0,1,218.685,748.793Zm1.384.941.713,1.986a1.659,1.659,0,0,0,.872,1.017,1.817,1.817,0,0,0,1.379.016l3.464-1.24a1.77,1.77,0,0,0,1.058-.874,1.685,1.685,0,0,0,.027-1.352l-.713-1.987a.047.047,0,0,0-.069-.033l-6.7,2.4A.047.047,0,0,0,220.07,749.734Zm2.193,8.209,8.334-3.888a.119.119,0,0,1,.18.066l.435.931a.12.12,0,0,1-.065.179l-8.335,3.89a.12.12,0,0,1-.18-.066l-.435-.932A.12.12,0,0,1,222.263,757.942ZM234.61,763.6l-2.419-4.147a.047.047,0,0,0-.075-.02l-2.513,1.465a.047.047,0,0,0-.018.074l1.662,2.85a.12.12,0,0,1-.049.186l-.736.43a.12.12,0,0,1-.183-.049l-1.663-2.852a.048.048,0,0,0-.075-.019l-2.57,1.5a.049.049,0,0,0-.02.075l2.419,4.147a.121.121,0,0,1-.049.185l-.735.429a.12.12,0,0,1-.185-.049l-3.032-5.2a.119.119,0,0,1,.048-.185l7.945-4.632a.119.119,0,0,1,.185.049l3.031,5.2a.118.118,0,0,1-.049.184l-.735.428A.117.117,0,0,1,234.61,763.6Zm-4.137,8.145a2.791,2.791,0,0,1,.164-1.589,3.2,3.2,0,0,1,1.044-1.318l2.783-2.127a3.154,3.154,0,0,1,1.535-.654,2.819,2.819,0,0,1,1.567.269,3.744,3.744,0,0,1,1.352,1.136,3.8,3.8,0,0,1,.747,1.59,2.773,2.773,0,0,1-.13,1.556,2.968,2.968,0,0,1-1,1.282l-.01.006a.155.155,0,0,1-.112.035.126.126,0,0,1-.088-.05l-.668-.786a.112.112,0,0,1,.016-.18l.032-.026a1.849,1.849,0,0,0,.779-1.276,2.261,2.261,0,0,0-1.762-2.3,1.842,1.842,0,0,0-1.439.411l-2.859,2.184a1.849,1.849,0,0,0-.774,1.28,2,2,0,0,0,.465,1.475,1.979,1.979,0,0,0,1.3.831,1.861,1.861,0,0,0,1.435-.415l.021-.016a.112.112,0,0,1,.179.033l.581.85a.119.119,0,0,1-.027.189,2.982,2.982,0,0,1-1.5.629,2.817,2.817,0,0,1-1.547-.275,4.061,4.061,0,0,1-2.084-2.739Zm15.5,5.42-3.367-3.425a.047.047,0,0,0-.076,0l-2.074,2.039a.046.046,0,0,0,0,.075l2.313,2.355a.118.118,0,0,1,0,.19l-.608.6a.119.119,0,0,1-.19,0l-2.313-2.354a.048.048,0,0,0-.077,0l-2.122,2.085a.05.05,0,0,0,0,.077l3.367,3.424a.121.121,0,0,1,0,.191l-.608.6a.119.119,0,0,1-.191,0l-4.219-4.292a.121.121,0,0,1,0-.192l6.56-6.446a.121.121,0,0,1,.192,0l4.219,4.294a.12.12,0,0,1,0,.19l-.608.6A.119.119,0,0,1,245.978,777.16Zm-3.6,7.794.594-.739a.269.269,0,0,1,.151-.1l8.085-2.514c.014,0,.021-.01.026-.03a.044.044,0,0,0-.016-.047l-3.6-2.887a.118.118,0,0,1-.02-.189l.532-.666a.119.119,0,0,1,.19-.019l4.685,3.756a.121.121,0,0,1,.019.192l-.591.737a.281.281,0,0,1-.152.1l-8.108,2.5c-.01,0-.019.011-.024.032a.045.045,0,0,0,.016.045l3.618,2.9a.119.119,0,0,1,.02.19l-.533.664a.119.119,0,0,1-.189.021l-4.684-3.758A.12.12,0,0,1,242.381,784.954Zm8.367,6.172a2.643,2.643,0,0,1-.4-1.464,2.943,2.943,0,0,1,.479-1.5l.51-.813a.12.12,0,0,1,.188-.042l.869.546a.117.117,0,0,1,.043.184l-.51.815a1.723,1.723,0,0,0-.258,1.379A2.156,2.156,0,0,0,254,791.686a1.7,1.7,0,0,0,1.141-.826l3.462-5.522a.121.121,0,0,1,.187-.043l.871.547a.12.12,0,0,1,.043.186l-3.464,5.523a2.9,2.9,0,0,1-1.151,1.083,2.681,2.681,0,0,1-1.5.27,4.011,4.011,0,0,1-2.836-1.777Zm7.3,4.415,4.177-8.194a.119.119,0,0,1,.181-.059l.917.467a.119.119,0,0,1,.058.182L259.2,796.13a.119.119,0,0,1-.182.061l-.917-.468A.118.118,0,0,1,258.048,795.542Zm16.744-3.024-.287.818a.12.12,0,0,1-.173.084l-2.451-.858a.048.048,0,0,0-.069.034l-2.687,7.685a.121.121,0,0,1-.173.083l-.97-.339a.12.12,0,0,1-.083-.173l2.686-7.685a.049.049,0,0,0-.033-.07l-2.336-.816a.12.12,0,0,1-.084-.172l.287-.817a.119.119,0,0,1,.172-.084l6.115,2.139A.121.121,0,0,1,274.792,792.518Zm4.762,10.613-.124-1.651a.053.053,0,0,0-.043-.051l-3.707-.843a.05.05,0,0,0-.061.028l-.826,1.435a.156.156,0,0,1-.183.068l-1.068-.243c-.1-.023-.121-.079-.071-.169l4.932-8.323a.16.16,0,0,1,.182-.07l1.32.3a.155.155,0,0,1,.133.141l.871,9.645v.054c-.013.063-.061.084-.139.067l-1.082-.247A.159.159,0,0,1,279.553,803.131Zm-3.357-3.5a.06.06,0,0,0,.042.031l3.033.69a.062.062,0,0,0,.05-.008.037.037,0,0,0,.017-.045l-.415-5.241a.041.041,0,0,0-.034-.034.044.044,0,0,0-.045.016l-2.643,4.545A.034.034,0,0,0,276.2,799.627Zm13.23,4.807-1.5-4.208a.05.05,0,0,0-.049-.044L285.939,800a.048.048,0,0,0-.059.049l-.38,3.97a.12.12,0,0,1-.15.122l-1.022-.1a.12.12,0,0,1-.121-.148l.877-9.154a.121.121,0,0,1,.148-.122l3.622.347a2.938,2.938,0,0,1,1.388.472,2.4,2.4,0,0,1,.859,1.035,2.871,2.871,0,0,1,.2,1.432,2.6,2.6,0,0,1-.643,1.549,2.422,2.422,0,0,1-1.453.75c-.037.016-.049.036-.033.066l1.564,4.225a.163.163,0,0,1,.007.07c0,.062-.043.091-.116.084l-1.064-.1A.151.151,0,0,1,289.426,804.434Zm-3.148-8.537-.289,3.017a.047.047,0,0,0,.047.058l2.25.216a1.558,1.558,0,0,0,1.184-.314,1.52,1.52,0,0,0,.54-1.084,1.49,1.49,0,0,0-1.424-1.726l-2.249-.216A.047.047,0,0,0,286.278,795.9Zm13.333-.814,1.028-.038a.119.119,0,0,1,.14.131l.335,9.191a.119.119,0,0,1-.13.139l-.985.036a.189.189,0,0,1-.166-.089L295.35,797.7c-.011-.026-.024-.037-.042-.032s-.027.02-.026.048l.263,6.853a.119.119,0,0,1-.13.139l-1.028.038a.12.12,0,0,1-.14-.131l-.333-9.19a.12.12,0,0,1,.129-.141l1-.037a.2.2,0,0,1,.166.09l4.468,6.753c.01.026.024.037.042.033s.026-.021.025-.048l-.264-6.852A.121.121,0,0,1,299.612,795.083Zm6.826,8.474a2.9,2.9,0,0,1-1.354-.928,3.384,3.384,0,0,1-.7-1.6l-.541-3.174a3.335,3.335,0,0,1,.129-1.737,2.915,2.915,0,0,1,.97-1.317,3.977,3.977,0,0,1,3.452-.588,2.91,2.91,0,0,1,1.352.921,3.341,3.341,0,0,1,.7,1.6l.541,3.174a3.36,3.36,0,0,1-.129,1.743,2.887,2.887,0,0,1-.967,1.325,3.981,3.981,0,0,1-3.453.59Zm2.97-1.81a2.028,2.028,0,0,0,.307-1.576l-.552-3.24a2.062,2.062,0,0,0-.817-1.4,2,2,0,0,0-1.562-.317,1.978,1.978,0,0,0-1.362.816,2.08,2.08,0,0,0-.3,1.593l.554,3.24a2.045,2.045,0,0,0,.806,1.386,1.988,1.988,0,0,0,1.555.31A2.01,2.01,0,0,0,309.408,801.747Zm7.5-.238-5.287-7.96-.024-.034c-.023-.068.009-.117.094-.144l1.042-.342a.14.14,0,0,1,.18.07l3.782,5.848a.042.042,0,0,0,.041.016c.013,0,.019-.016.022-.036l-.5-6.922a.139.139,0,0,1,.1-.164l1.016-.333a.139.139,0,0,1,.179.069l3.787,5.862c.014.014.025.02.035.017s.013-.014.016-.034l-.406-6.968a.14.14,0,0,1,.1-.163l.977-.32a.113.113,0,0,1,.162.1l.539,9.5a.139.139,0,0,1-.1.162l-.99.325a.14.14,0,0,1-.179-.07l-3.858-6.079c-.017-.022-.031-.033-.038-.03s-.012.019-.013.048l.542,7.166a.129.129,0,0,1-.1.162l-.939.307A.133.133,0,0,1,316.9,801.51Zm12.043-4.686a2.634,2.634,0,0,1-1.463-.3,2.388,2.388,0,0,1-.992-1.063l-.174-.351a.12.12,0,0,1,.06-.182l.884-.439a.118.118,0,0,1,.181.059l.146.292a1.365,1.365,0,0,0,1.038.75,2.68,2.68,0,0,0,1.665-.332,2.154,2.154,0,0,0,1.083-.98,1.27,1.27,0,0,0-.034-1.13,1.1,1.1,0,0,0-.538-.533,2.324,2.324,0,0,0-.881-.173,13.53,13.53,0,0,0-1.485.069,13.782,13.782,0,0,1-1.706.08,2.886,2.886,0,0,1-1.217-.306,2.085,2.085,0,0,1-.911-.975,2.212,2.212,0,0,1-.071-2.005,3.522,3.522,0,0,1,1.72-1.6,4.3,4.3,0,0,1,1.724-.482,2.71,2.71,0,0,1,1.47.324,2.451,2.451,0,0,1,1,1.076l.121.242a.119.119,0,0,1-.06.181l-.908.453a.121.121,0,0,1-.182-.061l-.092-.182a1.455,1.455,0,0,0-1.024-.8,2.345,2.345,0,0,0-1.593.274,2.145,2.145,0,0,0-1.009.889,1.168,1.168,0,0,0,.032,1.094,1.138,1.138,0,0,0,.532.551,2.026,2.026,0,0,0,.839.148c.336,0,.835-.036,1.5-.1a14.926,14.926,0,0,1,1.7-.07,2.986,2.986,0,0,1,1.258.307,2.1,2.1,0,0,1,.927.981,2.291,2.291,0,0,1,.062,2.078,3.745,3.745,0,0,1-1.838,1.694A4.587,4.587,0,0,1,328.947,796.824Zm7.583-3.953-5.094-7.657a.118.118,0,0,1,.038-.186l.855-.57a.12.12,0,0,1,.188.038l2.389,3.593a.032.032,0,0,0,.041.013.035.035,0,0,0,.022-.041l.793-5.79a.182.182,0,0,1,.09-.159l.98-.65a.116.116,0,0,1,.118-.022c.032.017.044.054.041.109l-.575,4.948a.118.118,0,0,0,.046.068l5.785,2.469a.2.2,0,0,1,.066.054c.032.044.016.088-.044.127l-.979.651a.2.2,0,0,1-.181.022l-4.882-2.063a.045.045,0,0,0-.048,0,.052.052,0,0,0-.027.034l-.242,1.689a.2.2,0,0,0,.016.071l1.685,2.533a.12.12,0,0,1-.037.188l-.857.569A.118.118,0,0,1,336.53,792.871Zm8-5.664-5.785-7.15a.119.119,0,0,1,.019-.19l.8-.647a.12.12,0,0,1,.189.02l5.785,7.15a.118.118,0,0,1-.019.19l-.8.647A.12.12,0,0,1,344.531,787.207Zm2.514-13.349L343.6,777.2a.048.048,0,0,0,0,.076l2.027,2.085a.047.047,0,0,0,.076,0l2.367-2.3a.12.12,0,0,1,.192,0l.593.61a.12.12,0,0,1,0,.192l-2.365,2.3a.048.048,0,0,0,0,.077l2.074,2.133a.047.047,0,0,0,.075,0l3.443-3.347a.119.119,0,0,1,.191,0l.594.61a.12.12,0,0,1,0,.191l-4.315,4.2a.121.121,0,0,1-.192,0l-6.41-6.595a.119.119,0,0,1,0-.192l4.315-4.195a.119.119,0,0,1,.191,0l.594.61A.121.121,0,0,1,347.045,773.858Zm8.511,2.54a2.652,2.652,0,0,1-1.5.223,2.942,2.942,0,0,1-1.436-.654l-.747-.6a.118.118,0,0,1-.021-.188l.645-.8a.121.121,0,0,1,.191-.021l.747.6a1.723,1.723,0,0,0,1.339.418,1.9,1.9,0,0,0,1.251-.762,1.921,1.921,0,0,0,.472-1.374,1.708,1.708,0,0,0-.685-1.231l-5.074-4.092a.12.12,0,0,1-.02-.19l.646-.8a.118.118,0,0,1,.189-.02L356.627,771a2.888,2.888,0,0,1,.939,1.27,2.692,2.692,0,0,1,.091,1.525,4.025,4.025,0,0,1-2.1,2.6Z" transform="translate(169.952 879.173) rotate(-163)"/></svg>