<svg xmlns="http://www.w3.org/2000/svg" width="164.96" height="90.668" viewBox="0 0 164.96 90.668"><defs><style>.a{fill:#d9000d;}.b{fill:#fff;}</style></defs><g transform="translate(-207.164 -187.402)"><rect class="a" width="164.96" height="90.668" transform="translate(207.164 187.402)"/><path class="b" d="M254.949,339.178l-2.242-6.076a22.315,22.315,0,0,1-.959-3.255h-.054c.127,1.175.253,3.31.253,5.533v3.8h-2.3V326.971h3.436L255,332.125a20.97,20.97,0,0,1,.976,3.237h.055c-.127-1.175-.254-3.309-.254-5.515v-2.876h2.3v12.207Z" transform="translate(-22.562 -74.115)"/><path class="b" d="M283.967,339.178V326.971h2.586v12.207Z" transform="translate(-40.785 -74.115)"/><path class="b" d="M305.829,339.178V326.971h5.534v2.243h-2.947v2.694h2.748v2.153h-2.748v2.857h2.966v2.26Z" transform="translate(-52.394 -74.115)"/><path class="b" d="M336.184,339.169c-1.067,0-2.08-.054-3.056-.109V326.908c.76-.036,2.079-.09,3.237-.09,3.2,0,4.991,1.284,4.991,5.985C341.356,337.451,339.33,339.169,336.184,339.169Zm.271-10.145a4.3,4.3,0,0,0-.741.054v7.758a4.1,4.1,0,0,0,.741.055c1.321,0,2.133-.977,2.133-3.943C338.589,330.037,337.957,329.024,336.455,329.024Z" transform="translate(-66.891 -74.034)"/><path class="b" d="M364.554,339.178V337.1l3.2-7.812c-.47.036-1.085.073-1.663.073h-1.446v-2.388h6.185v2.043l-3.219,7.812c.416-.036,1.085-.09,1.826-.09H370.9v2.441Z" transform="translate(-83.579 -74.115)"/><path class="b" d="M393.549,339.178V326.971h2.585v12.207Z" transform="translate(-98.976 -74.115)"/><path class="b" d="M415.411,339.178V326.971h5.534v2.243H418v2.694h2.748v2.153H418v2.857h2.966v2.26Z" transform="translate(-110.585 -74.115)"/><path class="b" d="M442.672,339.178V326.971h2.585v9.874h2.695v2.333Z" transform="translate(-125.062 -74.115)"/><path class="b" d="M473.957,339.178l-2.242-6.076a22.264,22.264,0,0,1-.959-3.255H470.7c.126,1.175.253,3.31.253,5.533v3.8h-2.3V326.971h3.436l1.917,5.154a20.971,20.971,0,0,1,.976,3.237h.054c-.126-1.175-.253-3.309-.253-5.515v-2.876h2.3v12.207Z" transform="translate(-138.862 -74.115)"/><path class="b" d="M506.321,335.073v4.1h-2.568v-4.087l-3.092-8.12h2.821l1.067,3.346c.181.579.4,1.411.542,2.061h.019c.144-.669.343-1.411.488-1.88l1.085-3.527h2.677Z" transform="translate(-155.856 -74.115)"/><g transform="translate(224.531 198.705)"><g transform="translate(0 9.731)"><path class="b" d="M263.232,270.91c-12.916,0-19.035-7.058-19.035-17.618,0-12.688,7.77-20.563,21.441-20.563a39.246,39.246,0,0,1,10.837,1.522l-1.978,9.3a25.417,25.417,0,0,0-9.237-1.64c-7.008,0-10.015,4.224-10.015,10.181,0,5.741,2.734,9.52,9.02,9.52a7.472,7.472,0,0,0,2.078-.277V250.124h10.187v18.213a33.549,33.549,0,0,1-13.3,2.573" transform="translate(-244.197 -232.506)"/><path class="b" d="M414.743,270.6a37.258,37.258,0,0,1-9.137-.933l.872-9.681a21.475,21.475,0,0,0,8.487,1.745c1.961,0,3.557-.873,3.557-2.623,0-5.363-13.794-2.179-13.794-14.829,0-7.319,5.635-12.026,15.373-12.026a33.434,33.434,0,0,1,6.78.706l-.873,8.809a18.288,18.288,0,0,0-6.3-1.1c-2.84,0-4.041,1.044-4.041,2.462,0,4.651,14.222,2.907,14.222,14.672,0,7.264-6.291,12.8-15.15,12.8" transform="translate(-329.444 -232.254)"/><path class="b" d="M481.015,270.774c-14.494,0-17.507-10.154-17.507-17.695,0-12.481,6.959-20.523,19.041-20.523a25.022,25.022,0,0,1,7.114,1l-1.262,9.427a15.718,15.718,0,0,0-5.852-1.059c-4.813,0-7.82,3.381-7.82,9.439,0,6.48,2.462,9.974,8.2,9.974a13.617,13.617,0,0,0,5.474-1.156l1.361,9.2a26.406,26.406,0,0,1-8.748,1.4" transform="translate(-360.658 -232.415)"/><path class="b" d="M319.035,251.741a19.1,19.1,0,1,1,19.1,19.085,19.093,19.093,0,0,1-19.1-19.085m3.329,4.679a6.508,6.508,0,0,1,2.368-2.322c1.228-.567,2.556-.189,3.734,1.611.184.322.945,0,.756-.467a14.362,14.362,0,0,1-1.323-5.963,4,4,0,0,1,2.657-3.93c1.878-.656,3.445.094,4.857,1.278,1.378,1.234,2.5,3.023,3.741,4.208a13.469,13.469,0,0,0,4.779,2.556.794.794,0,0,0,.751-.295,9.427,9.427,0,0,0,.055-7.28,8.086,8.086,0,0,0-4.829-4.429,11.842,11.842,0,0,0-9.609.75,13.572,13.572,0,0,0-4.447,3.779,22.1,22.1,0,0,0-2.4,4.346,30.487,30.487,0,0,0-1.751,5.59c-.094.667.473.8.661.567m18.013-7.808a1.57,1.57,0,1,1,1.573,1.573,1.564,1.564,0,0,1-1.573-1.573m13.922-1.779a6.251,6.251,0,0,1-2.379,2.318c-1.223.572-2.546.2-3.729-1.595-.184-.333-.945,0-.756.461a14.521,14.521,0,0,1,1.329,5.959,4.03,4.03,0,0,1-2.645,3.935c-1.889.667-3.446-.1-4.88-1.278-1.367-1.223-2.5-3.035-3.729-4.213a13.389,13.389,0,0,0-4.774-2.545.845.845,0,0,0-.767.278,9.409,9.409,0,0,0-.044,7.28,8.054,8.054,0,0,0,4.823,4.446,11.852,11.852,0,0,0,9.6-.745,13.437,13.437,0,0,0,4.446-3.8,21.826,21.826,0,0,0,2.412-4.352,29.808,29.808,0,0,0,1.751-5.58c.089-.656-.484-.795-.662-.573m-18.017,7.809a1.573,1.573,0,0,1-3.145,0,1.573,1.573,0,0,1,3.145,0" transform="translate(-283.938 -232.455)"/></g><path class="b" d="M426.875,211.5l-6.119,6.959h10.965l10.267-6.959Z" transform="translate(-337.955 -211.504)"/><path class="b" d="M493.729,211.5l-6.12,6.959h10.966l10.268-6.959Z" transform="translate(-373.456 -211.504)"/></g></g></svg>