<svg xmlns="http://www.w3.org/2000/svg" width="235" height="47.128" viewBox="0 0 235 47.128"><defs><style>.a,.b{fill:#292929;}.b{fill-rule:evenodd;}</style></defs><g transform="translate(-241.218 -777.125)"><path class="a" d="M299.8,789.855l-3.373-5.51a.661.661,0,0,0-1.126,0l-1.758,2.859-4.775-9.712a.646.646,0,0,0-.591-.367.659.659,0,0,0-.593.365l-5.569,11.238-.919-1.759a.66.66,0,0,0-1.174,0l-1.259,2.477-.08-.135a.661.661,0,0,0-1.106-.04l-.869,1.229a.65.65,0,0,0-.117.375v.514a.66.66,0,0,0,1.2.379l.26-.367.215.36a.657.657,0,0,0,.571.32h.02a.658.658,0,0,0,.565-.362l1.2-2.367.931,1.782a.657.657,0,0,0,.588.354.649.649,0,0,0,.588-.366l5.544-11.184,4.684,9.528a.661.661,0,0,0,1.155.056l1.852-3.009,2.809,4.587a.659.659,0,0,0,1.224-.34V790.2A.65.65,0,0,0,299.8,789.855Z" transform="translate(-29.609)"/><g transform="translate(241.218 794.119)"><path class="b" d="M307.877,908.529a7.5,7.5,0,0,0,.8.041h.8a3.18,3.18,0,0,0,1.876-.546,2.641,2.641,0,0,0,.778-2.272V883.271h4.625v22.139a10.384,10.384,0,0,1-.546,3.665,5.632,5.632,0,0,1-1.47,2.253,5.334,5.334,0,0,1-2.126,1.156,9.289,9.289,0,0,1-2.5.337h-1.138a7.315,7.315,0,0,1-1.093-.087Zm-11.45-5.14,0,0h4.466l-2.231-14.9Zm10.566,9.346,0,0h-4.671l-.8-5.34H295.84l-.8,5.34h-4.247l4.712-29.464h6.779ZM278.167,891.4m0,0v21.338H274V883.271h5.8l4.758,17.637V883.271h4.12v29.464H283.93ZM261.714,902.97m0,0-5.855-19.7H260.7l3.533,13.43,3.537-13.43h4.416l-5.85,19.7v9.765h-4.625Zm-20.373-12.629,0,0a7.979,7.979,0,0,1,1.707-5.49,7.791,7.791,0,0,1,10.225,0,8,8,0,0,1,1.7,5.49v.933H250.6V890.05a3.289,3.289,0,0,0-.61-2.254,2.558,2.558,0,0,0-3.41,0,3.289,3.289,0,0,0-.61,2.254,5.19,5.19,0,0,0,.674,2.672,10.95,10.95,0,0,0,1.684,2.19q1,1.031,2.167,2.062a21.13,21.13,0,0,1,2.167,2.249,11.6,11.6,0,0,1,1.68,2.777,9.164,9.164,0,0,1,.674,3.669,7.893,7.893,0,0,1-1.744,5.49,7.907,7.907,0,0,1-10.312,0,7.871,7.871,0,0,1-1.744-5.49v-1.816h4.375v2.108a3.057,3.057,0,0,0,.651,2.231,2.724,2.724,0,0,0,3.492,0,3.037,3.037,0,0,0,.651-2.231,5.251,5.251,0,0,0-.669-2.677,11.222,11.222,0,0,0-1.684-2.185q-1.011-1.031-2.167-2.062a20.342,20.342,0,0,1-2.167-2.254,11.448,11.448,0,0,1-1.684-2.777A9.222,9.222,0,0,1,241.341,890.341Z" transform="translate(-241.218 -882.939)"/><path class="a" d="M754.726,894.468l-2.717-9.84-.014-.043q0-.115.145-.115h1.171a.148.148,0,0,1,.159.13l1.893,7.2c.01.019.022.029.036.029s.026-.009.036-.029l1.792-7.2a.148.148,0,0,1,.159-.13h1.141a.149.149,0,0,1,.159.13l1.893,7.211c.009.019.019.029.029.029s.019-.01.029-.029l1.907-7.211a.148.148,0,0,1,.159-.13h1.1a.122.122,0,0,1,.13.159l-2.615,9.826a.149.149,0,0,1-.159.13h-1.113a.149.149,0,0,1-.159-.13L757.992,887c-.01-.029-.019-.043-.029-.043s-.02.014-.029.043l-1.835,7.456a.138.138,0,0,1-.159.13h-1.055A.145.145,0,0,1,754.726,894.468Z" transform="translate(-669.962 -884.223)"/><path class="a" d="M829.928,911.74v-.853a.128.128,0,0,1,.144-.145h.029a2.76,2.76,0,0,0,.91-.144,1.125,1.125,0,0,0,.549-.484,4.491,4.491,0,0,0,.419-1.062c.009-.01.009-.039,0-.087l-2.413-7.153-.014-.058q0-.1.13-.1h1.171a.169.169,0,0,1,.173.115l1.633,5.448a.046.046,0,0,0,.043.029.047.047,0,0,0,.044-.029l1.618-5.448a.168.168,0,0,1,.173-.115h1.141q.159,0,.116.159l-2.63,7.7A6.186,6.186,0,0,1,832.5,911a1.812,1.812,0,0,1-.867.686,4.415,4.415,0,0,1-1.5.2h-.1C829.961,911.884,829.928,911.836,829.928,911.74Z" transform="translate(-735.063 -898.648)"/><path class="a" d="M878.371,884.469h1.1a.128.128,0,0,1,.144.145v9.826a.128.128,0,0,1-.144.145h-1.1a.128.128,0,0,1-.145-.145v-.477a.049.049,0,0,0-.021-.043c-.015-.01-.032,0-.051.014a2.269,2.269,0,0,1-.751.564,2.2,2.2,0,0,1-.939.2,2.8,2.8,0,0,1-1.727-.513,2.919,2.919,0,0,1-1-1.452,5.5,5.5,0,0,1-.275-1.85,5.865,5.865,0,0,1,.231-1.748,2.945,2.945,0,0,1,1-1.489,2.829,2.829,0,0,1,1.777-.535,2.277,2.277,0,0,1,.932.2,2.171,2.171,0,0,1,.759.556c.019.019.036.024.051.014a.048.048,0,0,0,.021-.043v-3.222A.128.128,0,0,1,878.371,884.469Zm-.173,6.43a3.812,3.812,0,0,0-.361-1.85,1.336,1.336,0,0,0-1.228-.737,1.4,1.4,0,0,0-1.286.693,3.5,3.5,0,0,0-.463,1.907,3.817,3.817,0,0,0,.361,1.792,1.435,1.435,0,0,0,1.373.795,1.379,1.379,0,0,0,1.272-.78A3.9,3.9,0,0,0,878.2,890.9Z" transform="translate(-771.917 -884.223)"/><path class="a" d="M920.873,908.864v-1.011a.27.27,0,0,1,.058-.173L924.76,903c.019-.019.024-.036.014-.05a.049.049,0,0,0-.043-.022H921.09a.128.128,0,0,1-.145-.145V901.8a.128.128,0,0,1,.145-.144h5.216a.128.128,0,0,1,.145.144v1.026a.269.269,0,0,1-.058.173l-3.887,4.682c-.019.019-.024.036-.014.051a.048.048,0,0,0,.043.022h3.786a.128.128,0,0,1,.145.145v.968a.128.128,0,0,1-.145.145h-5.3A.128.128,0,0,1,920.873,908.864Z" transform="translate(-811.717 -898.648)"/><path class="a" d="M964.768,884.529a.979.979,0,1,1,.665.26A.9.9,0,0,1,964.768,884.529Zm-.058,8.612v-7.052a.128.128,0,0,1,.145-.144h1.1a.128.128,0,0,1,.145.144v7.052a.128.128,0,0,1-.145.145h-1.1A.128.128,0,0,1,964.71,893.141Z" transform="translate(-848.344 -882.939)"/><path class="a" d="M989.8,901.244a2.36,2.36,0,0,1,1.011.867,2.306,2.306,0,0,1,.354,1.264v4.884a.128.128,0,0,1-.145.145h-1.1a.128.128,0,0,1-.144-.145v-.52c0-.048-.024-.058-.072-.029a2.512,2.512,0,0,1-.918.6,3.325,3.325,0,0,1-1.207.209,2.807,2.807,0,0,1-1.77-.542,1.943,1.943,0,0,1-.7-1.64,2.16,2.16,0,0,1,.788-1.77,3.393,3.393,0,0,1,2.2-.643h1.618a.051.051,0,0,0,.058-.058v-.39a1.309,1.309,0,0,0-.369-.99,1.564,1.564,0,0,0-1.12-.354,1.847,1.847,0,0,0-.99.238.982.982,0,0,0-.47.643.153.153,0,0,1-.173.13l-1.171-.159c-.1-.019-.14-.058-.13-.115a1.968,1.968,0,0,1,.91-1.395,3.46,3.46,0,0,1,1.994-.542A3.567,3.567,0,0,1,989.8,901.244Zm-.585,5.7a1.219,1.219,0,0,0,.564-1.026v-.852a.051.051,0,0,0-.058-.058h-1.358a2.442,2.442,0,0,0-1.358.332,1.048,1.048,0,0,0-.506.925.931.931,0,0,0,.383.809,1.685,1.685,0,0,0,1,.274A2.219,2.219,0,0,0,989.215,906.944Z" transform="translate(-865.638 -898.043)"/><path class="a" d="M1035.032,888.674a.142.142,0,0,1-.072.13l-1.662.954a.067.067,0,0,0-.043.072v4.609a.128.128,0,0,1-.145.145h-1.1a.128.128,0,0,1-.145-.145v-3.771a.047.047,0,0,0-.072-.044l-.953.549a.16.16,0,0,1-.072.015.141.141,0,0,1-.13-.072l-.347-.65a.158.158,0,0,1-.014-.072.142.142,0,0,1,.072-.13l1.474-.852a.085.085,0,0,0,.043-.072v-4.725a.128.128,0,0,1,.145-.145h1.1a.128.128,0,0,1,.145.145v3.872a.049.049,0,0,0,.022.044.047.047,0,0,0,.05,0l1.113-.65a.162.162,0,0,1,.072-.014.142.142,0,0,1,.13.072l.376.665A.161.161,0,0,1,1035.032,888.674Z" transform="translate(-903.551 -884.223)"/><path class="a" d="M1087.32,894.439v-9.826a.128.128,0,0,1,.145-.145h3.5a3.5,3.5,0,0,1,2.4.787,2.66,2.66,0,0,1,.9,2.1v4.335a2.66,2.66,0,0,1-.9,2.1,3.5,3.5,0,0,1-2.4.788h-3.5A.128.128,0,0,1,1087.32,894.439Zm1.445-1.055h2.254a1.778,1.778,0,0,0,1.337-.513,1.944,1.944,0,0,0,.513-1.38v-3.93a1.9,1.9,0,0,0-.5-1.38,1.8,1.8,0,0,0-1.351-.513h-2.254a.051.051,0,0,0-.058.058v7.6A.051.051,0,0,0,1088.765,893.385Z" transform="translate(-951.432 -884.223)"/><path class="a" d="M1144.848,901.654h1.084a.128.128,0,0,1,.145.144v7.066a.128.128,0,0,1-.145.145h-1.084a.128.128,0,0,1-.144-.145v-.535a.033.033,0,0,0-.022-.036c-.014,0-.031,0-.05.022a2.052,2.052,0,0,1-1.777.795,3.107,3.107,0,0,1-1.308-.274,2.2,2.2,0,0,1-1.322-2.11V901.8a.128.128,0,0,1,.145-.144h1.084a.128.128,0,0,1,.144.144v4.494a1.686,1.686,0,0,0,.4,1.185,1.443,1.443,0,0,0,1.12.434,1.548,1.548,0,0,0,1.156-.441,1.607,1.607,0,0,0,.433-1.178V901.8A.128.128,0,0,1,1144.848,901.654Z" transform="translate(-995.839 -898.648)"/><path class="a" d="M1188.659,908.457a2.382,2.382,0,0,1-1.019-.715,1.578,1.578,0,0,1-.361-1v-.159a.128.128,0,0,1,.144-.144h1.041a.128.128,0,0,1,.144.144v.073a.86.86,0,0,0,.441.708,1.931,1.931,0,0,0,1.12.3,1.808,1.808,0,0,0,1.055-.282.844.844,0,0,0,.4-.715.677.677,0,0,0-.376-.628,5.926,5.926,0,0,0-1.214-.441,11.276,11.276,0,0,1-1.38-.47,2.558,2.558,0,0,1-.939-.679,1.666,1.666,0,0,1-.383-1.134,1.827,1.827,0,0,1,.759-1.539,3.272,3.272,0,0,1,2.016-.571,3.835,3.835,0,0,1,1.481.267,2.257,2.257,0,0,1,.99.744,1.774,1.774,0,0,1,.347,1.069v.043a.128.128,0,0,1-.145.145h-1.011a.128.128,0,0,1-.144-.145v-.043a.829.829,0,0,0-.412-.7,2.331,2.331,0,0,0-2.153-.036.75.75,0,0,0-.4.665.691.691,0,0,0,.383.636,6.14,6.14,0,0,0,1.236.462,13.365,13.365,0,0,1,1.394.455,2.487,2.487,0,0,1,.947.665,1.67,1.67,0,0,1,.39,1.149,1.848,1.848,0,0,1-.773,1.561,3.357,3.357,0,0,1-2.059.578A4.125,4.125,0,0,1,1188.659,908.457Z" transform="translate(-1035.337 -898.27)"/><path class="a" d="M1229.476,908.864v-1.011a.269.269,0,0,1,.058-.173l3.829-4.682q.029-.029.014-.05a.048.048,0,0,0-.043-.022h-3.641a.128.128,0,0,1-.144-.145V901.8a.128.128,0,0,1,.144-.144h5.216a.128.128,0,0,1,.145.144v1.026A.269.269,0,0,1,1235,903l-3.887,4.682q-.029.029-.014.051a.048.048,0,0,0,.043.022h3.786a.128.128,0,0,1,.145.145v.968a.128.128,0,0,1-.145.145h-5.3A.128.128,0,0,1,1229.476,908.864Z" transform="translate(-1070.757 -898.648)"/><path class="a" d="M1280.347,904.748a5.878,5.878,0,0,1-.231,1.749,2.905,2.905,0,0,1-1,1.5,2.853,2.853,0,0,1-1.777.527,2.275,2.275,0,0,1-.932-.195,2.165,2.165,0,0,1-.759-.556c-.019-.019-.036-.024-.051-.014a.049.049,0,0,0-.021.043v3.222a.128.128,0,0,1-.145.145h-1.1a.128.128,0,0,1-.145-.145v-9.826a.128.128,0,0,1,.145-.144h1.1a.128.128,0,0,1,.145.144v.477a.049.049,0,0,0,.021.044c.014.01.031.005.051-.014a2.274,2.274,0,0,1,.751-.564,2.195,2.195,0,0,1,.939-.2,2.807,2.807,0,0,1,1.727.513,2.923,2.923,0,0,1,1,1.452A5.585,5.585,0,0,1,1280.347,904.748Zm-1.4-.029a3.821,3.821,0,0,0-.361-1.792,1.436,1.436,0,0,0-1.373-.795,1.379,1.379,0,0,0-1.272.78,3.816,3.816,0,0,0-.347,1.821,3.682,3.682,0,0,0,.376,1.849,1.336,1.336,0,0,0,1.228.737,1.4,1.4,0,0,0,1.286-.694A3.407,3.407,0,0,0,1278.945,904.719Z" transform="translate(-1108.291 -898.043)"/><path class="a" d="M1325.665,901.244a2.361,2.361,0,0,1,1.011.867,2.307,2.307,0,0,1,.354,1.264v4.884a.128.128,0,0,1-.144.145h-1.1a.128.128,0,0,1-.144-.145v-.52c0-.048-.024-.058-.072-.029a2.511,2.511,0,0,1-.917.6,3.326,3.326,0,0,1-1.207.209,2.807,2.807,0,0,1-1.77-.542,1.943,1.943,0,0,1-.7-1.64,2.16,2.16,0,0,1,.788-1.77,3.393,3.393,0,0,1,2.2-.643h1.618a.051.051,0,0,0,.058-.058v-.39a1.309,1.309,0,0,0-.368-.99,1.564,1.564,0,0,0-1.12-.354,1.848,1.848,0,0,0-.99.238.982.982,0,0,0-.469.643.153.153,0,0,1-.173.13l-1.171-.159c-.1-.019-.14-.058-.13-.115a1.967,1.967,0,0,1,.91-1.395,3.46,3.46,0,0,1,1.994-.542A3.568,3.568,0,0,1,1325.665,901.244Zm-.585,5.7a1.219,1.219,0,0,0,.563-1.026v-.852a.051.051,0,0,0-.058-.058h-1.358a2.442,2.442,0,0,0-1.358.332,1.048,1.048,0,0,0-.506.925.931.931,0,0,0,.383.809,1.685,1.685,0,0,0,1,.274A2.219,2.219,0,0,0,1325.08,906.944Z" transform="translate(-1147.562 -898.043)"/><path class="a" d="M1369.772,908.457a2.381,2.381,0,0,1-1.019-.715,1.577,1.577,0,0,1-.361-1v-.159a.128.128,0,0,1,.144-.144h1.04a.128.128,0,0,1,.145.144v.073a.86.86,0,0,0,.441.708,1.931,1.931,0,0,0,1.12.3,1.809,1.809,0,0,0,1.055-.282.843.843,0,0,0,.4-.715.677.677,0,0,0-.376-.628,5.931,5.931,0,0,0-1.214-.441,11.276,11.276,0,0,1-1.38-.47,2.555,2.555,0,0,1-.939-.679,1.666,1.666,0,0,1-.383-1.134,1.827,1.827,0,0,1,.759-1.539,3.273,3.273,0,0,1,2.016-.571,3.836,3.836,0,0,1,1.481.267,2.259,2.259,0,0,1,.99.744,1.774,1.774,0,0,1,.347,1.069v.043a.128.128,0,0,1-.144.145h-1.012a.128.128,0,0,1-.144-.145v-.043a.829.829,0,0,0-.412-.7,2.331,2.331,0,0,0-2.153-.036.75.75,0,0,0-.4.665.691.691,0,0,0,.383.636,6.14,6.14,0,0,0,1.236.462,13.378,13.378,0,0,1,1.394.455,2.487,2.487,0,0,1,.946.665,1.669,1.669,0,0,1,.39,1.149,1.848,1.848,0,0,1-.773,1.561,3.357,3.357,0,0,1-2.059.578A4.123,4.123,0,0,1,1369.772,908.457Z" transform="translate(-1187.362 -898.27)"/><path class="a" d="M1414.71,892.825h-1.561a.051.051,0,0,0-.058.058v3.829a.977.977,0,0,0,1.127,1.142h.419a.128.128,0,0,1,.145.144v.9a.128.128,0,0,1-.145.145q-.463.029-.665.029a2.845,2.845,0,0,1-1.655-.4,1.69,1.69,0,0,1-.556-1.467v-4.321a.051.051,0,0,0-.058-.058h-.881a.128.128,0,0,1-.145-.144v-.853a.128.128,0,0,1,.145-.144h.881a.051.051,0,0,0,.058-.058v-1.705a.128.128,0,0,1,.145-.145h1.04a.128.128,0,0,1,.145.145v1.705a.051.051,0,0,0,.058.058h1.561a.128.128,0,0,1,.145.144v.853A.128.128,0,0,1,1414.71,892.825Z" transform="translate(-1222.858 -888.678)"/><path class="a" d="M1451.157,905.138a.128.128,0,0,1-.145.144H1446.4a.051.051,0,0,0-.058.058,2.506,2.506,0,0,0,.087.751,1.544,1.544,0,0,0,.643.9,2.145,2.145,0,0,0,1.221.325,1.856,1.856,0,0,0,1.647-.882c.048-.1.111-.11.188-.043l.824.549a.137.137,0,0,1,.043.188,2.8,2.8,0,0,1-1.149,1.026,3.685,3.685,0,0,1-1.683.376,3.231,3.231,0,0,1-1.777-.462,2.816,2.816,0,0,1-1.084-1.315,5.483,5.483,0,0,1-.347-2.066,6.12,6.12,0,0,1,.159-1.6,2.762,2.762,0,0,1,1.04-1.575,3.092,3.092,0,0,1,1.893-.578,2.949,2.949,0,0,1,2.182.73,3.514,3.514,0,0,1,.882,2.146A11.576,11.576,0,0,1,1451.157,905.138Zm-4.133-2.695a1.532,1.532,0,0,0-.549.831,3.371,3.371,0,0,0-.13.809.051.051,0,0,0,.058.058h3.309a.051.051,0,0,0,.058-.058,4.273,4.273,0,0,0-.087-.708,1.739,1.739,0,0,0-2.659-.932Z" transform="translate(-1251.631 -898.043)"/><path class="a" d="M1498.5,901.391a.134.134,0,0,1,.072.173l-.231,1.084c-.01.087-.068.115-.174.087a1.515,1.515,0,0,0-.578-.1l-.2.014a1.621,1.621,0,0,0-1.12.47,1.553,1.553,0,0,0-.441,1.149v4.219a.128.128,0,0,1-.145.145h-1.1a.128.128,0,0,1-.145-.145V901.42a.128.128,0,0,1,.145-.144h1.1a.128.128,0,0,1,.145.144v.766c0,.029.007.046.021.05s.026,0,.036-.022a2.014,2.014,0,0,1,1.777-1.011A1.85,1.85,0,0,1,1498.5,901.391Z" transform="translate(-1293.168 -898.27)"/><path class="a" d="M1526.773,908.457a2.381,2.381,0,0,1-1.019-.715,1.577,1.577,0,0,1-.361-1v-.159a.128.128,0,0,1,.144-.144h1.041a.128.128,0,0,1,.144.144v.073a.86.86,0,0,0,.441.708,1.931,1.931,0,0,0,1.12.3,1.807,1.807,0,0,0,1.055-.282.843.843,0,0,0,.4-.715.677.677,0,0,0-.376-.628,5.927,5.927,0,0,0-1.214-.441,11.276,11.276,0,0,1-1.38-.47,2.558,2.558,0,0,1-.939-.679,1.667,1.667,0,0,1-.383-1.134,1.827,1.827,0,0,1,.759-1.539,3.273,3.273,0,0,1,2.016-.571,3.835,3.835,0,0,1,1.481.267,2.258,2.258,0,0,1,.99.744,1.774,1.774,0,0,1,.347,1.069v.043a.128.128,0,0,1-.144.145h-1.012a.128.128,0,0,1-.145-.145v-.043a.829.829,0,0,0-.412-.7,2.331,2.331,0,0,0-2.153-.036.75.75,0,0,0-.4.665.691.691,0,0,0,.383.636,6.138,6.138,0,0,0,1.235.462,13.368,13.368,0,0,1,1.394.455,2.486,2.486,0,0,1,.947.665,1.669,1.669,0,0,1,.39,1.149,1.848,1.848,0,0,1-.773,1.561,3.357,3.357,0,0,1-2.059.578A4.123,4.123,0,0,1,1526.773,908.457Z" transform="translate(-1319.148 -898.27)"/><path class="a" d="M1571.712,892.825h-1.561a.051.051,0,0,0-.058.058v3.829a.977.977,0,0,0,1.127,1.142h.419a.128.128,0,0,1,.145.144v.9a.128.128,0,0,1-.145.145q-.463.029-.665.029a2.844,2.844,0,0,1-1.655-.4,1.689,1.689,0,0,1-.556-1.467v-4.321a.051.051,0,0,0-.058-.058h-.881a.128.128,0,0,1-.145-.144v-.853a.128.128,0,0,1,.145-.144h.881a.051.051,0,0,0,.058-.058v-1.705a.128.128,0,0,1,.145-.145h1.04a.128.128,0,0,1,.145.145v1.705a.051.051,0,0,0,.058.058h1.561a.128.128,0,0,1,.144.144v.853A.128.128,0,0,1,1571.712,892.825Z" transform="translate(-1354.644 -888.678)"/><path class="a" d="M1602.523,908.893l-2.081-7.081-.015-.043q0-.115.145-.115h1.127a.149.149,0,0,1,.159.13l1.373,5.245c.01.019.022.029.036.029s.026-.009.036-.029l1.4-5.245a.148.148,0,0,1,.159-.13h1a.149.149,0,0,1,.159.13l1.431,5.231c.01.019.022.029.036.029s.026-.009.036-.029l1.431-5.231a.148.148,0,0,1,.159-.13l1.113.014a.122.122,0,0,1,.13.159l-2.1,7.066a.159.159,0,0,1-.159.116h-1.127a.159.159,0,0,1-.159-.116l-1.416-4.884c-.01-.019-.022-.029-.036-.029s-.027.01-.036.029l-1.344,4.87a.149.149,0,0,1-.159.13h-1.142A.159.159,0,0,1,1602.523,908.893Z" transform="translate(-1382.132 -898.648)"/><path class="a" d="M1671.427,901.244a2.362,2.362,0,0,1,1.012.867,2.306,2.306,0,0,1,.354,1.264v4.884a.128.128,0,0,1-.144.145h-1.1a.128.128,0,0,1-.145-.145v-.52c0-.048-.024-.058-.072-.029a2.511,2.511,0,0,1-.918.6,3.324,3.324,0,0,1-1.207.209,2.807,2.807,0,0,1-1.77-.542,1.942,1.942,0,0,1-.7-1.64,2.16,2.16,0,0,1,.788-1.77,3.393,3.393,0,0,1,2.2-.643h1.618a.051.051,0,0,0,.058-.058v-.39a1.309,1.309,0,0,0-.368-.99,1.564,1.564,0,0,0-1.12-.354,1.848,1.848,0,0,0-.99.238.983.983,0,0,0-.47.643.153.153,0,0,1-.173.13l-1.17-.159c-.1-.019-.14-.058-.13-.115a1.967,1.967,0,0,1,.91-1.395,3.461,3.461,0,0,1,1.994-.542A3.568,3.568,0,0,1,1671.427,901.244Zm-.585,5.7a1.218,1.218,0,0,0,.563-1.026v-.852a.051.051,0,0,0-.058-.058h-1.358a2.443,2.443,0,0,0-1.359.332,1.048,1.048,0,0,0-.506.925.931.931,0,0,0,.383.809,1.684,1.684,0,0,0,1,.274A2.218,2.218,0,0,0,1670.842,906.944Z" transform="translate(-1437.793 -898.043)"/><rect class="a" width="152.967" height="0.688" transform="translate(82.033 29.446)"/><path class="a" d="M757.343,986.461h.874a.1.1,0,0,1,.115.115V994.4a.1.1,0,0,1-.115.115h-.874a.1.1,0,0,1-.115-.115v-5.889a.046.046,0,0,0-.023-.046c-.015-.008-.027,0-.035.023l-1.645,2.507a.155.155,0,0,1-.138.069h-.437a.174.174,0,0,1-.138-.069l-1.656-2.484c-.008-.023-.019-.031-.035-.023a.046.046,0,0,0-.023.046V994.4a.1.1,0,0,1-.115.115h-.874a.1.1,0,0,1-.115-.115v-7.821a.1.1,0,0,1,.115-.115h.874a.155.155,0,0,1,.138.069l2.013,3.013a.047.047,0,0,0,.034.011.047.047,0,0,0,.035-.011l2-3.013A.174.174,0,0,1,757.343,986.461Z" transform="translate(-669.962 -969.835)"/><path class="a" d="M802.757,989.808a.113.113,0,0,1-.057.1l-1.323.759a.053.053,0,0,0-.034.057V994.4a.1.1,0,0,1-.115.115h-.874a.1.1,0,0,1-.115-.115v-3a.038.038,0,0,0-.017-.034.037.037,0,0,0-.04,0l-.759.437a.124.124,0,0,1-.058.012.112.112,0,0,1-.1-.057l-.276-.517a.127.127,0,0,1-.011-.057.113.113,0,0,1,.057-.1l1.173-.679a.067.067,0,0,0,.034-.057v-3.761a.1.1,0,0,1,.115-.115h.874a.1.1,0,0,1,.115.115v3.082a.038.038,0,0,0,.017.034.037.037,0,0,0,.04,0l.886-.518a.13.13,0,0,1,.057-.012.113.113,0,0,1,.1.058l.3.529A.129.129,0,0,1,802.757,989.808Z" transform="translate(-709.395 -969.835)"/><path class="a" d="M829.14,1005.174a2.263,2.263,0,0,1-.886-1.2,4.424,4.424,0,0,1-.207-1.4,4.241,4.241,0,0,1,.2-1.38,2.263,2.263,0,0,1,.886-1.19,2.609,2.609,0,0,1,1.507-.431,2.451,2.451,0,0,1,1.444.431,2.361,2.361,0,0,1,.88,1.179,4.146,4.146,0,0,1,.207,1.38,4.395,4.395,0,0,1-.207,1.415,2.284,2.284,0,0,1-.874,1.2,2.5,2.5,0,0,1-1.461.431A2.57,2.57,0,0,1,829.14,1005.174Zm2.289-.782a1.416,1.416,0,0,0,.495-.73,3.948,3.948,0,0,0,.127-1.081,4.184,4.184,0,0,0-.115-1.07,1.416,1.416,0,0,0-.495-.73,1.359,1.359,0,0,0-.839-.259,1.322,1.322,0,0,0-.817.259,1.415,1.415,0,0,0-.495.73,3.663,3.663,0,0,0-.127,1.07,3.784,3.784,0,0,0,.127,1.081,1.343,1.343,0,0,0,.489.73,1.385,1.385,0,0,0,.845.259A1.3,1.3,0,0,0,831.428,1004.392Z" transform="translate(-733.799 -980.836)"/><path class="a" d="M871.846,986.461h.874a.1.1,0,0,1,.115.115V994.4a.1.1,0,0,1-.115.115h-.874a.1.1,0,0,1-.115-.115v-.38a.039.039,0,0,0-.017-.034c-.011-.008-.025,0-.04.011a1.806,1.806,0,0,1-.6.449,1.749,1.749,0,0,1-.748.161,2.231,2.231,0,0,1-1.374-.408,2.322,2.322,0,0,1-.8-1.156,4.377,4.377,0,0,1-.219-1.472,4.676,4.676,0,0,1,.184-1.392,2.346,2.346,0,0,1,.794-1.185,2.252,2.252,0,0,1,1.415-.425,1.814,1.814,0,0,1,.742.155,1.729,1.729,0,0,1,.6.443c.015.016.029.019.04.012a.038.038,0,0,0,.017-.034v-2.565A.1.1,0,0,1,871.846,986.461Zm-.138,5.118a3.034,3.034,0,0,0-.288-1.472,1.063,1.063,0,0,0-.978-.587,1.114,1.114,0,0,0-1.023.552,2.779,2.779,0,0,0-.368,1.518,3.035,3.035,0,0,0,.288,1.426,1.142,1.142,0,0,0,1.093.633,1.1,1.1,0,0,0,1.012-.621A3.107,3.107,0,0,0,871.708,991.579Z" transform="translate(-767.282 -969.835)"/><path class="a" d="M905.676,1005.878v-.805a.215.215,0,0,1,.046-.138l3.048-3.726c.015-.015.019-.029.011-.04a.039.039,0,0,0-.035-.017h-2.9a.1.1,0,0,1-.115-.115v-.782a.1.1,0,0,1,.115-.115H910a.1.1,0,0,1,.115.115v.816a.214.214,0,0,1-.046.138l-3.094,3.726c-.016.016-.019.029-.012.04a.038.038,0,0,0,.035.017h3.013a.1.1,0,0,1,.115.115v.771a.1.1,0,0,1-.115.115h-4.221A.1.1,0,0,1,905.676,1005.878Z" transform="translate(-798.961 -981.316)"/><path class="a" d="M940.614,986.509a.779.779,0,1,1,.529.207A.716.716,0,0,1,940.614,986.509Zm-.046,6.855v-5.612a.1.1,0,0,1,.115-.115h.874a.1.1,0,0,1,.115.115v5.612a.1.1,0,0,1-.115.115h-.874A.1.1,0,0,1,940.568,993.364Z" transform="translate(-828.114 -968.813)"/><path class="a" d="M963.028,1002.914a.1.1,0,0,1-.115.115h-3.669a.041.041,0,0,0-.046.046,1.987,1.987,0,0,0,.069.6,1.228,1.228,0,0,0,.512.719,1.707,1.707,0,0,0,.972.259,1.477,1.477,0,0,0,1.311-.7q.057-.115.149-.035l.656.437a.109.109,0,0,1,.034.15,2.232,2.232,0,0,1-.914.817,2.933,2.933,0,0,1-1.34.3,2.571,2.571,0,0,1-1.415-.368,2.241,2.241,0,0,1-.863-1.047,4.368,4.368,0,0,1-.276-1.645,4.87,4.87,0,0,1,.127-1.277,2.2,2.2,0,0,1,.828-1.254,2.459,2.459,0,0,1,1.507-.46,2.346,2.346,0,0,1,1.737.581,2.8,2.8,0,0,1,.7,1.708A9.209,9.209,0,0,1,963.028,1002.914Zm-3.289-2.145a1.22,1.22,0,0,0-.437.661,2.7,2.7,0,0,0-.1.644.041.041,0,0,0,.046.046h2.634a.041.041,0,0,0,.046-.046,3.4,3.4,0,0,0-.069-.564,1.384,1.384,0,0,0-2.116-.742Z" transform="translate(-842.96 -980.836)"/><path class="a" d="M994.617,993.375v-.805a.214.214,0,0,1,.046-.138l3.048-3.727c.015-.015.019-.029.011-.04a.039.039,0,0,0-.035-.017h-2.9a.1.1,0,0,1-.115-.115v-.782a.1.1,0,0,1,.115-.115h4.152a.1.1,0,0,1,.115.115v.816a.214.214,0,0,1-.046.138l-3.094,3.727c-.015.016-.019.029-.012.04a.039.039,0,0,0,.035.017h3.013a.1.1,0,0,1,.115.115v.771a.1.1,0,0,1-.115.115h-4.221A.1.1,0,0,1,994.617,993.375Zm1.679-6.866a.78.78,0,1,1,.529.207A.716.716,0,0,1,996.3,986.509Z" transform="translate(-873.617 -968.813)"/><path class="a" d="M1026.64,1008.167v-.679a.1.1,0,0,1,.115-.115h.023a2.2,2.2,0,0,0,.724-.115.9.9,0,0,0,.437-.385,3.571,3.571,0,0,0,.333-.845q.011-.012,0-.069l-1.921-5.693-.012-.046c0-.054.035-.081.1-.081h.932a.134.134,0,0,1,.138.092l1.3,4.336a.037.037,0,0,0,.069,0l1.288-4.336a.134.134,0,0,1,.138-.092h.909q.127,0,.092.126l-2.093,6.13a4.924,4.924,0,0,1-.529,1.179,1.443,1.443,0,0,1-.69.546,3.512,3.512,0,0,1-1.2.161h-.08C1026.667,1008.282,1026.64,1008.243,1026.64,1008.167Z" transform="translate(-900.246 -981.316)"/><path class="a" d="M1079.047,994.4v-7.821a.1.1,0,0,1,.115-.115h2.783a2.788,2.788,0,0,1,1.909.627,2.118,2.118,0,0,1,.713,1.674v3.45a2.117,2.117,0,0,1-.713,1.673,2.787,2.787,0,0,1-1.909.627h-2.783A.1.1,0,0,1,1079.047,994.4Zm1.15-.84h1.794a1.415,1.415,0,0,0,1.064-.408,1.547,1.547,0,0,0,.408-1.1v-3.128a1.509,1.509,0,0,0-.4-1.1,1.431,1.431,0,0,0-1.075-.408H1080.2a.041.041,0,0,0-.046.046v6.05A.041.041,0,0,0,1080.2,993.557Z" transform="translate(-944.488 -969.835)"/><path class="a" d="M1122.222,986.509a.78.78,0,1,1,.529.207A.717.717,0,0,1,1122.222,986.509Zm-.046,6.855v-5.612a.1.1,0,0,1,.115-.115h.874a.1.1,0,0,1,.115.115v5.612a.1.1,0,0,1-.115.115h-.874A.1.1,0,0,1,1122.176,993.364Z" transform="translate(-980.555 -968.813)"/><path class="a" d="M1144.637,1002.914a.1.1,0,0,1-.115.115h-3.669a.041.041,0,0,0-.046.046,2,2,0,0,0,.069.6,1.23,1.23,0,0,0,.512.719,1.707,1.707,0,0,0,.972.259,1.477,1.477,0,0,0,1.311-.7q.057-.115.15-.035l.656.437a.109.109,0,0,1,.035.15,2.23,2.23,0,0,1-.914.817,2.932,2.932,0,0,1-1.34.3,2.571,2.571,0,0,1-1.415-.368,2.242,2.242,0,0,1-.863-1.047,4.369,4.369,0,0,1-.276-1.645,4.862,4.862,0,0,1,.127-1.277,2.2,2.2,0,0,1,.828-1.254,2.459,2.459,0,0,1,1.507-.46,2.346,2.346,0,0,1,1.737.581,2.8,2.8,0,0,1,.7,1.708A9.164,9.164,0,0,1,1144.637,1002.914Zm-3.289-2.145a1.218,1.218,0,0,0-.437.661,2.685,2.685,0,0,0-.1.644.041.041,0,0,0,.046.046h2.634a.041.041,0,0,0,.046-.046,3.389,3.389,0,0,0-.069-.564,1.384,1.384,0,0,0-2.116-.742Z" transform="translate(-995.402 -980.836)"/><path class="a" d="M1179.04,1005.162a2.223,2.223,0,0,1-.851-1.2,4.6,4.6,0,0,1-.172-1.392,5.04,5.04,0,0,1,.172-1.392,2.187,2.187,0,0,1,.857-1.173,2.54,2.54,0,0,1,1.489-.437,2.62,2.62,0,0,1,1.507.437,2,2,0,0,1,.84,1.1,1.613,1.613,0,0,1,.092.38.112.112,0,0,1-.1.115l-.862.127h-.023q-.081,0-.115-.1l-.035-.184a1.126,1.126,0,0,0-.449-.656,1.408,1.408,0,0,0-.862-.265,1.34,1.34,0,0,0-.84.265,1.209,1.209,0,0,0-.449.7,4.673,4.673,0,0,0-.1,1.093,4.608,4.608,0,0,0,.1,1.081,1.281,1.281,0,0,0,.454.724,1.314,1.314,0,0,0,.834.265,1.431,1.431,0,0,0,.868-.265,1.125,1.125,0,0,0,.454-.69.025.025,0,0,0,.006-.029.027.027,0,0,1,.006-.029v-.046a.1.1,0,0,1,.127-.069l.863.138c.061.015.092.046.092.092v.046a.734.734,0,0,1-.057.253,1.948,1.948,0,0,1-.84,1.127,2.67,2.67,0,0,1-1.507.425A2.508,2.508,0,0,1,1179.04,1005.162Z" transform="translate(-1027.562 -980.836)"/><path class="a" d="M1220.4,1002.914a.1.1,0,0,1-.115.115h-3.669a.041.041,0,0,0-.046.046,1.988,1.988,0,0,0,.069.6,1.228,1.228,0,0,0,.512.719,1.707,1.707,0,0,0,.972.259,1.477,1.477,0,0,0,1.311-.7q.057-.115.149-.035l.656.437a.109.109,0,0,1,.035.15,2.235,2.235,0,0,1-.914.817,2.934,2.934,0,0,1-1.34.3,2.571,2.571,0,0,1-1.415-.368,2.242,2.242,0,0,1-.863-1.047,4.369,4.369,0,0,1-.276-1.645,4.873,4.873,0,0,1,.126-1.277,2.2,2.2,0,0,1,.828-1.254,2.459,2.459,0,0,1,1.507-.46,2.346,2.346,0,0,1,1.737.581,2.8,2.8,0,0,1,.7,1.708A9.2,9.2,0,0,1,1220.4,1002.914Zm-3.289-2.145a1.22,1.22,0,0,0-.437.661,2.68,2.68,0,0,0-.1.644.041.041,0,0,0,.046.046h2.634a.041.041,0,0,0,.046-.046,3.391,3.391,0,0,0-.069-.564,1.384,1.384,0,0,0-2.116-.742Z" transform="translate(-1059 -980.836)"/><path class="a" d="M1251.991,1005.878v-.805a.215.215,0,0,1,.046-.138l3.048-3.726c.015-.015.019-.029.011-.04a.039.039,0,0,0-.035-.017h-2.9a.1.1,0,0,1-.115-.115v-.782a.1.1,0,0,1,.115-.115h4.152a.1.1,0,0,1,.115.115v.816a.215.215,0,0,1-.046.138l-3.094,3.726c-.016.016-.019.029-.012.04a.039.039,0,0,0,.035.017h3.013a.1.1,0,0,1,.115.115v.771a.1.1,0,0,1-.115.115h-4.221A.1.1,0,0,1,1251.991,1005.878Z" transform="translate(-1089.656 -981.316)"/><path class="a" d="M1278.988,995.756v-.713a.1.1,0,0,1,.115-.115,1.4,1.4,0,0,0,.949-.265,1.079,1.079,0,0,0,.293-.84l-.012-6.073a.1.1,0,0,1,.115-.115h.874a.1.1,0,0,1,.115.115v6.061a2.665,2.665,0,0,1-.23,1.208,1.377,1.377,0,0,1-.736.655,3.57,3.57,0,0,1-1.369.2A.1.1,0,0,1,1278.988,995.756Zm1.369-9.247a.779.779,0,1,1,.529.207A.717.717,0,0,1,1280.357,986.509Z" transform="translate(-1112.317 -968.813)"/><path class="a" d="M1304.689,986.509a.779.779,0,1,1,.529.207A.716.716,0,0,1,1304.689,986.509Zm-.046,6.855v-5.612a.1.1,0,0,1,.115-.115h.874a.1.1,0,0,1,.115.115v5.612a.1.1,0,0,1-.115.115h-.874A.1.1,0,0,1,1304.643,993.364Z" transform="translate(-1133.717 -968.813)"/><path class="a" d="M1340.941,986.576v.736a.1.1,0,0,1-.115.115h-2.208a.041.041,0,0,0-.046.046V994.4a.1.1,0,0,1-.115.115h-.874a.1.1,0,0,1-.115-.115v-6.924a.041.041,0,0,0-.046-.046h-2.1a.1.1,0,0,1-.115-.115v-.736a.1.1,0,0,1,.115-.115h5.509A.1.1,0,0,1,1340.941,986.576Z" transform="translate(-1159.503 -969.835)"/><path class="a" d="M1378.465,999.814a1.88,1.88,0,0,1,.805.69,1.836,1.836,0,0,1,.282,1.007v3.887a.1.1,0,0,1-.115.115h-.874a.1.1,0,0,1-.115-.115v-.414c0-.038-.019-.046-.057-.023a2,2,0,0,1-.73.477,2.647,2.647,0,0,1-.96.167,2.236,2.236,0,0,1-1.409-.431,1.547,1.547,0,0,1-.558-1.305,1.72,1.72,0,0,1,.627-1.409,2.7,2.7,0,0,1,1.754-.512h1.288a.041.041,0,0,0,.046-.046v-.31a1.042,1.042,0,0,0-.293-.788,1.245,1.245,0,0,0-.891-.282,1.47,1.47,0,0,0-.788.19.783.783,0,0,0-.374.512.121.121,0,0,1-.138.1l-.932-.127c-.077-.015-.111-.046-.1-.092a1.567,1.567,0,0,1,.725-1.11,2.755,2.755,0,0,1,1.587-.431A2.839,2.839,0,0,1,1378.465,999.814Zm-.466,4.537a.97.97,0,0,0,.449-.817v-.679a.041.041,0,0,0-.046-.046h-1.081a1.944,1.944,0,0,0-1.081.265.834.834,0,0,0-.4.736.741.741,0,0,0,.3.644,1.343,1.343,0,0,0,.8.219A1.766,1.766,0,0,0,1378,1004.351Z" transform="translate(-1192.685 -980.836)"/><path class="a" d="M1417.28,999.931a.107.107,0,0,1,.057.138l-.184.863q-.012.1-.138.069a1.207,1.207,0,0,0-.46-.081l-.161.012a1.289,1.289,0,0,0-.891.374,1.236,1.236,0,0,0-.351.914v3.358a.1.1,0,0,1-.115.115h-.874a.1.1,0,0,1-.115-.115v-5.624a.1.1,0,0,1,.115-.115h.874a.1.1,0,0,1,.115.115v.609c0,.023.006.037.017.04s.021,0,.029-.017a1.6,1.6,0,0,1,1.415-.805A1.474,1.474,0,0,1,1417.28,999.931Z" transform="translate(-1225.686 -981.016)"/><path class="a" d="M1444.721,1000.184a1.986,1.986,0,0,1,.552,1.478v3.8a.1.1,0,0,1-.115.115h-.874a.1.1,0,0,1-.115-.115v-3.577a1.31,1.31,0,0,0-.333-.932,1.156,1.156,0,0,0-.885-.356,1.179,1.179,0,0,0-.886.356,1.268,1.268,0,0,0-.345.92v3.588a.1.1,0,0,1-.115.115h-.874a.1.1,0,0,1-.115-.115v-5.624a.1.1,0,0,1,.115-.115h.874a.1.1,0,0,1,.115.115v.414a.039.039,0,0,0,.017.035c.012.008.021,0,.029-.012a1.741,1.741,0,0,1,1.461-.632A2.033,2.033,0,0,1,1444.721,1000.184Z" transform="translate(-1247.986 -980.896)"/><path class="a" d="M1478.947,1005.174a2.263,2.263,0,0,1-.885-1.2,4.426,4.426,0,0,1-.207-1.4,4.237,4.237,0,0,1,.2-1.38,2.262,2.262,0,0,1,.886-1.19,2.609,2.609,0,0,1,1.507-.431,2.451,2.451,0,0,1,1.443.431,2.361,2.361,0,0,1,.88,1.179,4.151,4.151,0,0,1,.207,1.38,4.4,4.4,0,0,1-.207,1.415,2.284,2.284,0,0,1-.874,1.2,2.5,2.5,0,0,1-1.461.431A2.57,2.57,0,0,1,1478.947,1005.174Zm2.289-.782a1.417,1.417,0,0,0,.495-.73,3.955,3.955,0,0,0,.127-1.081,4.181,4.181,0,0,0-.115-1.07,1.417,1.417,0,0,0-.494-.73,1.36,1.36,0,0,0-.84-.259,1.323,1.323,0,0,0-.817.259,1.417,1.417,0,0,0-.494.73,3.669,3.669,0,0,0-.127,1.07,3.79,3.79,0,0,0,.127,1.081,1.342,1.342,0,0,0,.489.73,1.385,1.385,0,0,0,.845.259A1.305,1.305,0,0,0,1481.235,1004.392Z" transform="translate(-1279.244 -980.836)"/><path class="a" d="M1515.687,1005.9l-1.656-5.636-.011-.034q0-.092.115-.092h.9a.118.118,0,0,1,.127.1l1.093,4.175c.007.015.017.023.029.023s.021-.008.029-.023l1.115-4.175a.118.118,0,0,1,.126-.1h.793a.118.118,0,0,1,.127.1l1.139,4.164c.007.015.017.023.029.023s.021-.008.029-.023l1.139-4.164a.118.118,0,0,1,.127-.1l.885.012a.106.106,0,0,1,.086.034.107.107,0,0,1,.017.092l-1.668,5.624a.126.126,0,0,1-.126.092h-.9a.126.126,0,0,1-.126-.092l-1.127-3.887c-.008-.015-.017-.023-.029-.023s-.021.008-.029.023l-1.07,3.876a.118.118,0,0,1-.126.1h-.909A.127.127,0,0,1,1515.687,1005.9Z" transform="translate(-1309.601 -981.316)"/><path class="a" d="M1567.537,1005.555a1.9,1.9,0,0,1-.811-.569,1.256,1.256,0,0,1-.288-.8v-.126a.1.1,0,0,1,.115-.115h.828a.1.1,0,0,1,.115.115v.057a.685.685,0,0,0,.351.563,1.536,1.536,0,0,0,.891.242,1.439,1.439,0,0,0,.84-.224.671.671,0,0,0,.322-.569.539.539,0,0,0-.3-.5,4.723,4.723,0,0,0-.966-.351,9,9,0,0,1-1.1-.374,2.038,2.038,0,0,1-.747-.541,1.327,1.327,0,0,1-.3-.9,1.454,1.454,0,0,1,.6-1.225,2.6,2.6,0,0,1,1.6-.454,3.051,3.051,0,0,1,1.179.213,1.8,1.8,0,0,1,.788.592,1.413,1.413,0,0,1,.276.851v.034a.1.1,0,0,1-.115.115h-.805a.1.1,0,0,1-.115-.115v-.034a.66.66,0,0,0-.328-.558,1.856,1.856,0,0,0-1.714-.029.6.6,0,0,0-.316.529.55.55,0,0,0,.3.506,4.893,4.893,0,0,0,.983.368,10.554,10.554,0,0,1,1.11.362,1.977,1.977,0,0,1,.753.529,1.329,1.329,0,0,1,.311.914,1.47,1.47,0,0,1-.615,1.242,2.672,2.672,0,0,1-1.639.46A3.284,3.284,0,0,1,1567.537,1005.555Z" transform="translate(-1353.602 -981.016)"/><path class="a" d="M1602.89,994.4v-7.821a.1.1,0,0,1,.115-.115h.874a.1.1,0,0,1,.115.115V991a.036.036,0,0,0,.023.034.022.022,0,0,0,.034-.012l2.128-2.312a.166.166,0,0,1,.138-.057h1.023c.046,0,.075.013.086.04s0,.06-.029.1l-1.484,1.714a.081.081,0,0,0-.011.069l1.76,3.8.012.046c0,.062-.034.092-.1.092h-.92a.126.126,0,0,1-.126-.092l-1.369-3.128c-.015-.038-.034-.042-.057-.011l-1.081,1.2a.2.2,0,0,0-.023.057V994.4a.1.1,0,0,1-.115.115h-.874A.1.1,0,0,1,1602.89,994.4Z" transform="translate(-1384.199 -969.835)"/><path class="a" d="M1639.334,986.509a.779.779,0,1,1,.529.207A.716.716,0,0,1,1639.334,986.509Zm-.046,6.855v-5.612a.1.1,0,0,1,.115-.115h.874a.1.1,0,0,1,.115.115v5.612a.1.1,0,0,1-.115.115h-.874A.1.1,0,0,1,1639.288,993.364Z" transform="translate(-1414.616 -968.813)"/><path class="a" d="M1661.747,1002.914a.1.1,0,0,1-.115.115h-3.669a.041.041,0,0,0-.046.046,1.992,1.992,0,0,0,.069.6,1.228,1.228,0,0,0,.512.719,1.707,1.707,0,0,0,.972.259,1.477,1.477,0,0,0,1.311-.7q.057-.115.149-.035l.656.437a.109.109,0,0,1,.034.15,2.232,2.232,0,0,1-.914.817,2.933,2.933,0,0,1-1.34.3,2.571,2.571,0,0,1-1.415-.368,2.242,2.242,0,0,1-.863-1.047,4.369,4.369,0,0,1-.276-1.645,4.867,4.867,0,0,1,.127-1.277,2.2,2.2,0,0,1,.828-1.254,2.459,2.459,0,0,1,1.507-.46,2.346,2.346,0,0,1,1.737.581,2.8,2.8,0,0,1,.7,1.708A9.166,9.166,0,0,1,1661.747,1002.914Zm-3.289-2.145a1.219,1.219,0,0,0-.437.661,2.7,2.7,0,0,0-.1.644.041.041,0,0,0,.046.046h2.634a.041.041,0,0,0,.046-.046,3.413,3.413,0,0,0-.069-.564,1.384,1.384,0,0,0-2.116-.742Z" transform="translate(-1429.462 -980.836)"/><path class="a" d="M1688.036,995.756v-.713a.1.1,0,0,1,.115-.115,1.4,1.4,0,0,0,.949-.265,1.08,1.08,0,0,0,.293-.84l-.011-6.073a.1.1,0,0,1,.115-.115h.874a.1.1,0,0,1,.115.115v6.061a2.665,2.665,0,0,1-.23,1.208,1.378,1.378,0,0,1-.736.655,3.57,3.57,0,0,1-1.369.2A.1.1,0,0,1,1688.036,995.756Zm1.369-9.247a.779.779,0,1,1,.529.207A.717.717,0,0,1,1689.4,986.509Z" transform="translate(-1455.67 -968.813)"/></g></g></svg>