<svg xmlns="http://www.w3.org/2000/svg" width="180" height="49.278" viewBox="0 0 180 49.278"><defs><style>.a{fill:#fff;}.b{fill:#1d3686;}.c{fill:#7ca611;}.d{fill:#f99300;}.e{fill:#dd1c0a;}.f{fill:#161615;}</style></defs><g transform="translate(-24.538 -25.922)"><rect class="a" width="180" height="49.278" transform="translate(24.538 25.922)"/><rect class="b" width="42.711" height="37.085" transform="translate(25.984 27.556)"/><rect class="c" width="42.711" height="37.085" transform="translate(70.484 27.563)"/><rect class="d" width="42.711" height="37.085" transform="translate(115.044 27.571)"/><rect class="e" width="42.711" height="37.085" transform="translate(159.865 27.316)"/><g transform="translate(37.526 36.09)"><path class="a" d="M102.256,92.487H95.515l-6.359-8.514-1.273,1.572v6.941H82.4V71.215h5.486v9.638l7.6-9.638h6.358l-8.314,9.843Z" transform="translate(-82.398 -71.215)"/></g><g transform="translate(80.417 36.09)"><path class="a" d="M295.5,92.487h-5.665l-1.482-4.3h-7.872L279,92.487h-5.528l7.857-21.272h6.314Zm-8.466-8.2-2.617-7.621L281.8,84.287Z" transform="translate(-273.467 -71.215)"/></g><g transform="translate(128.208 36.09)"><path class="a" d="M505.7,92.487h-5.286l-9.029-14.6v14.6h-5.029V71.215h6.557L500.674,83.4V71.215H505.7Z" transform="translate(-486.359 -71.215)"/></g><g transform="translate(173.313 36.09)"><path class="a" d="M709.32,92.487h-5.666l-1.482-4.3H694.3l-1.482,4.3h-5.528l7.857-21.272h6.315Zm-8.466-8.2-2.617-7.621-2.617,7.621Z" transform="translate(-687.291 -71.215)"/></g><g transform="translate(27.019 65.578)"><path class="f" d="M40.172,207.983H39.155l-2.813,2.809v-2.809h-.75v5.665h.75v-1.963l.927-.9,2.017,2.867h.989L37.8,210.278Z" transform="translate(-35.593 -206.77)"/><path class="f" d="M58.647,207.983l-2.175,5.665h.8l.622-1.716h2.369l.661,1.716h.854l-2.318-5.665Zm-.541,3.339.622-1.662a7.205,7.205,0,0,0,.305-1.082q.131.46.4,1.175l.591,1.569Z" transform="translate(-51.785 -206.77)"/><path class="f" d="M78.248,208.651h1.866v5h.75v-5h1.874v-.668h-4.49Z" transform="translate(-68.673 -206.77)"/><path class="f" d="M104.151,207.91a2.713,2.713,0,0,0-1.414-.375,2.575,2.575,0,0,0-1.955.8,3.078,3.078,0,0,0-.757,2.208,3.2,3.2,0,0,0,.325,1.414,2.486,2.486,0,0,0,.954,1.055,2.679,2.679,0,0,0,1.43.386,2.816,2.816,0,0,0,1.375-.35,2.375,2.375,0,0,0,.985-1.03,3.336,3.336,0,0,0,.348-1.542,3.392,3.392,0,0,0-.33-1.52A2.448,2.448,0,0,0,104.151,207.91Zm-.029,4.25a1.921,1.921,0,0,1-2.774.006,2.269,2.269,0,0,1-.551-1.613,2.442,2.442,0,0,1,.574-1.826,1.917,1.917,0,0,1,1.37-.547,1.855,1.855,0,0,1,1.01.284,1.8,1.8,0,0,1,.684.8,2.9,2.9,0,0,1,.234,1.207A2.406,2.406,0,0,1,104.122,212.16Z" transform="translate(-85.56 -206.422)"/><path class="f" d="M129.072,207.983h-.75v5.665h3.539v-.668h-2.79Z" transform="translate(-107.506 -206.77)"/><rect class="f" width="0.75" height="5.665" transform="translate(25.375 1.213)"/><path class="f" d="M160.563,212.405a1.612,1.612,0,0,1-1.067.363,1.837,1.837,0,0,1-.962-.267,1.57,1.57,0,0,1-.655-.806,3.458,3.458,0,0,1-.211-1.262,3.382,3.382,0,0,1,.178-1.088,1.654,1.654,0,0,1,.616-.84,1.833,1.833,0,0,1,1.092-.313,1.525,1.525,0,0,1,.943.282,1.753,1.753,0,0,1,.572.9l.738-.174a2.248,2.248,0,0,0-.807-1.217,2.322,2.322,0,0,0-1.43-.433,2.81,2.81,0,0,0-1.374.342,2.315,2.315,0,0,0-.962,1,3.339,3.339,0,0,0-.338,1.544,3.851,3.851,0,0,0,.3,1.518,2.327,2.327,0,0,0,.873,1.08,2.689,2.689,0,0,0,1.489.373,2.337,2.337,0,0,0,1.5-.485,2.523,2.523,0,0,0,.848-1.408l-.75-.189A1.859,1.859,0,0,1,160.563,212.405Z" transform="translate(-129.666 -206.435)"/><path class="f" d="M187.758,207.983h-1.016l-2.813,2.809v-2.809h-.75v5.665h.75v-1.963l.927-.9,2.017,2.867h.989l-2.481-3.369Z" transform="translate(-150.049 -206.77)"/><rect class="f" width="0.75" height="5.665" transform="translate(38.567 1.213)"/><path class="f" d="M217.443,211.051h3.134v-.665h-3.134v-1.735h3.346v-.668h-4.1v5.665h4.227v-.668h-3.478Z" transform="translate(-176.04 -206.77)"/><path class="f" d="M252.635,212.405a1.612,1.612,0,0,1-1.067.363,1.836,1.836,0,0,1-.962-.267,1.569,1.569,0,0,1-.655-.806,3.458,3.458,0,0,1-.211-1.262,3.383,3.383,0,0,1,.178-1.088,1.653,1.653,0,0,1,.616-.84,1.833,1.833,0,0,1,1.092-.313,1.525,1.525,0,0,1,.943.282,1.753,1.753,0,0,1,.572.9l.738-.174a2.248,2.248,0,0,0-.807-1.217,2.323,2.323,0,0,0-1.43-.433,2.809,2.809,0,0,0-1.374.342,2.315,2.315,0,0,0-.962,1,3.338,3.338,0,0,0-.338,1.544,3.851,3.851,0,0,0,.3,1.518,2.327,2.327,0,0,0,.873,1.08,2.689,2.689,0,0,0,1.489.373,2.337,2.337,0,0,0,1.5-.485,2.521,2.521,0,0,0,.848-1.408l-.75-.189A1.859,1.859,0,0,1,252.635,212.405Z" transform="translate(-201.069 -206.435)"/><path class="f" d="M276.208,211.051h3.134v-.665h-3.134v-1.735h3.346v-.668h-4.1v5.665h4.227v-.668h-3.478Z" transform="translate(-221.613 -206.77)"/><path class="f" d="M302.612,212.431l-2.975-4.447h-.769v5.665h.719V209.2l2.975,4.451h.769v-5.665h-.719Z" transform="translate(-239.767 -206.77)"/><path class="f" d="M322.466,208.651h1.866v5h.75v-5h1.874v-.668h-4.49Z" transform="translate(-258.069 -206.77)"/><path class="f" d="M349.33,211.352a1.95,1.95,0,0,0-.452-.282,1.974,1.974,0,0,0,1.205-.526,1.425,1.425,0,0,0,.39-1.016,1.609,1.609,0,0,0-.236-.854,1.259,1.259,0,0,0-.63-.539,3.346,3.346,0,0,0-1.152-.153h-2.511v5.665h.75v-2.516h.869a2.254,2.254,0,0,1,.417.027,1.123,1.123,0,0,1,.342.151,1.7,1.7,0,0,1,.38.379q.212.271.541.781l.75,1.178h.943l-.985-1.542A3.9,3.9,0,0,0,349.33,211.352Zm-1.024-.869h-1.611v-1.874h1.793a1.366,1.366,0,0,1,.922.259.844.844,0,0,1,.292.661.922.922,0,0,1-.151.508.855.855,0,0,1-.441.34A2.412,2.412,0,0,1,348.306,210.483Z" transform="translate(-276.277 -206.77)"/><path class="f" d="M375.109,211.252a2.159,2.159,0,0,1-.352,1.441,1.562,1.562,0,0,1-1.179.375,1.635,1.635,0,0,1-.817-.189,1.04,1.04,0,0,1-.471-.539,3.182,3.182,0,0,1-.137-1.088v-3.269h-.75v3.273a3.781,3.781,0,0,0,.216,1.42,1.565,1.565,0,0,0,.722.794,2.72,2.72,0,0,0,1.3.274,2.469,2.469,0,0,0,1.324-.315,1.656,1.656,0,0,0,.7-.817,3.879,3.879,0,0,0,.193-1.356v-3.273h-.75Z" transform="translate(-296.02 -206.77)"/><path class="f" d="M399.747,211.924q-.2.6-.3.908-.085-.278-.271-.838l-1.341-4.011h-1.128v5.665h.722v-4.822l1.638,4.822h.676l1.646-4.741v4.741h.723v-5.665H401.1Z" transform="translate(-315.643 -206.77)"/><path class="f" d="M436.787,211.051h3.134v-.665h-3.134v-1.735h3.346v-.668h-4.1v5.665h4.227v-.668h-3.478Z" transform="translate(-346.145 -206.77)"/><path class="f" d="M463.272,208.47a1.919,1.919,0,0,0-.831-.406,4.731,4.731,0,0,0-1.008-.081h-1.951v5.665h2.044a3.872,3.872,0,0,0,.91-.1,2.11,2.11,0,0,0,.676-.284,2.056,2.056,0,0,0,.516-.514,2.775,2.775,0,0,0,.386-.825,3.96,3.96,0,0,0,.151-1.144,3.8,3.8,0,0,0-.222-1.346A2.308,2.308,0,0,0,463.272,208.47Zm-.029,3.394a1.786,1.786,0,0,1-.415.717,1.257,1.257,0,0,1-.508.294,2.941,2.941,0,0,1-.879.1h-1.21v-4.328h1.19a2.932,2.932,0,0,1,.97.116,1.47,1.47,0,0,1,.709.64,2.637,2.637,0,0,1,.291,1.366A3.5,3.5,0,0,1,463.243,211.864Z" transform="translate(-364.326 -206.77)"/><path class="f" d="M488.7,211.252a2.161,2.161,0,0,1-.352,1.441,1.562,1.562,0,0,1-1.179.375,1.636,1.636,0,0,1-.817-.189,1.043,1.043,0,0,1-.471-.539,3.188,3.188,0,0,1-.137-1.088v-3.269h-.75v3.273a3.781,3.781,0,0,0,.216,1.42,1.566,1.566,0,0,0,.723.794,2.719,2.719,0,0,0,1.3.274,2.469,2.469,0,0,0,1.323-.315,1.655,1.655,0,0,0,.7-.817,3.873,3.873,0,0,0,.193-1.356v-3.273h-.75Z" transform="translate(-384.11 -206.77)"/><path class="f" d="M514.838,207.983h-1.016l-2.813,2.809v-2.809h-.749v5.665h.749v-1.963l.927-.9,2.017,2.867h.989l-2.481-3.369Z" transform="translate(-403.705 -206.77)"/><path class="f" d="M533.313,207.983l-2.175,5.665h.8l.622-1.716h2.369l.661,1.716h.854l-2.318-5.665Zm-.541,3.339.622-1.662a7.2,7.2,0,0,0,.305-1.082q.131.46.4,1.175l.591,1.569Z" transform="translate(-419.897 -206.77)"/><path class="f" d="M560.126,212.405a1.612,1.612,0,0,1-1.066.363,1.836,1.836,0,0,1-.962-.267,1.568,1.568,0,0,1-.655-.806,3.453,3.453,0,0,1-.211-1.262,3.383,3.383,0,0,1,.178-1.088,1.654,1.654,0,0,1,.616-.84,1.833,1.833,0,0,1,1.092-.313,1.524,1.524,0,0,1,.943.282,1.751,1.751,0,0,1,.572.9l.738-.174a2.248,2.248,0,0,0-.807-1.217,2.322,2.322,0,0,0-1.43-.433,2.81,2.81,0,0,0-1.374.342,2.315,2.315,0,0,0-.962,1,3.337,3.337,0,0,0-.338,1.544,3.852,3.852,0,0,0,.3,1.518,2.328,2.328,0,0,0,.873,1.08,2.69,2.69,0,0,0,1.49.373,2.337,2.337,0,0,0,1.5-.485,2.523,2.523,0,0,0,.848-1.408l-.75-.189A1.858,1.858,0,0,1,560.126,212.405Z" transform="translate(-439.534 -206.435)"/><path class="f" d="M583.539,211.886a2.358,2.358,0,0,1-.077.709.665.665,0,0,1-.282.352.893.893,0,0,1-.487.13.766.766,0,0,1-.6-.24,1.45,1.45,0,0,1-.244-.889l-.676.093a1.769,1.769,0,0,0,.381,1.275,1.478,1.478,0,0,0,1.142.429,1.79,1.79,0,0,0,.875-.2,1.225,1.225,0,0,0,.545-.6,2.811,2.811,0,0,0,.172-1.1v-3.86h-.75Z" transform="translate(-458.701 -206.77)"/><rect class="f" width="0.75" height="5.665" transform="translate(126.94 1.213)"/><path class="f" d="M623.032,211.924q-.2.6-.3.908-.085-.278-.271-.838l-1.341-4.011h-1.129v5.665h.723v-4.822l1.638,4.822h.676l1.646-4.741v4.741h.722v-5.665h-1.008Z" transform="translate(-488.805 -206.77)"/><path class="f" d="M648.051,210.823l1.283-1.086v-.645l-1.283,1.086v-2.195h-.75v2.832l-.56.479v.645l.56-.475v2.183h3.563v-.668h-2.813Z" transform="translate(-509.55 -206.77)"/><path class="f" d="M672.178,207.91a2.714,2.714,0,0,0-1.414-.375,2.574,2.574,0,0,0-1.955.8,3.078,3.078,0,0,0-.757,2.208,3.2,3.2,0,0,0,.325,1.414,2.486,2.486,0,0,0,.954,1.055,2.679,2.679,0,0,0,1.43.386,2.815,2.815,0,0,0,1.376-.35,2.372,2.372,0,0,0,.985-1.03,3.336,3.336,0,0,0,.348-1.542,3.4,3.4,0,0,0-.33-1.52A2.449,2.449,0,0,0,672.178,207.91Zm-.029,4.25a1.921,1.921,0,0,1-2.774.006,2.269,2.269,0,0,1-.551-1.613,2.442,2.442,0,0,1,.574-1.826,1.916,1.916,0,0,1,1.37-.547,1.854,1.854,0,0,1,1.01.284,1.8,1.8,0,0,1,.684.8,2.9,2.9,0,0,1,.234,1.207A2.406,2.406,0,0,1,672.149,212.16Z" transform="translate(-526.076 -206.422)"/><path class="f" d="M700.276,208.47a1.918,1.918,0,0,0-.831-.406,4.732,4.732,0,0,0-1.008-.081h-1.951v5.665h2.044a3.871,3.871,0,0,0,.91-.1,2.111,2.111,0,0,0,.676-.284,2.058,2.058,0,0,0,.516-.514,2.781,2.781,0,0,0,.386-.825,3.957,3.957,0,0,0,.151-1.144,3.794,3.794,0,0,0-.222-1.346A2.306,2.306,0,0,0,700.276,208.47Zm-.029,3.394a1.786,1.786,0,0,1-.415.717,1.257,1.257,0,0,1-.508.294,2.942,2.942,0,0,1-.879.1h-1.209v-4.328h1.19a2.933,2.933,0,0,1,.97.116,1.469,1.469,0,0,1,.709.64,2.634,2.634,0,0,1,.292,1.366A3.5,3.5,0,0,1,700.248,211.864Z" transform="translate(-548.128 -206.77)"/><path class="f" d="M721.137,212.581l3.18-3.93v-.669h-4.057v.669h3.161q-.279.286-.587.672l-2.9,3.628v.7h4.478v-.668h-3.617Z" transform="translate(-566.31 -206.77)"/><rect class="f" width="0.75" height="5.665" transform="translate(159.034 1.213)"/><path class="f" d="M754.09,211.051h3.134v-.665H754.09v-1.735h3.346v-.668h-4.1v5.665h4.227v-.668H754.09Z" transform="translate(-592.219 -206.77)"/><rect class="f" width="0.862" height="0.866" transform="translate(167.833 0)"/><path class="f" d="M775.976,212.581l3.18-3.93v-.669H775.1v.669h3.161q-.278.286-.587.672l-2.9,3.628v.7h4.478v-.668h-3.617Z" transform="translate(-608.839 -206.77)"/><path class="f" d="M800.022,207.983l-1.1,1.665q-.363.556-.618,1-.267-.479-.576-.958l-1.117-1.708H795.7l2.183,3.265v2.4h.75v-2.4l2.26-3.265Z" transform="translate(-625.072 -206.77)"/></g></g></svg>