<svg xmlns="http://www.w3.org/2000/svg" width="80" height="15.014" viewBox="0 0 80 15.014"><defs><style>.a{fill:#4ad3c2;}</style></defs><path class="a" d="M1020.686,402.841c-.217-.006-.305-.178-.426-.321a.611.611,0,0,1-.175-.509.5.5,0,0,0-.182-.432.648.648,0,0,1-.215-.395.965.965,0,0,0-.117-.318.238.238,0,0,0-.134-.125c-.094-.016-.2.032-.29,0s-.144-.146-.266-.119a.31.31,0,0,1-.094,0,.462.462,0,0,1-.115-.018,1.415,1.415,0,0,0-.551-.076c-.054,0-.127.007-.158-.023-.094-.09-.2-.061-.311-.07a2.529,2.529,0,0,1-1-.091.23.23,0,0,0-.094,0c-.52,0-1.041-.007-1.561-.009a.67.67,0,0,0-.127.025c.117.2.352.024.449.2a.285.285,0,0,1,.461.109,2.817,2.817,0,0,1-.314,0,2.2,2.2,0,0,0-.894-.047.244.244,0,0,1-.094,0c-.108-.014-.214-.036-.322-.042a10,10,0,0,1-1.458-.049.5.5,0,0,0-.117.006c-.236.012-.472.024-.708.035-.022,0-.045-.015-.068-.016a.472.472,0,0,0-.154,0,.278.278,0,0,1-.285-.045.168.168,0,0,0-.153-.025c-.143.1-.312.024-.461.081-.067.025-.183.049-.215.015-.132-.14-.294-.106-.441-.093a11.375,11.375,0,0,0-1.236-.011c-.07.014-.151-.039-.227-.036a2.666,2.666,0,0,0-.51.045,3.609,3.609,0,0,1-.524,0c-.175.016-.347-.1-.524-.009-.017.009-.055-.029-.084-.032a1.538,1.538,0,0,0-.163,0l-.141-.009c-.047-.08-.1-.079-.143,0l-.235,0a.111.111,0,0,0-.191,0l-.144.007c-.014-.017-.024-.042-.042-.05-.239-.1-.472.012-.709.019a2.219,2.219,0,0,1-.249,0c-.141-.012-.285-.07-.415.035l-.19.015c-.154-.016-.317.031-.462-.065-.019-.013-.062,0-.09.012a1.017,1.017,0,0,1-.458.01c-.2-.009-.4-.13-.6.016-.031.023-.123-.008-.168-.04a.163.163,0,0,0-.231,0c-.061.056-.117.035-.19.025a1.094,1.094,0,0,0-.687.043.215.215,0,0,1-.156.023,1.153,1.153,0,0,0-.653.007.237.237,0,0,0-.221.031.241.241,0,0,1-.148.049,8.6,8.6,0,0,1-.983.054c-.171-.024-.359.088-.526-.051-.018-.015-.061,0-.092,0l-.587.009c-.047-.063-.094-.065-.141,0l-.095,0a10.141,10.141,0,0,0-1.089,0h-.141c-.121-.008-.244-.022-.331.092l-.142,0a1.444,1.444,0,0,1-.247.035c-.107,0-.214-.038-.321-.039-.346,0-.693,0-1.039,0-.131,0-.262.045-.392.04-.151-.006-.3-.079-.452,0-.119-.071-.245.033-.358-.009a.535.535,0,0,0-.387,0,.285.285,0,0,1-.185.009,2.423,2.423,0,0,0-.849-.042c-.068,0-.129,0-.131.09l-.088.012h-.191l-.095-.008c-.06-.091-.125-.055-.2-.015a.324.324,0,0,1-.168.054,2.081,2.081,0,0,0-.7.049.3.3,0,0,1-.242-.04.269.269,0,0,0-.386.058l-.1,0c-.28,0-.56-.009-.84-.011a.214.214,0,0,0-.11.027.65.65,0,0,1-.36.064c-.085,0-.17.009-.255.013l-.1,0c-.078-.078-.176-.146-.274-.071a.42.42,0,0,1-.263.064q-.323.022-.646.052c-.014,0-.025.033-.037.051l-.1.01c-.044-.014-.1-.014-.131-.043-.13-.122-.252-.077-.386.009l-.113-.146c.056-.031.106-.083.135-.073a1.087,1.087,0,0,0,.433-.017c.289-.016.586.123.869-.04.041-.023.108,0,.163,0,.134,0,.268,0,.4,0,.113,0,.149-.061.121-.179-.244,0-.478,0-.713,0a.763.763,0,0,0-.208.019,2.183,2.183,0,0,1-.608.071c-.307,0-.615,0-.922,0a.81.81,0,0,0-.125.02l-.01.044.346.176a.391.391,0,0,1-.086.043c-.213.038-.426.074-.639.11l-.519.032a1.891,1.891,0,0,0-.236.007c-.023,0-.04.051-.06.079l-.272.006a.155.155,0,0,0-.236,0l-.331,0h-.1l-.141-.006a.319.319,0,0,0-.437.09l-.37.01a.215.215,0,0,0-.286-.015l-.135,0a.293.293,0,0,0-.336,0l-.093.009a3.625,3.625,0,0,0-.9.04.512.512,0,0,0-.143.092h0c-.073.009-.184.051-.211.02-.066-.077-.139-.058-.212-.06-.091,0-.183,0-.265,0-.037-.12.009-.167.087-.187s.168-.03.249-.055a.615.615,0,0,0,.129-.079.306.306,0,0,0-.292-.1c-.294.03-.587.077-.882.084-.646.015-1.293.009-1.939.015-.107,0-.218-.021-.313.067-.026.024-.1.006-.151-.006-.132-.032-.262-.115-.391.019-.024.025-.09.013-.137.013-.126,0-.253-.006-.378,0-.183.012-.378-.053-.543.086-.024.02-.077.006-.116.006a17.509,17.509,0,0,0-2.087.085c-.406.054-.823.037-1.234.1a9.078,9.078,0,0,1-1.032.049c-.142,0-.284,0-.426,0-.054,0-.124,0-.157.026a.35.35,0,0,1-.266.063c-.134,0-.268,0-.4,0s-.268,0-.4.012c-.208.021-.413.064-.621.081a4.126,4.126,0,0,1-.5,0c-.167-.006-.333.077-.5,0a.1.1,0,0,0-.089.013c-.1.108-.233.075-.355.077-.213,0-.426,0-.639,0-.047,0-.111-.012-.137.013-.113.112-.25.074-.38.077a7.009,7.009,0,0,0-.755.018,3.339,3.339,0,0,1-.717.076c-.193-.016-.382.068-.576.009-.021-.007-.054.023-.082.037a.346.346,0,0,1-.1.05c-.186.018-.373.031-.559.045s-.378-.046-.544.087c-.02.016-.062.01-.092.005-.262-.04-.522.088-.785.009a.131.131,0,0,0-.111.02c-.091.095-.2.064-.312.069a1.6,1.6,0,0,0-.282.013,2.762,2.762,0,0,1-.715.086.6.6,0,0,0-.188,0,3.454,3.454,0,0,1-1.022.093c-.046,0-.108,0-.134.024-.078.08-.171.064-.264.067a1.046,1.046,0,0,0-.482.075.684.684,0,0,1-.364.053,1.438,1.438,0,0,0-.454.037,2.746,2.746,0,0,1-.506.072,6.226,6.226,0,0,1-1.044.1.059.059,0,0,0-.044.012c-.124.124-.282.066-.426.081-.069.007-.161-.01-.2.028a.392.392,0,0,1-.289.066,1.1,1.1,0,0,0-.351.016,2.1,2.1,0,0,1-.8.125,1.052,1.052,0,0,0-.183.029l-.317.064c-.045.009-.109,0-.135.023a.353.353,0,0,1-.312.068c-.332-.024-.641.154-.974.1a.029.029,0,0,0-.022.007c-.108.11-.246.081-.377.086a.218.218,0,0,0-.131.032c-.073.07-.159.052-.243.06-.205.02-.425-.055-.613.091-.02.016-.062,0-.093.007l-.276.037a2.141,2.141,0,0,0-.389.058c-.238.08-.506-.022-.729.127a1.923,1.923,0,0,0-.658.1c-.073.023-.15.035-.225.051s-.135.029-.2.04l-.642.1c-.069.011-.136.03-.2.039-.184.027-.368.05-.553.076a.921.921,0,0,0-.318.053.511.511,0,0,1-.267.06c-.142,0-.284,0-.426,0-.054,0-.127-.006-.157.025-.094.1-.207.05-.311.07s-.217.068-.327.091-.23.032-.345.048c-.135.02-.268.09-.409.007-.031-.018-.089.012-.134.018a3.757,3.757,0,0,0-.758.115.069.069,0,0,1-.047,0c-.294-.126-.585.027-.878.009a.084.084,0,0,0-.064.023.34.34,0,0,1-.317.112.189.189,0,0,0-.109.03,1.715,1.715,0,0,0-.473.44c-.1.154-.108.35-.239.485-.07.073-.061.174-.1.253a2.036,2.036,0,0,0-.09.737c0,.042-.047.08-.057.123s-.036.134-.011.175a.776.776,0,0,1,.072.434c0,.338,0,.677.005,1.015a.392.392,0,0,0,.048.2.23.23,0,0,1,.018.22.478.478,0,0,0,0,.177,1.391,1.391,0,0,1,.024.183,6.561,6.561,0,0,1,0,.88c-.054.282.12.526.146.795.1.072.054.257.218.279q0,.114,0,.228a.121.121,0,0,0-.007.185.27.27,0,0,1,.061.241.9.9,0,0,0,.141.524,1.074,1.074,0,0,1,.1.374,1.609,1.609,0,0,0,.153.6,4.758,4.758,0,0,0,.466.651.286.286,0,0,1,.059.317c-.036.089-.058.183-.083.266a.265.265,0,0,0,.325.055,1.265,1.265,0,0,1,1.148.121s0,.015.005.022h.9a.284.284,0,0,1,.426,0h.095c.056-.034.114-.1.168-.1a2.739,2.739,0,0,0,.832-.1.183.183,0,0,1,.024,0,1.4,1.4,0,0,0,.457-.066.93.93,0,0,1,.383-.073c.186-.015.372-.03.558-.05a.95.95,0,0,0,.385-.064.769.769,0,0,1,.407-.074,1.044,1.044,0,0,0,.211-.013,2.365,2.365,0,0,1,.693-.086,1.04,1.04,0,0,0,.25-.045c.255-.06.506-.138.764-.18.306-.049.618-.068.927-.1.03,0,.07-.007.086-.026.067-.078.154-.065.24-.066.047,0,.111.017.139-.007.173-.145.376-.069.566-.09.062-.007.144.01.181-.023a.4.4,0,0,1,.288-.072c.144-.008.3.04.424-.083.021-.021.076-.005.114-.01a.963.963,0,0,0,.342-.052,1.209,1.209,0,0,1,.592-.085c.055,0,.111,0,.166,0,.038,0,.09,0,.112-.022.091-.093.2-.067.311-.072s.246.033.324-.018a.793.793,0,0,1,.43-.079c.054,0,.128.01.159-.019.1-.1.219-.071.334-.074a.968.968,0,0,0,.305-.01,5.725,5.725,0,0,1,.958-.178c.167-.034.346-.016.511-.055a2.772,2.772,0,0,1,.716-.087c.063,0,.147.02.184-.012.131-.113.282-.073.427-.085a.433.433,0,0,0,.134-.029,1.383,1.383,0,0,1,.639-.158c.181.011.362,0,.544,0a.673.673,0,0,0,.185-.022,1.822,1.822,0,0,1,.726-.081.846.846,0,0,0,.433-.06.769.769,0,0,1,.337-.068c.142,0,.284,0,.426,0,.079,0,.14-.017.158-.1l.1,0c.019.079.081.06.133.055a3.149,3.149,0,0,1,.37-.038c.159,0,.316-.1.478-.011.015.008.051-.029.08-.039a.685.685,0,0,1,.175-.047c.149-.007.3,0,.449-.006.046,0,.109.009.136-.017.1-.1.22-.062.334-.071a2.338,2.338,0,0,0,.9-.093c.044-.022.109,0,.164,0q.374-.023.747-.05c.2-.014.4-.033.606-.043.142-.007.284,0,.425-.006a.4.4,0,0,0,.18-.037.583.583,0,0,1,.615-.029c.175-.029.3-.055.427-.07a1.592,1.592,0,0,1,.212,0,.121.121,0,0,0,.135-.1l.1-.007q.685.006,1.369.012a.131.131,0,0,0,.088-.022c.082-.091.188-.068.288-.069.221,0,.442,0,.662-.005.16-.005.331.049.472-.082.018-.017.061-.008.092-.008.174,0,.347,0,.521,0a2.005,2.005,0,0,0,.535-.037,2.785,2.785,0,0,1,.493-.044c.331-.046.672,0,1.006-.058.152-.028.308-.032.463-.049a2.138,2.138,0,0,1,.371-.039c.294.022.584-.06.878-.017.019,0,.04-.021.061-.026a1.039,1.039,0,0,1,.22-.052c.22-.008.441,0,.662-.006a1.049,1.049,0,0,0,.3-.014.541.541,0,0,1,.269,0c.087.012.185-.052.279-.076a.5.5,0,0,1,.118,0l1.23,0c.063,0,.14.017.185-.012a.931.931,0,0,1,.527-.08c.252-.005.5,0,.757,0,.129,0,.268.039.38-.074.018-.019.073,0,.111,0a.91.91,0,0,0,.133.018c.1-.007.2-.023.3-.033.163-.016.325-.03.488-.044a5.684,5.684,0,0,1,.605-.048c.2,0,.4,0,.6-.005a1.7,1.7,0,0,0,.33-.006,1.36,1.36,0,0,1,.648,0,.5.5,0,0,0,.23-.021,3,3,0,0,1,.583-.066c.32-.018.641-.031.962-.048a.25.25,0,0,0,.111-.029.577.577,0,0,1,.318-.06c.2,0,.394,0,.591,0,.092,0,.184.037.275.035.171,0,.341-.027.512-.038.1-.007.2,0,.306-.013.2-.023.4-.068.6-.077.323-.014.646-.005.97-.006a1.274,1.274,0,0,0,.554-.071.525.525,0,0,1,.209-.02c.615,0,1.23,0,1.845-.009a2.861,2.861,0,0,0,.53-.067.261.261,0,0,1,.241.031.234.234,0,0,0,.147.014c.193-.02.385-.057.578-.064.291-.012.584-.012.875,0s.57-.04.857-.008c.151.017.31-.042.464-.033.223.013.444-.124.666-.008.189-.089.4.043.585-.048l2.025-.042c.134,0,.268,0,.4,0a.416.416,0,0,0,.18-.034.455.455,0,0,1,.407-.01.362.362,0,0,0,.269.018.53.53,0,0,1,.3,0,.374.374,0,0,0,.292-.02.464.464,0,0,1,.156-.044c.2-.023.4.031.6.006a4.627,4.627,0,0,1,.464.029.874.874,0,0,0,.409-.063.724.724,0,0,1,.334-.071c.27-.027.536.026.809.011.653-.035,1.308-.012,1.963-.012.085,0,.177-.017.239.066l.886.007c.16-.136.343-.057.518-.057h.223a2.2,2.2,0,0,1,.582.017,1.438,1.438,0,0,0,.335.063c.122.006.25-.03.359.072a.182.182,0,0,0,.154,0,3.524,3.524,0,0,1,1.121-.071.15.15,0,0,1,.088.025.357.357,0,0,0,.373,0,.46.46,0,0,1,.451.035.389.389,0,0,0,.352.055.371.371,0,0,1,.2.01.839.839,0,0,0,.584.061.283.283,0,0,1,.117,0c.115.013.23.034.345.041a5.46,5.46,0,0,1,1.078.05.373.373,0,0,0,.211,0,2.253,2.253,0,0,1,.7-.042.459.459,0,0,1,.132.035,1.012,1.012,0,0,0,.218.056,3.815,3.815,0,0,0,.807.1c.029,0,.063.042.1.056a.285.285,0,0,0,.326-.031c.135-.115.2-.1.349,0a.379.379,0,0,0,.168.062c.193.02.388.031.582.044a.2.2,0,0,0,.069-.009c.138-.04.288-.046.389-.182a.258.258,0,0,1,.287-.008l.032.144a.219.219,0,0,0,.282-.119.578.578,0,0,1,.245-.351.127.127,0,0,0,.042-.082c.018-.159.076-.322-.045-.469-.021-.026-.018-.071-.03-.121.131-.016.263-.015.337-.138a.332.332,0,0,1,.221-.188c.045-.01.086-.1.1-.165a2.007,2.007,0,0,0,.049-.7.769.769,0,0,1,.157-.523c.13-.181.117-.233-.051-.381a.7.7,0,0,1,.17-.646.281.281,0,0,0,.048-.288.68.68,0,0,1-.011-.2c0-.054.015-.107.013-.16,0-.1-.016-.19-.025-.285-.025-.1-.121-.076-.2-.081-.161-.01-.173-.022-.183-.175,0-.075-.011-.15-.017-.223.1-.064.211-.123.308-.2s.176-.147.095-.3a.362.362,0,0,1,0-.277.7.7,0,0,0-.007-.476c-.035-.131-.09-.256-.147-.416.173.031.177-.113.184-.2a.354.354,0,0,1,.235-.335A.232.232,0,0,0,1020.686,402.841Zm-60.16,6.266a.277.277,0,0,0,.111-.2.3.3,0,0,0-.022-.047.3.3,0,0,1,.022.047A.277.277,0,0,1,960.526,409.107Zm59.373-1.246c-.065.17-.224.212-.334.3-.056.046-.15.015-.195-.074-.035-.07-.081-.136-.141-.234l.107-.188.18.133.137-.109Zm-35.97-6.99c.009-.094.072-.11.149-.11h.4a2.2,2.2,0,0,0,.666-.086.447.447,0,0,1,.187,0c.083.012.118.066.1.184-.219-.025-.419.027-.628.009a1.983,1.983,0,0,0-.595.066A.305.305,0,0,1,983.929,400.871Zm-2.964.174c.106-.167.18-.036.255-.049s.1-.121.2-.076a.6.6,0,0,0,.246,0c.031,0,.061-.014.091-.014h1.02c-.084.2-.256.157-.388.137a.642.642,0,0,0-.266.009,5.2,5.2,0,0,1-.828,0C981.2,401.053,981.1,401.045,980.966,401.045Zm25.157-.848c.01-.121.073-.158.146-.139a2.175,2.175,0,0,0,.474,0c.072,0,.142,0,.186.121A1.372,1.372,0,0,1,1006.122,400.2Zm-.81-.023c.072-.029.16-.068.252-.1a.24.24,0,0,1,.136-.013c.107.034.21.081.315.123C1005.852,400.281,1005.866,400.241,1005.312,400.173Zm-16.174.447a.661.661,0,0,1,.548-.129c.027.093,0,.13-.085.129Zm-5.822.25a.382.382,0,0,1,.421-.087C983.6,400.978,983.534,400.992,983.316,400.871Zm-.192.186-.223-.167.341-.092C983.3,400.945,983.2,400.987,983.124,401.057Zm22.074-.879h-.384l.286-.118Z" transform="translate(-940.693 -400.053)"/></svg>