<svg xmlns="http://www.w3.org/2000/svg" width="160" height="30.029" viewBox="0 0 160 30.029"><defs><style>.a{fill:#ea5b62;}</style></defs><path class="a" d="M1100.679,405.63c-.434-.012-.61-.355-.852-.643a1.222,1.222,0,0,1-.35-1.018,1,1,0,0,0-.364-.864,1.3,1.3,0,0,1-.43-.79,1.931,1.931,0,0,0-.235-.637.476.476,0,0,0-.268-.25c-.188-.032-.406.064-.58.008s-.287-.291-.532-.237a.621.621,0,0,1-.189,0,.924.924,0,0,1-.23-.035,2.829,2.829,0,0,0-1.1-.152c-.107,0-.254.014-.317-.046-.188-.181-.408-.122-.622-.141a5.058,5.058,0,0,1-1.995-.181.46.46,0,0,0-.188-.006c-1.041-.007-2.081-.014-3.122-.017a1.34,1.34,0,0,0-.254.051c.234.4.7.048.9.391a.57.57,0,0,1,.923.217,5.635,5.635,0,0,1-.627,0,4.39,4.39,0,0,0-1.788-.094.488.488,0,0,1-.187-.009c-.215-.027-.429-.072-.645-.083a19.991,19.991,0,0,1-2.917-.1,1,1,0,0,0-.234.012c-.472.024-.944.049-1.416.07-.044,0-.09-.03-.135-.032a.943.943,0,0,0-.309,0,.556.556,0,0,1-.57-.09.336.336,0,0,0-.307-.049c-.286.21-.625.048-.922.161-.133.051-.366.1-.43.03-.263-.28-.588-.212-.883-.187a22.751,22.751,0,0,0-2.471-.021c-.141.028-.3-.077-.454-.073a5.333,5.333,0,0,0-1.021.09,7.219,7.219,0,0,1-1.048.005c-.35.032-.694-.2-1.048-.018-.035.018-.11-.058-.169-.064a3.077,3.077,0,0,0-.326,0l-.282-.018c-.095-.16-.19-.158-.286,0l-.47,0a.223.223,0,0,0-.382,0l-.288.013c-.028-.034-.049-.085-.085-.1-.477-.194-.945.025-1.417.038a4.439,4.439,0,0,1-.5-.009c-.282-.024-.569-.14-.831.07l-.38.03c-.309-.032-.634.061-.923-.13-.038-.025-.124,0-.18.025a2.035,2.035,0,0,1-.916.019c-.39-.019-.8-.261-1.192.031-.062.046-.246-.016-.337-.08a.326.326,0,0,0-.462,0c-.121.113-.233.07-.381.05a2.188,2.188,0,0,0-1.373.086.429.429,0,0,1-.312.046,2.306,2.306,0,0,0-1.306.014.475.475,0,0,0-.443.063.481.481,0,0,1-.3.1,17.194,17.194,0,0,1-1.965.109c-.343-.048-.717.176-1.052-.1-.037-.031-.122-.005-.184,0l-1.173.017c-.095-.127-.189-.129-.282,0l-.19.008a20.281,20.281,0,0,0-2.179,0h-.282c-.242-.015-.488-.045-.662.185l-.285,0a2.888,2.888,0,0,1-.494.071c-.215-.005-.428-.075-.642-.078-.693-.008-1.385-.006-2.077.009-.262.006-.525.091-.784.08-.3-.012-.6-.158-.9.005-.237-.141-.489.066-.716-.019a1.071,1.071,0,0,0-.774-.008.57.57,0,0,1-.37.018,4.847,4.847,0,0,0-1.7-.084c-.136-.007-.258,0-.262.18l-.175.025h-.382l-.189-.015c-.12-.182-.251-.11-.4-.03a.649.649,0,0,1-.337.109,4.162,4.162,0,0,0-1.4.1.592.592,0,0,1-.485-.08.538.538,0,0,0-.773.116l-.2.009c-.56-.008-1.12-.018-1.679-.022a.429.429,0,0,0-.219.054,1.3,1.3,0,0,1-.719.127c-.17,0-.341.017-.511.027l-.2-.009c-.156-.156-.352-.293-.548-.143a.841.841,0,0,1-.525.127q-.647.045-1.292.1c-.028,0-.05.067-.075.1l-.2.021c-.089-.027-.2-.029-.262-.086-.259-.244-.5-.154-.771.018l-.226-.292c.111-.063.211-.165.27-.145a2.174,2.174,0,0,0,.867-.034c.578-.031,1.171.245,1.739-.08.082-.047.217,0,.327,0,.268,0,.536,0,.8-.006.225-.005.3-.122.242-.359-.487,0-.957,0-1.426,0a1.526,1.526,0,0,0-.417.039,4.366,4.366,0,0,1-1.216.142c-.615.007-1.229,0-1.844.008a1.619,1.619,0,0,0-.249.04l-.02.087.692.353a.783.783,0,0,1-.172.085c-.425.076-.851.147-1.278.22l-1.037.063a3.783,3.783,0,0,0-.471.015c-.047.007-.081.1-.121.157l-.545.012a.309.309,0,0,0-.473,0l-.661.009h-.191l-.283-.011a.638.638,0,0,0-.873.181l-.739.019a.429.429,0,0,0-.573-.03l-.271.006a.585.585,0,0,0-.671.006l-.185.019a7.251,7.251,0,0,0-1.8.081,1.024,1.024,0,0,0-.287.184v0c-.145.018-.368.1-.422.041-.133-.154-.277-.115-.425-.121-.183-.007-.366,0-.531,0-.073-.239.017-.333.174-.374s.336-.06.5-.11a1.231,1.231,0,0,0,.258-.158.611.611,0,0,0-.585-.2c-.588.06-1.175.153-1.763.168-1.292.031-2.585.019-3.878.03-.213,0-.435-.043-.625.134-.052.049-.2.012-.3-.012-.265-.064-.523-.229-.781.037-.049.05-.181.025-.274.027-.252,0-.505-.011-.757.006-.365.025-.756-.107-1.086.173-.047.04-.153.011-.232.012a35.018,35.018,0,0,0-4.175.171c-.813.108-1.645.074-2.468.2a18.156,18.156,0,0,1-2.064.1c-.284.01-.568,0-.851.009-.107,0-.248-.009-.314.051a.7.7,0,0,1-.533.127c-.268,0-.536,0-.8,0s-.536,0-.8.024c-.415.043-.827.127-1.242.162a8.251,8.251,0,0,1-.993.005c-.334-.012-.667.153-1,.009a.2.2,0,0,0-.178.025c-.2.216-.466.149-.71.154-.426.008-.851,0-1.277.008-.093,0-.223-.024-.273.026-.226.223-.5.148-.759.154a14.018,14.018,0,0,0-1.51.037,6.678,6.678,0,0,1-1.435.153c-.386-.032-.765.135-1.151.017-.043-.013-.109.046-.163.074a.692.692,0,0,1-.2.1c-.372.037-.746.061-1.119.09s-.756-.093-1.087.175c-.039.032-.124.02-.185.01-.524-.08-1.044.176-1.571.018a.263.263,0,0,0-.222.039c-.182.19-.409.128-.623.138a3.19,3.19,0,0,0-.564.026,5.524,5.524,0,0,1-1.431.172,1.206,1.206,0,0,0-.377.006,6.908,6.908,0,0,1-2.044.185c-.091,0-.215-.006-.267.047-.157.16-.341.128-.529.134a2.092,2.092,0,0,0-.963.15,1.368,1.368,0,0,1-.727.106,2.876,2.876,0,0,0-.907.074,5.492,5.492,0,0,1-1.012.143,12.452,12.452,0,0,1-2.087.194.118.118,0,0,0-.088.023c-.248.249-.563.132-.851.162-.138.014-.321-.019-.406.056a.784.784,0,0,1-.578.132,2.2,2.2,0,0,0-.7.031,4.2,4.2,0,0,1-1.6.25,2.1,2.1,0,0,0-.365.058c-.212.041-.423.087-.635.127-.091.017-.217-.006-.27.046a.706.706,0,0,1-.623.135c-.663-.048-1.281.309-1.949.207a.057.057,0,0,0-.043.013c-.215.219-.492.161-.755.172a.437.437,0,0,0-.263.064c-.147.141-.317.1-.486.12-.411.04-.85-.109-1.227.182-.041.032-.124.006-.186.014-.184.023-.368.049-.552.075a4.281,4.281,0,0,0-.778.116c-.476.16-1.012-.045-1.459.254a3.845,3.845,0,0,0-1.315.21c-.146.046-.3.07-.45.1-.135.028-.27.058-.406.08-.428.07-.857.136-1.284.206-.137.022-.272.059-.409.079-.368.054-.737.1-1.105.152a1.842,1.842,0,0,0-.635.107,1.022,1.022,0,0,1-.535.121c-.284,0-.568,0-.851.007-.107,0-.254-.011-.314.05-.187.19-.415.1-.622.14s-.433.135-.655.181-.46.064-.69.1c-.271.039-.535.179-.818.014-.061-.036-.177.023-.269.035a7.513,7.513,0,0,0-1.516.23.139.139,0,0,1-.093,0c-.588-.252-1.17.055-1.756.018a.169.169,0,0,0-.127.047.681.681,0,0,1-.635.224.377.377,0,0,0-.219.061,3.43,3.43,0,0,0-.945.881c-.2.308-.217.7-.478.971-.141.146-.122.348-.193.505a4.072,4.072,0,0,0-.181,1.474c-.006.084-.094.16-.114.247-.026.115-.072.267-.022.349a1.553,1.553,0,0,1,.144.867c0,.677,0,1.353.01,2.029a.783.783,0,0,0,.1.393.461.461,0,0,1,.035.44.957.957,0,0,0,0,.354,2.783,2.783,0,0,1,.048.367,13.123,13.123,0,0,1,.008,1.761c-.108.565.24,1.051.291,1.59.2.144.107.515.436.558q0,.227,0,.455a.241.241,0,0,0-.014.37.54.54,0,0,1,.122.482,1.793,1.793,0,0,0,.282,1.048,2.148,2.148,0,0,1,.2.749,3.218,3.218,0,0,0,.306,1.194,9.516,9.516,0,0,0,.933,1.3.573.573,0,0,1,.119.634c-.073.177-.116.366-.167.533a.531.531,0,0,0,.651.109,2.529,2.529,0,0,1,2.3.241c.008,0,.007.029.011.045h1.8a.568.568,0,0,1,.852,0h.189c.112-.069.227-.2.336-.2a5.479,5.479,0,0,0,1.665-.2.367.367,0,0,1,.047,0,2.8,2.8,0,0,0,.915-.131,1.861,1.861,0,0,1,.765-.147c.372-.031.744-.06,1.115-.1a1.9,1.9,0,0,0,.77-.129,1.538,1.538,0,0,1,.813-.148,2.087,2.087,0,0,0,.421-.026,4.731,4.731,0,0,1,1.386-.172,2.08,2.08,0,0,0,.5-.09c.51-.12,1.013-.276,1.528-.36.612-.1,1.235-.136,1.853-.2.06-.007.14-.014.173-.053.134-.156.309-.131.48-.132.094,0,.222.033.278-.014.346-.29.753-.138,1.131-.181.124-.014.289.02.362-.047a.8.8,0,0,1,.576-.144c.289-.016.6.079.848-.167.042-.041.151-.011.229-.02a1.927,1.927,0,0,0,.685-.1,2.419,2.419,0,0,1,1.184-.171c.11-.005.221,0,.331-.008.077-.006.179,0,.224-.043.182-.186.407-.135.623-.143s.492.067.648-.036a1.586,1.586,0,0,1,.859-.158c.108-.008.255.02.317-.038.2-.191.438-.141.668-.147a1.936,1.936,0,0,0,.611-.019,11.45,11.45,0,0,1,1.917-.356c.334-.069.691-.031,1.022-.11a5.544,5.544,0,0,1,1.432-.174c.125,0,.293.04.368-.025.262-.226.564-.146.854-.17a.865.865,0,0,0,.268-.057,2.767,2.767,0,0,1,1.278-.316c.361.022.725,0,1.087,0a1.346,1.346,0,0,0,.369-.044,3.643,3.643,0,0,1,1.453-.163,1.692,1.692,0,0,0,.866-.121,1.538,1.538,0,0,1,.674-.136c.283-.008.568-.007.851,0,.158,0,.281-.033.316-.209l.208-.007c.038.158.163.119.266.11a6.3,6.3,0,0,1,.74-.076c.319.008.632-.2.956-.022.03.016.1-.058.16-.077a1.37,1.37,0,0,1,.35-.093c.3-.015.6-.006.9-.011.093,0,.219.017.272-.033.2-.191.44-.124.669-.143a4.676,4.676,0,0,0,1.806-.186c.089-.044.218,0,.328-.009q.747-.047,1.494-.1c.4-.028.807-.066,1.212-.087.283-.014.567,0,.85-.012a.8.8,0,0,0,.359-.074,1.167,1.167,0,0,1,1.231-.058c.35-.059.6-.109.855-.14a3.184,3.184,0,0,1,.425,0,.242.242,0,0,0,.27-.206l.2-.013q1.369.012,2.739.023a.261.261,0,0,0,.176-.044c.163-.182.375-.136.575-.139.441-.006.883,0,1.324-.011.32-.01.663.1.945-.163.036-.033.122-.017.184-.017.347,0,.694.005,1.041,0a4.01,4.01,0,0,0,1.069-.074,5.571,5.571,0,0,1,.985-.088c.662-.092,1.343.009,2.012-.116.3-.057.617-.065.925-.1a4.276,4.276,0,0,1,.741-.078c.587.043,1.168-.119,1.755-.034.037.005.079-.041.122-.052a2.078,2.078,0,0,1,.44-.1c.441-.016.883-.008,1.324-.013a2.1,2.1,0,0,0,.609-.028,1.081,1.081,0,0,1,.537,0c.175.025.369-.1.558-.152a1,1,0,0,1,.236,0q1.23,0,2.46-.006c.125,0,.28.034.371-.024a1.863,1.863,0,0,1,1.055-.16c.5-.01,1.009,0,1.514-.01.259,0,.536.077.759-.149.037-.037.146-.009.221,0a1.819,1.819,0,0,0,.266.037c.2-.013.4-.046.6-.066.325-.032.651-.06.976-.088a11.368,11.368,0,0,1,1.21-.1c.4.008.795,0,1.192-.01a3.391,3.391,0,0,0,.66-.012,2.72,2.72,0,0,1,1.3,0,.993.993,0,0,0,.459-.042,5.992,5.992,0,0,1,1.166-.133c.641-.036,1.282-.061,1.924-.1a.5.5,0,0,0,.222-.058,1.154,1.154,0,0,1,.637-.119c.394.006.789-.009,1.182,0,.184.005.367.074.549.069.342-.009.682-.053,1.024-.077.2-.014.409,0,.611-.026.4-.045.8-.136,1.2-.153.646-.027,1.293-.01,1.939-.012a2.549,2.549,0,0,0,1.107-.143,1.05,1.05,0,0,1,.417-.039c1.23-.006,2.46,0,3.69-.018a5.723,5.723,0,0,0,1.059-.133.521.521,0,0,1,.483.063.469.469,0,0,0,.295.028c.385-.039.769-.113,1.155-.129.583-.024,1.167-.023,1.75-.007s1.139-.08,1.715-.015c.3.034.621-.083.928-.065.447.027.887-.249,1.333-.017.378-.178.792.087,1.17-.1q2.025-.042,4.051-.084c.268-.005.536,0,.8-.009a.831.831,0,0,0,.36-.068.911.911,0,0,1,.813-.02.724.724,0,0,0,.538.036,1.059,1.059,0,0,1,.6.006.749.749,0,0,0,.585-.04.927.927,0,0,1,.311-.088c.4-.045.8.062,1.2.013a9.254,9.254,0,0,1,.927.058,1.748,1.748,0,0,0,.818-.126,1.448,1.448,0,0,1,.668-.141c.539-.054,1.072.052,1.618.022,1.305-.069,2.617-.024,3.925-.024.171,0,.353-.035.478.132l1.772.013c.319-.271.686-.114,1.036-.114.148,0,.3,0,.446,0a4.406,4.406,0,0,1,1.165.034,2.876,2.876,0,0,0,.669.126c.244.012.5-.061.717.144a.364.364,0,0,0,.307.007,7.047,7.047,0,0,1,2.242-.142.3.3,0,0,1,.177.049.713.713,0,0,0,.746,0,.921.921,0,0,1,.9.071.778.778,0,0,0,.7.11.742.742,0,0,1,.4.019,1.677,1.677,0,0,0,1.168.122.567.567,0,0,1,.234,0c.23.025.46.068.691.083a10.921,10.921,0,0,1,2.157.1.746.746,0,0,0,.422-.007,4.505,4.505,0,0,1,1.4-.084.918.918,0,0,1,.265.069,2.024,2.024,0,0,0,.437.112,7.631,7.631,0,0,0,1.615.206c.057-.01.127.084.2.112a.571.571,0,0,0,.652-.062c.269-.231.394-.209.7,0a.759.759,0,0,0,.335.124c.387.04.776.063,1.164.089a.4.4,0,0,0,.137-.019c.277-.08.576-.092.777-.363a.516.516,0,0,1,.574-.017l.063.288a.439.439,0,0,0,.565-.238,1.156,1.156,0,0,1,.489-.7.254.254,0,0,0,.083-.164c.035-.318.153-.643-.091-.939-.042-.051-.037-.142-.06-.242.263-.032.527-.03.674-.276a.664.664,0,0,1,.442-.376c.091-.02.173-.205.208-.33a4.015,4.015,0,0,0,.1-1.394,1.538,1.538,0,0,1,.314-1.047c.259-.363.233-.466-.1-.761a1.407,1.407,0,0,1,.339-1.293.562.562,0,0,0,.1-.575,1.359,1.359,0,0,1-.022-.4c0-.107.031-.214.026-.321-.008-.19-.032-.38-.05-.57-.051-.21-.242-.152-.408-.163-.323-.021-.347-.043-.365-.349-.009-.15-.023-.3-.034-.445.2-.128.422-.246.616-.4s.352-.294.189-.593a.724.724,0,0,1-.005-.554,1.406,1.406,0,0,0-.014-.952c-.07-.262-.179-.513-.293-.831.346.061.354-.225.367-.408a.708.708,0,0,1,.47-.671A.464.464,0,0,0,1100.679,405.63Zm-120.32,12.531a.555.555,0,0,0,.222-.393.607.607,0,0,0-.044-.094.6.6,0,0,1,.044.095A.555.555,0,0,1,980.359,418.161Zm118.746-2.491c-.13.34-.448.425-.668.606-.112.092-.3.03-.389-.148-.071-.141-.162-.272-.281-.469l.214-.376.36.266.273-.217Zm-71.94-13.981c.019-.188.145-.221.3-.221.267,0,.534,0,.8,0a4.4,4.4,0,0,0,1.331-.172.9.9,0,0,1,.374-.006c.166.023.236.132.2.368-.438-.05-.837.054-1.256.018a3.967,3.967,0,0,0-1.189.132A.61.61,0,0,1,1027.166,401.689Zm-5.928.348c.212-.335.359-.072.51-.1s.194-.243.408-.152a1.208,1.208,0,0,0,.491-.009c.061,0,.121-.029.183-.029.674,0,1.347,0,2.039,0-.168.409-.512.315-.776.274a1.284,1.284,0,0,0-.532.018,10.4,10.4,0,0,1-1.656-.006C1021.709,402.053,1021.509,402.036,1021.238,402.036Zm50.313-1.7c.019-.243.146-.316.293-.277a4.349,4.349,0,0,0,.949-.008c.143.007.284,0,.371.243A2.744,2.744,0,0,1,1071.551,400.34Zm-1.621-.047c.143-.057.32-.136.5-.2a.479.479,0,0,1,.272-.026c.214.067.42.162.631.247C1071.01,400.509,1071.039,400.428,1069.931,400.293Zm-32.348.895a1.322,1.322,0,0,1,1.1-.258c.054.186-.006.259-.171.258C1038.215,401.187,1037.921,401.188,1037.583,401.188Zm-11.644.5a.765.765,0,0,1,.843-.174C1026.509,401.9,1026.374,401.93,1025.939,401.688Zm-.384.372-.445-.334.681-.185C1025.908,401.837,1025.7,401.921,1025.555,402.06ZM1069.7,400.3h-.769l.572-.236Z" transform="translate(-940.693 -400.053)"/></svg>