<svg xmlns="http://www.w3.org/2000/svg" width="195.176" height="39.141" viewBox="0 0 195.176 39.141"><defs><style>.a,.b{fill:#292929;}.b{fill-rule:evenodd;}</style></defs><g transform="translate(-241.218 -777.125)"><path class="a" d="M295.852,787.7l-2.8-4.577a.549.549,0,0,0-.935,0l-1.46,2.375-3.966-8.066a.537.537,0,0,0-.491-.305.547.547,0,0,0-.492.3l-4.625,9.333-.763-1.461a.548.548,0,0,0-.975,0L278.3,787.36l-.067-.112a.549.549,0,0,0-.918-.034l-.722,1.021a.54.54,0,0,0-.1.311v.427a.548.548,0,0,0,1,.314l.216-.305.178.3a.546.546,0,0,0,.474.266h.017a.546.546,0,0,0,.469-.3l1-1.966.774,1.48a.545.545,0,0,0,.488.294.539.539,0,0,0,.488-.3l4.6-9.288,3.89,7.913a.549.549,0,0,0,.96.047l1.538-2.5,2.333,3.81a.548.548,0,0,0,1.016-.282v-.469A.54.54,0,0,0,295.852,787.7Z" transform="translate(-30.569)"/><g transform="translate(241.218 791.239)"><path class="b" d="M296.58,904.192a6.216,6.216,0,0,0,.666.034h.662a2.641,2.641,0,0,0,1.558-.454,2.194,2.194,0,0,0,.647-1.887V883.215h3.841V901.6a8.625,8.625,0,0,1-.454,3.044,4.678,4.678,0,0,1-1.221,1.872,4.431,4.431,0,0,1-1.766.96,7.717,7.717,0,0,1-2.08.28h-.945a6.064,6.064,0,0,1-.908-.072Zm-9.509-4.269,0,0h3.709l-1.853-12.372Zm8.776,7.762,0,0h-3.879l-.665-4.435h-4.719l-.665,4.435H282.39l3.913-24.471h5.63Zm-23.942-17.722,0,0v17.722h-3.46V883.215h4.821l3.951,14.648V883.215h3.422v24.471h-3.947Zm-13.665,9.612,0,0-4.862-16.361H257.4l2.934,11.154,2.938-11.154h3.668l-4.859,16.361v8.11H258.24Zm-16.92-10.489,0,0a6.627,6.627,0,0,1,1.418-4.56,6.471,6.471,0,0,1,8.492,0,6.646,6.646,0,0,1,1.414,4.56v.775h-3.634v-1.017a2.732,2.732,0,0,0-.507-1.872,2.125,2.125,0,0,0-2.832,0,2.732,2.732,0,0,0-.507,1.872,4.311,4.311,0,0,0,.56,2.219,9.094,9.094,0,0,0,1.4,1.819q.834.856,1.8,1.713a17.563,17.563,0,0,1,1.8,1.868,9.639,9.639,0,0,1,1.4,2.306,7.612,7.612,0,0,1,.56,3.048,6.555,6.555,0,0,1-1.448,4.56,6.567,6.567,0,0,1-8.564,0,6.537,6.537,0,0,1-1.448-4.56v-1.509h3.634v1.751a2.539,2.539,0,0,0,.541,1.853,2.263,2.263,0,0,0,2.9,0,2.523,2.523,0,0,0,.541-1.853,4.362,4.362,0,0,0-.556-2.223,9.324,9.324,0,0,0-1.4-1.815q-.839-.857-1.8-1.713a16.912,16.912,0,0,1-1.8-1.872,9.512,9.512,0,0,1-1.4-2.306A7.66,7.66,0,0,1,241.32,889.087Z" transform="translate(-241.218 -882.939)"/><path class="a" d="M754.263,892.774l-2.256-8.173-.012-.036q0-.1.12-.1h.972a.123.123,0,0,1,.132.108l1.572,5.977c.008.016.018.024.03.024s.022-.008.03-.024l1.488-5.977a.123.123,0,0,1,.132-.108h.948a.123.123,0,0,1,.132.108l1.572,5.989c.008.016.016.024.024.024s.016-.008.024-.024l1.584-5.989a.123.123,0,0,1,.132-.108h.912a.1.1,0,0,1,.108.132l-2.172,8.161a.124.124,0,0,1-.132.108h-.924a.123.123,0,0,1-.132-.108l-1.572-6.193c-.008-.024-.016-.036-.024-.036s-.016.012-.024.036l-1.524,6.193a.115.115,0,0,1-.132.108H754.4A.121.121,0,0,1,754.263,892.774Z" transform="translate(-683.863 -884.265)"/><path class="a" d="M829.864,910.031v-.708a.106.106,0,0,1,.12-.12h.024a2.3,2.3,0,0,0,.756-.12.935.935,0,0,0,.456-.4,3.734,3.734,0,0,0,.348-.882c.008-.008.008-.032,0-.072l-2-5.941-.012-.048c0-.056.036-.084.108-.084h.972a.14.14,0,0,1,.144.1l1.356,4.524a.038.038,0,0,0,.036.024.039.039,0,0,0,.036-.024l1.344-4.524a.14.14,0,0,1,.144-.1h.948q.132,0,.1.132l-2.184,6.4a5.137,5.137,0,0,1-.552,1.23,1.506,1.506,0,0,1-.72.57,3.669,3.669,0,0,1-1.248.168h-.084C829.892,910.151,829.864,910.111,829.864,910.031Z" transform="translate(-751.075 -899.158)"/><path class="a" d="M877.538,884.469h.912a.106.106,0,0,1,.12.12v8.161a.106.106,0,0,1-.12.12h-.912a.106.106,0,0,1-.12-.12v-.4a.041.041,0,0,0-.018-.036c-.012-.008-.026,0-.042.012a1.885,1.885,0,0,1-.624.468,1.825,1.825,0,0,1-.78.168,2.329,2.329,0,0,1-1.434-.426,2.424,2.424,0,0,1-.834-1.206,4.571,4.571,0,0,1-.228-1.536,4.871,4.871,0,0,1,.192-1.452,2.446,2.446,0,0,1,.828-1.236,2.35,2.35,0,0,1,1.476-.444,1.891,1.891,0,0,1,.774.162,1.8,1.8,0,0,1,.63.462c.016.016.03.02.042.012a.04.04,0,0,0,.018-.036v-2.676A.106.106,0,0,1,877.538,884.469Zm-.144,5.34a3.168,3.168,0,0,0-.3-1.536,1.11,1.11,0,0,0-1.02-.612,1.162,1.162,0,0,0-1.068.576,2.9,2.9,0,0,0-.384,1.584,3.17,3.17,0,0,0,.3,1.488,1.192,1.192,0,0,0,1.14.66,1.145,1.145,0,0,0,1.056-.648A3.243,3.243,0,0,0,877.394,889.809Z" transform="translate(-789.125 -884.265)"/><path class="a" d="M920.873,907.642v-.84a.224.224,0,0,1,.048-.144l3.181-3.888c.016-.016.02-.03.012-.042a.041.041,0,0,0-.036-.018h-3.024a.106.106,0,0,1-.12-.12v-.816a.106.106,0,0,1,.12-.12h4.333a.106.106,0,0,1,.12.12v.852a.223.223,0,0,1-.048.144l-3.228,3.888c-.016.016-.02.03-.012.042a.04.04,0,0,0,.036.018H925.4a.106.106,0,0,1,.12.12v.8a.106.106,0,0,1-.12.12h-4.4A.106.106,0,0,1,920.873,907.642Z" transform="translate(-830.215 -899.158)"/><path class="a" d="M964.724,884.259a.814.814,0,1,1,.552.216A.748.748,0,0,1,964.724,884.259Zm-.048,7.153v-5.857a.106.106,0,0,1,.12-.12h.912a.106.106,0,0,1,.12.12v5.857a.106.106,0,0,1-.12.12H964.8A.106.106,0,0,1,964.676,891.412Z" transform="translate(-868.03 -882.939)"/><path class="a" d="M989.005,901.191a1.959,1.959,0,0,1,.84.72,1.915,1.915,0,0,1,.294,1.05v4.056a.106.106,0,0,1-.12.12h-.912a.106.106,0,0,1-.12-.12v-.432c0-.04-.02-.048-.06-.024a2.086,2.086,0,0,1-.762.5,2.763,2.763,0,0,1-1,.174,2.332,2.332,0,0,1-1.47-.45,1.614,1.614,0,0,1-.582-1.362,1.794,1.794,0,0,1,.654-1.47,2.819,2.819,0,0,1,1.83-.534h1.344a.042.042,0,0,0,.048-.048v-.324a1.087,1.087,0,0,0-.306-.822,1.3,1.3,0,0,0-.93-.294,1.534,1.534,0,0,0-.822.2.816.816,0,0,0-.39.534.127.127,0,0,1-.144.108l-.972-.132c-.08-.016-.116-.048-.108-.1a1.634,1.634,0,0,1,.756-1.158,2.874,2.874,0,0,1,1.656-.45A2.963,2.963,0,0,1,989.005,901.191Zm-.486,4.734a1.012,1.012,0,0,0,.468-.852v-.708a.043.043,0,0,0-.048-.048h-1.128a2.028,2.028,0,0,0-1.128.276.87.87,0,0,0-.42.768.774.774,0,0,0,.318.672,1.4,1.4,0,0,0,.834.228A1.843,1.843,0,0,0,988.52,905.926Z" transform="translate(-885.885 -898.533)"/><path class="a" d="M1034.226,887.961a.118.118,0,0,1-.06.108l-1.38.792a.055.055,0,0,0-.036.06v3.828a.106.106,0,0,1-.12.12h-.912a.106.106,0,0,1-.12-.12v-3.132a.039.039,0,0,0-.06-.036l-.792.456a.133.133,0,0,1-.06.012.117.117,0,0,1-.108-.06l-.288-.54a.13.13,0,0,1-.012-.06.118.118,0,0,1,.06-.108l1.224-.708a.071.071,0,0,0,.036-.06v-3.924a.106.106,0,0,1,.12-.12h.912a.106.106,0,0,1,.12.12v3.216a.04.04,0,0,0,.018.036.039.039,0,0,0,.042,0l.924-.54a.135.135,0,0,1,.06-.012.118.118,0,0,1,.108.06l.312.552A.133.133,0,0,1,1034.226,887.961Z" transform="translate(-925.027 -884.265)"/><path class="a" d="M1087.32,892.75v-8.161a.106.106,0,0,1,.12-.12h2.9a2.91,2.91,0,0,1,1.992.654,2.21,2.21,0,0,1,.744,1.746v3.6a2.209,2.209,0,0,1-.744,1.746,2.909,2.909,0,0,1-1.992.654h-2.9A.106.106,0,0,1,1087.32,892.75Zm1.2-.876h1.872a1.476,1.476,0,0,0,1.11-.426,1.615,1.615,0,0,0,.426-1.146v-3.264a1.574,1.574,0,0,0-.414-1.146,1.493,1.493,0,0,0-1.122-.426h-1.872a.043.043,0,0,0-.048.048v6.313A.042.042,0,0,0,1088.52,891.874Z" transform="translate(-974.46 -884.265)"/><path class="a" d="M1144.064,901.654h.9a.106.106,0,0,1,.12.12v5.869a.106.106,0,0,1-.12.12h-.9a.106.106,0,0,1-.12-.12V907.2a.028.028,0,0,0-.018-.03c-.012,0-.026,0-.042.018a1.7,1.7,0,0,1-1.476.66,2.579,2.579,0,0,1-1.086-.228,1.831,1.831,0,0,1-1.1-1.752v-4.092a.106.106,0,0,1,.12-.12h.9a.106.106,0,0,1,.12.12v3.732a1.4,1.4,0,0,0,.33.984,1.2,1.2,0,0,0,.93.36,1.286,1.286,0,0,0,.96-.366,1.334,1.334,0,0,0,.36-.978v-3.732A.106.106,0,0,1,1144.064,901.654Z" transform="translate(-1020.307 -899.158)"/><path class="a" d="M1188.425,907.228a1.978,1.978,0,0,1-.846-.594,1.31,1.31,0,0,1-.3-.834v-.132a.106.106,0,0,1,.12-.12h.864a.106.106,0,0,1,.12.12v.06a.715.715,0,0,0,.366.588,1.6,1.6,0,0,0,.93.252,1.5,1.5,0,0,0,.876-.234.7.7,0,0,0,.336-.594.562.562,0,0,0-.312-.522,4.925,4.925,0,0,0-1.008-.366,9.383,9.383,0,0,1-1.146-.39,2.125,2.125,0,0,1-.78-.564,1.384,1.384,0,0,1-.318-.942,1.517,1.517,0,0,1,.63-1.278,2.718,2.718,0,0,1,1.674-.474,3.186,3.186,0,0,1,1.23.222,1.875,1.875,0,0,1,.822.618,1.473,1.473,0,0,1,.288.888v.036a.106.106,0,0,1-.12.12h-.84a.106.106,0,0,1-.12-.12v-.036a.688.688,0,0,0-.342-.582,1.936,1.936,0,0,0-1.788-.03.623.623,0,0,0-.33.552.573.573,0,0,0,.318.528,5.085,5.085,0,0,0,1.026.384,11.113,11.113,0,0,1,1.158.378,2.065,2.065,0,0,1,.786.552,1.387,1.387,0,0,1,.324.954,1.535,1.535,0,0,1-.642,1.3,2.789,2.789,0,0,1-1.71.48A3.426,3.426,0,0,1,1188.425,907.228Z" transform="translate(-1061.086 -898.767)"/><path class="a" d="M1229.476,907.642v-.84a.223.223,0,0,1,.048-.144l3.18-3.888c.016-.016.02-.03.012-.042a.041.041,0,0,0-.036-.018h-3.025a.106.106,0,0,1-.12-.12v-.816a.106.106,0,0,1,.12-.12h4.333a.106.106,0,0,1,.12.12v.852a.223.223,0,0,1-.048.144l-3.228,3.888c-.016.016-.02.03-.012.042a.04.04,0,0,0,.036.018H1234a.106.106,0,0,1,.12.12v.8a.106.106,0,0,1-.12.12h-4.4A.106.106,0,0,1,1229.476,907.642Z" transform="translate(-1097.654 -899.158)"/><path class="a" d="M1279.3,904.1a4.878,4.878,0,0,1-.192,1.452,2.413,2.413,0,0,1-.828,1.242,2.369,2.369,0,0,1-1.476.438,1.887,1.887,0,0,1-.774-.162,1.8,1.8,0,0,1-.63-.462c-.016-.016-.03-.02-.042-.012a.041.041,0,0,0-.018.036v2.676a.106.106,0,0,1-.12.12h-.912a.106.106,0,0,1-.12-.12v-8.161a.106.106,0,0,1,.12-.12h.912a.106.106,0,0,1,.12.12v.4a.04.04,0,0,0,.018.036c.012.008.026,0,.042-.012a1.89,1.89,0,0,1,.624-.468,1.824,1.824,0,0,1,.78-.168,2.332,2.332,0,0,1,1.434.426,2.429,2.429,0,0,1,.834,1.206A4.643,4.643,0,0,1,1279.3,904.1Zm-1.164-.024a3.173,3.173,0,0,0-.3-1.488,1.192,1.192,0,0,0-1.14-.66,1.145,1.145,0,0,0-1.056.648,3.17,3.17,0,0,0-.288,1.512,3.058,3.058,0,0,0,.312,1.536,1.11,1.11,0,0,0,1.02.612,1.162,1.162,0,0,0,1.068-.576A2.83,2.83,0,0,0,1278.139,904.077Z" transform="translate(-1136.404 -898.533)"/><path class="a" d="M1324.87,901.191a1.96,1.96,0,0,1,.84.72,1.916,1.916,0,0,1,.294,1.05v4.056a.106.106,0,0,1-.12.12h-.912a.106.106,0,0,1-.12-.12v-.432c0-.04-.02-.048-.06-.024a2.086,2.086,0,0,1-.762.5,2.764,2.764,0,0,1-1,.174,2.332,2.332,0,0,1-1.47-.45,1.614,1.614,0,0,1-.582-1.362,1.794,1.794,0,0,1,.654-1.47,2.819,2.819,0,0,1,1.83-.534h1.344a.042.042,0,0,0,.048-.048v-.324a1.088,1.088,0,0,0-.306-.822,1.3,1.3,0,0,0-.93-.294,1.535,1.535,0,0,0-.822.2.816.816,0,0,0-.39.534.127.127,0,0,1-.144.108l-.972-.132c-.08-.016-.116-.048-.108-.1a1.634,1.634,0,0,1,.756-1.158,2.872,2.872,0,0,1,1.656-.45A2.965,2.965,0,0,1,1324.87,901.191Zm-.486,4.734a1.012,1.012,0,0,0,.468-.852v-.708a.043.043,0,0,0-.048-.048h-1.128a2.029,2.029,0,0,0-1.128.276.87.87,0,0,0-.42.768.774.774,0,0,0,.318.672,1.4,1.4,0,0,0,.834.228A1.843,1.843,0,0,0,1324.384,905.926Z" transform="translate(-1176.949 -898.533)"/><path class="a" d="M1369.538,907.228a1.978,1.978,0,0,1-.846-.594,1.309,1.309,0,0,1-.3-.834v-.132a.106.106,0,0,1,.12-.12h.864a.106.106,0,0,1,.12.12v.06a.714.714,0,0,0,.366.588,1.6,1.6,0,0,0,.93.252,1.5,1.5,0,0,0,.876-.234.7.7,0,0,0,.336-.594.562.562,0,0,0-.312-.522,4.932,4.932,0,0,0-1.008-.366,9.381,9.381,0,0,1-1.146-.39,2.123,2.123,0,0,1-.78-.564,1.384,1.384,0,0,1-.318-.942,1.517,1.517,0,0,1,.63-1.278,2.718,2.718,0,0,1,1.674-.474,3.187,3.187,0,0,1,1.23.222,1.877,1.877,0,0,1,.822.618,1.474,1.474,0,0,1,.288.888v.036a.106.106,0,0,1-.12.12h-.84a.106.106,0,0,1-.12-.12v-.036a.689.689,0,0,0-.342-.582,1.936,1.936,0,0,0-1.788-.03.623.623,0,0,0-.33.552.573.573,0,0,0,.318.528,5.083,5.083,0,0,0,1.026.384,11.126,11.126,0,0,1,1.158.378,2.065,2.065,0,0,1,.786.552,1.386,1.386,0,0,1,.324.954,1.535,1.535,0,0,1-.642,1.3,2.788,2.788,0,0,1-1.71.48A3.425,3.425,0,0,1,1369.538,907.228Z" transform="translate(-1218.04 -898.767)"/><path class="a" d="M1414.027,892.308h-1.3a.042.042,0,0,0-.048.048v3.18a.812.812,0,0,0,.936.948h.348a.106.106,0,0,1,.12.12v.744a.106.106,0,0,1-.12.12q-.384.024-.552.024a2.363,2.363,0,0,1-1.374-.33,1.4,1.4,0,0,1-.462-1.218v-3.588a.042.042,0,0,0-.048-.048h-.732a.106.106,0,0,1-.12-.12v-.708a.106.106,0,0,1,.12-.12h.732a.043.043,0,0,0,.048-.048V889.9a.106.106,0,0,1,.12-.12h.864a.106.106,0,0,1,.12.12v1.416a.042.042,0,0,0,.048.048h1.3a.106.106,0,0,1,.12.12v.708A.106.106,0,0,1,1414.027,892.308Z" transform="translate(-1254.687 -888.864)"/><path class="a" d="M1450.107,904.425a.106.106,0,0,1-.12.12h-3.828a.043.043,0,0,0-.048.048,2.082,2.082,0,0,0,.072.624,1.282,1.282,0,0,0,.534.75,1.781,1.781,0,0,0,1.014.27,1.541,1.541,0,0,0,1.368-.732c.04-.08.092-.092.156-.036l.684.456a.114.114,0,0,1,.036.156,2.329,2.329,0,0,1-.954.852,3.061,3.061,0,0,1-1.4.312,2.684,2.684,0,0,1-1.476-.384,2.338,2.338,0,0,1-.9-1.092,4.548,4.548,0,0,1-.288-1.716,5.079,5.079,0,0,1,.132-1.332,2.293,2.293,0,0,1,.864-1.308,2.568,2.568,0,0,1,1.572-.48,2.449,2.449,0,0,1,1.812.606,2.918,2.918,0,0,1,.732,1.782A9.663,9.663,0,0,1,1450.107,904.425Zm-3.432-2.238a1.272,1.272,0,0,0-.456.69,2.793,2.793,0,0,0-.108.672.042.042,0,0,0,.048.048h2.748a.043.043,0,0,0,.048-.048,3.544,3.544,0,0,0-.072-.588,1.444,1.444,0,0,0-2.208-.774Z" transform="translate(-1284.393 -898.533)"/><path class="a" d="M1497.814,901.359a.111.111,0,0,1,.06.144l-.192.9q-.012.108-.144.072a1.258,1.258,0,0,0-.48-.084l-.168.012a1.346,1.346,0,0,0-.93.39,1.291,1.291,0,0,0-.366.954v3.5a.106.106,0,0,1-.12.12h-.912a.106.106,0,0,1-.12-.12v-5.869a.106.106,0,0,1,.12-.12h.912a.106.106,0,0,1,.12.12v.636c0,.024.006.038.018.042s.022,0,.03-.018a1.673,1.673,0,0,1,1.476-.84A1.536,1.536,0,0,1,1497.814,901.359Z" transform="translate(-1327.277 -898.767)"/><path class="a" d="M1526.539,907.228a1.978,1.978,0,0,1-.846-.594,1.309,1.309,0,0,1-.3-.834v-.132a.106.106,0,0,1,.12-.12h.864a.106.106,0,0,1,.12.12v.06a.715.715,0,0,0,.366.588,1.6,1.6,0,0,0,.93.252,1.5,1.5,0,0,0,.876-.234.7.7,0,0,0,.336-.594.563.563,0,0,0-.312-.522,4.931,4.931,0,0,0-1.008-.366,9.385,9.385,0,0,1-1.146-.39,2.126,2.126,0,0,1-.78-.564,1.385,1.385,0,0,1-.318-.942,1.517,1.517,0,0,1,.63-1.278,2.718,2.718,0,0,1,1.674-.474,3.186,3.186,0,0,1,1.23.222,1.876,1.876,0,0,1,.822.618,1.474,1.474,0,0,1,.288.888v.036a.106.106,0,0,1-.12.12h-.84a.106.106,0,0,1-.12-.12v-.036a.689.689,0,0,0-.342-.582,1.936,1.936,0,0,0-1.788-.03.623.623,0,0,0-.33.552.573.573,0,0,0,.318.528,5.085,5.085,0,0,0,1.026.384,11.106,11.106,0,0,1,1.158.378,2.065,2.065,0,0,1,.786.552,1.386,1.386,0,0,1,.324.954,1.535,1.535,0,0,1-.642,1.3,2.788,2.788,0,0,1-1.71.48A3.425,3.425,0,0,1,1526.539,907.228Z" transform="translate(-1354.099 -898.767)"/><path class="a" d="M1571.028,892.308h-1.3a.042.042,0,0,0-.048.048v3.18a.812.812,0,0,0,.936.948h.348a.106.106,0,0,1,.12.12v.744a.106.106,0,0,1-.12.12q-.384.024-.552.024a2.362,2.362,0,0,1-1.374-.33,1.4,1.4,0,0,1-.462-1.218v-3.588a.043.043,0,0,0-.048-.048h-.732a.106.106,0,0,1-.12-.12v-.708a.106.106,0,0,1,.12-.12h.732a.043.043,0,0,0,.048-.048V889.9a.106.106,0,0,1,.12-.12h.864a.106.106,0,0,1,.12.12v1.416a.042.042,0,0,0,.048.048h1.3a.106.106,0,0,1,.12.12v.708A.106.106,0,0,1,1571.028,892.308Z" transform="translate(-1390.745 -888.864)"/><path class="a" d="M1602.168,907.667l-1.728-5.881-.012-.036c0-.064.04-.1.12-.1h.936a.123.123,0,0,1,.132.108l1.14,4.357c.008.016.018.024.03.024s.022-.008.03-.024l1.164-4.357a.123.123,0,0,1,.132-.108h.828a.123.123,0,0,1,.132.108l1.188,4.345c.008.016.018.024.03.024s.022-.008.03-.024l1.188-4.345a.123.123,0,0,1,.132-.108l.924.012a.11.11,0,0,1,.09.036.109.109,0,0,1,.018.1l-1.74,5.869a.132.132,0,0,1-.132.1h-.936a.132.132,0,0,1-.132-.1l-1.176-4.056c-.008-.016-.018-.024-.03-.024s-.022.008-.03.024l-1.116,4.044a.124.124,0,0,1-.132.108h-.948A.132.132,0,0,1,1602.168,907.667Z" transform="translate(-1419.125 -899.158)"/><path class="a" d="M1670.632,901.191a1.962,1.962,0,0,1,.84.72,1.916,1.916,0,0,1,.294,1.05v4.056a.106.106,0,0,1-.12.12h-.912a.106.106,0,0,1-.12-.12v-.432c0-.04-.02-.048-.06-.024a2.087,2.087,0,0,1-.762.5,2.762,2.762,0,0,1-1,.174,2.332,2.332,0,0,1-1.47-.45,1.613,1.613,0,0,1-.582-1.362,1.794,1.794,0,0,1,.654-1.47,2.818,2.818,0,0,1,1.83-.534h1.344a.042.042,0,0,0,.048-.048v-.324a1.088,1.088,0,0,0-.306-.822,1.3,1.3,0,0,0-.93-.294,1.534,1.534,0,0,0-.822.2.817.817,0,0,0-.39.534.127.127,0,0,1-.144.108l-.972-.132c-.08-.016-.116-.048-.108-.1a1.633,1.633,0,0,1,.756-1.158,2.873,2.873,0,0,1,1.656-.45A2.965,2.965,0,0,1,1670.632,901.191Zm-.486,4.734a1.012,1.012,0,0,0,.468-.852v-.708a.043.043,0,0,0-.048-.048h-1.128a2.029,2.029,0,0,0-1.128.276.87.87,0,0,0-.42.768.773.773,0,0,0,.318.672,1.4,1.4,0,0,0,.834.228A1.842,1.842,0,0,0,1670.146,905.926Z" transform="translate(-1476.59 -898.533)"/><rect class="a" width="127.044" height="0.571" transform="translate(68.132 24.456)"/><path class="a" d="M756.437,986.461h.726a.085.085,0,0,1,.1.1v6.5a.084.084,0,0,1-.1.1h-.726a.084.084,0,0,1-.1-.1v-4.891a.039.039,0,0,0-.019-.038c-.013-.006-.022,0-.029.019l-1.366,2.082a.129.129,0,0,1-.115.058h-.363a.144.144,0,0,1-.115-.058l-1.375-2.063c-.006-.019-.016-.025-.029-.019a.038.038,0,0,0-.019.038v4.872a.084.084,0,0,1-.1.1h-.726a.084.084,0,0,1-.1-.1v-6.5a.085.085,0,0,1,.1-.1h.726a.128.128,0,0,1,.115.057l1.672,2.5a.039.039,0,0,0,.029.01.04.04,0,0,0,.029-.01l1.662-2.5A.144.144,0,0,1,756.437,986.461Z" transform="translate(-683.863 -972.652)"/><path class="a" d="M802.116,989.241a.094.094,0,0,1-.048.086l-1.1.63a.044.044,0,0,0-.029.048v3.047a.084.084,0,0,1-.1.1h-.726a.084.084,0,0,1-.1-.1v-2.493a.032.032,0,0,0-.014-.028.032.032,0,0,0-.033,0l-.63.363a.1.1,0,0,1-.048.01.093.093,0,0,1-.086-.048l-.229-.43a.105.105,0,0,1-.009-.048.093.093,0,0,1,.048-.086l.974-.564a.056.056,0,0,0,.029-.048v-3.124a.085.085,0,0,1,.1-.1h.726a.085.085,0,0,1,.1.1v2.56a.032.032,0,0,0,.014.029.031.031,0,0,0,.034,0l.735-.43a.108.108,0,0,1,.048-.01.094.094,0,0,1,.086.048l.248.439A.108.108,0,0,1,802.116,989.241Z" transform="translate(-724.575 -972.652)"/><path class="a" d="M828.954,1004.224a1.879,1.879,0,0,1-.736-1,3.676,3.676,0,0,1-.172-1.165,3.523,3.523,0,0,1,.162-1.146,1.88,1.88,0,0,1,.736-.989,2.167,2.167,0,0,1,1.251-.358,2.036,2.036,0,0,1,1.2.358,1.961,1.961,0,0,1,.731.979,3.443,3.443,0,0,1,.172,1.146,3.652,3.652,0,0,1-.172,1.175,1.9,1.9,0,0,1-.726,1,2.074,2.074,0,0,1-1.213.358A2.134,2.134,0,0,1,828.954,1004.224Zm1.9-.65a1.176,1.176,0,0,0,.411-.607,3.279,3.279,0,0,0,.105-.9,3.473,3.473,0,0,0-.1-.888,1.176,1.176,0,0,0-.411-.607,1.129,1.129,0,0,0-.7-.215,1.1,1.1,0,0,0-.678.215,1.175,1.175,0,0,0-.411.607,3.039,3.039,0,0,0-.105.888,3.141,3.141,0,0,0,.105.9,1.115,1.115,0,0,0,.406.607,1.151,1.151,0,0,0,.7.215A1.084,1.084,0,0,0,830.855,1003.574Z" transform="translate(-749.771 -984.01)"/><path class="a" d="M871.184,986.461h.726a.085.085,0,0,1,.1.1v6.5a.084.084,0,0,1-.1.1h-.726a.084.084,0,0,1-.1-.1v-.315a.032.032,0,0,0-.014-.029c-.01-.006-.021,0-.033.009a1.5,1.5,0,0,1-.5.373,1.454,1.454,0,0,1-.621.134,1.853,1.853,0,0,1-1.141-.339,1.927,1.927,0,0,1-.664-.96,3.635,3.635,0,0,1-.182-1.223,3.886,3.886,0,0,1,.153-1.156,1.948,1.948,0,0,1,.659-.984,1.87,1.87,0,0,1,1.175-.353,1.507,1.507,0,0,1,.616.129,1.436,1.436,0,0,1,.5.368c.013.013.024.016.033.01a.032.032,0,0,0,.014-.029v-2.13A.085.085,0,0,1,871.184,986.461Zm-.115,4.251a2.52,2.52,0,0,0-.239-1.223.883.883,0,0,0-.812-.487.925.925,0,0,0-.85.458,2.309,2.309,0,0,0-.306,1.261,2.521,2.521,0,0,0,.239,1.185.949.949,0,0,0,.907.525.912.912,0,0,0,.841-.516A2.581,2.581,0,0,0,871.069,990.712Z" transform="translate(-784.339 -972.652)"/><path class="a" d="M905.676,1004.906v-.669a.178.178,0,0,1,.038-.115l2.531-3.095c.013-.013.016-.024.01-.034a.033.033,0,0,0-.029-.014h-2.407a.084.084,0,0,1-.1-.1v-.649a.085.085,0,0,1,.1-.1h3.448a.085.085,0,0,1,.1.1v.678a.178.178,0,0,1-.038.115l-2.57,3.095c-.013.013-.016.024-.01.033a.032.032,0,0,0,.029.014h2.5a.085.085,0,0,1,.1.1v.64a.085.085,0,0,1-.1.1h-3.506A.084.084,0,0,1,905.676,1004.906Z" transform="translate(-817.045 -984.506)"/><path class="a" d="M940.579,986.295a.647.647,0,1,1,.439.172A.595.595,0,0,1,940.579,986.295Zm-.038,5.693v-4.661a.085.085,0,0,1,.1-.1h.726a.085.085,0,0,1,.1.1v4.661a.085.085,0,0,1-.1.1h-.726A.084.084,0,0,1,940.54,991.988Z" transform="translate(-847.143 -971.598)"/><path class="a" d="M962.192,1002.347a.085.085,0,0,1-.1.1h-3.047a.034.034,0,0,0-.038.038,1.651,1.651,0,0,0,.057.5,1.02,1.02,0,0,0,.425.6,1.418,1.418,0,0,0,.807.215,1.227,1.227,0,0,0,1.089-.583c.032-.064.073-.073.124-.029l.545.363a.091.091,0,0,1,.029.124,1.854,1.854,0,0,1-.759.678,2.435,2.435,0,0,1-1.113.249,2.134,2.134,0,0,1-1.175-.306,1.861,1.861,0,0,1-.716-.869,3.629,3.629,0,0,1-.229-1.366,4.046,4.046,0,0,1,.105-1.06,1.826,1.826,0,0,1,.688-1.041,2.043,2.043,0,0,1,1.251-.382,1.949,1.949,0,0,1,1.442.482,2.323,2.323,0,0,1,.583,1.418A7.668,7.668,0,0,1,962.192,1002.347Zm-2.732-1.781a1.013,1.013,0,0,0-.363.549,2.234,2.234,0,0,0-.086.535.034.034,0,0,0,.038.038h2.187a.034.034,0,0,0,.038-.038,2.841,2.841,0,0,0-.057-.468,1.149,1.149,0,0,0-1.758-.616Z" transform="translate(-862.471 -984.01)"/><path class="a" d="M994.617,992v-.669a.178.178,0,0,1,.038-.115l2.531-3.095c.013-.013.016-.024.009-.033a.032.032,0,0,0-.029-.014H994.76a.085.085,0,0,1-.1-.1v-.649a.085.085,0,0,1,.1-.1h3.448a.085.085,0,0,1,.1.1V988a.178.178,0,0,1-.038.115l-2.57,3.095c-.013.013-.016.024-.01.033a.032.032,0,0,0,.029.014h2.5a.085.085,0,0,1,.1.1V992a.084.084,0,0,1-.1.1h-3.506A.084.084,0,0,1,994.617,992Zm1.395-5.7a.647.647,0,1,1,.439.172A.594.594,0,0,1,996.012,986.295Z" transform="translate(-894.122 -971.598)"/><path class="a" d="M1026.589,1006.807v-.564a.084.084,0,0,1,.1-.1h.019a1.833,1.833,0,0,0,.6-.1.744.744,0,0,0,.363-.32,2.96,2.96,0,0,0,.277-.7q.01-.01,0-.057l-1.6-4.729-.01-.038q0-.067.086-.067h.774a.111.111,0,0,1,.115.076l1.079,3.6a.031.031,0,0,0,.057,0l1.07-3.6a.111.111,0,0,1,.115-.076h.755q.105,0,.076.1l-1.739,5.091a4.087,4.087,0,0,1-.439.979,1.2,1.2,0,0,1-.573.454,2.919,2.919,0,0,1-.993.134h-.067C1026.612,1006.9,1026.589,1006.87,1026.589,1006.807Z" transform="translate(-921.615 -984.506)"/><path class="a" d="M1079.047,993.052v-6.5a.085.085,0,0,1,.1-.1h2.312a2.316,2.316,0,0,1,1.586.521,1.759,1.759,0,0,1,.592,1.39v2.866a1.758,1.758,0,0,1-.592,1.39,2.315,2.315,0,0,1-1.586.521h-2.312A.084.084,0,0,1,1079.047,993.052Zm.955-.7h1.49a1.176,1.176,0,0,0,.884-.339,1.286,1.286,0,0,0,.339-.912v-2.6a1.253,1.253,0,0,0-.329-.912,1.189,1.189,0,0,0-.893-.339H1080a.034.034,0,0,0-.038.038v5.025A.034.034,0,0,0,1080,992.355Z" transform="translate(-967.29 -972.652)"/><path class="a" d="M1122.187,986.295a.648.648,0,1,1,.439.172A.6.6,0,0,1,1122.187,986.295Zm-.038,5.693v-4.661a.085.085,0,0,1,.1-.1h.726a.085.085,0,0,1,.1.1v4.661a.085.085,0,0,1-.1.1h-.726A.084.084,0,0,1,1122.149,991.988Z" transform="translate(-1004.527 -971.598)"/><path class="a" d="M1143.8,1002.347a.085.085,0,0,1-.1.1h-3.047a.034.034,0,0,0-.038.038,1.655,1.655,0,0,0,.057.5,1.022,1.022,0,0,0,.425.6,1.419,1.419,0,0,0,.807.215,1.227,1.227,0,0,0,1.089-.583c.032-.064.073-.073.124-.029l.545.363a.091.091,0,0,1,.029.124,1.851,1.851,0,0,1-.759.678,2.434,2.434,0,0,1-1.113.249,2.134,2.134,0,0,1-1.175-.306,1.861,1.861,0,0,1-.717-.869,3.629,3.629,0,0,1-.229-1.366,4.04,4.04,0,0,1,.105-1.06,1.825,1.825,0,0,1,.688-1.041,2.042,2.042,0,0,1,1.251-.382,1.948,1.948,0,0,1,1.442.482,2.322,2.322,0,0,1,.583,1.418A7.611,7.611,0,0,1,1143.8,1002.347Zm-2.732-1.781a1.012,1.012,0,0,0-.363.549,2.228,2.228,0,0,0-.086.535.034.034,0,0,0,.038.038h2.187a.034.034,0,0,0,.038-.038,2.8,2.8,0,0,0-.057-.468,1.149,1.149,0,0,0-1.758-.616Z" transform="translate(-1019.856 -984.01)"/><path class="a" d="M1178.866,1004.214a1.847,1.847,0,0,1-.707-1,3.825,3.825,0,0,1-.143-1.156,4.187,4.187,0,0,1,.143-1.156,1.816,1.816,0,0,1,.712-.975,2.109,2.109,0,0,1,1.237-.363,2.176,2.176,0,0,1,1.251.363,1.662,1.662,0,0,1,.7.917,1.355,1.355,0,0,1,.076.315.093.093,0,0,1-.086.1l-.716.105h-.019q-.067,0-.1-.086l-.029-.153a.935.935,0,0,0-.373-.545,1.169,1.169,0,0,0-.716-.22,1.113,1.113,0,0,0-.7.22,1,1,0,0,0-.373.583,3.875,3.875,0,0,0-.086.907,3.824,3.824,0,0,0,.086.9,1.063,1.063,0,0,0,.377.6,1.091,1.091,0,0,0,.693.22,1.189,1.189,0,0,0,.721-.22.934.934,0,0,0,.377-.573.021.021,0,0,0,0-.024.022.022,0,0,1,0-.024v-.038a.081.081,0,0,1,.105-.057l.716.115c.051.013.077.038.077.076v.038a.612.612,0,0,1-.048.21,1.618,1.618,0,0,1-.7.936,2.217,2.217,0,0,1-1.251.353A2.083,2.083,0,0,1,1178.866,1004.214Z" transform="translate(-1053.058 -984.01)"/><path class="a" d="M1219.567,1002.347a.085.085,0,0,1-.1.1h-3.047a.034.034,0,0,0-.038.038,1.652,1.652,0,0,0,.057.5,1.021,1.021,0,0,0,.425.6,1.419,1.419,0,0,0,.807.215,1.227,1.227,0,0,0,1.089-.583c.032-.064.073-.073.124-.029l.545.363a.091.091,0,0,1,.029.124,1.856,1.856,0,0,1-.759.678,2.436,2.436,0,0,1-1.113.249,2.135,2.135,0,0,1-1.175-.306,1.861,1.861,0,0,1-.716-.869,3.629,3.629,0,0,1-.229-1.366,4.047,4.047,0,0,1,.1-1.06,1.825,1.825,0,0,1,.688-1.041,2.042,2.042,0,0,1,1.251-.382,1.949,1.949,0,0,1,1.442.482,2.325,2.325,0,0,1,.583,1.418A7.7,7.7,0,0,1,1219.567,1002.347Zm-2.732-1.781a1.014,1.014,0,0,0-.363.549,2.223,2.223,0,0,0-.086.535.034.034,0,0,0,.038.038h2.188a.034.034,0,0,0,.038-.038,2.841,2.841,0,0,0-.057-.468,1.149,1.149,0,0,0-1.758-.616Z" transform="translate(-1085.515 -984.01)"/><path class="a" d="M1251.991,1004.906v-.669a.178.178,0,0,1,.038-.115l2.531-3.095c.013-.013.016-.024.01-.034a.033.033,0,0,0-.029-.014h-2.407a.084.084,0,0,1-.1-.1v-.649a.085.085,0,0,1,.1-.1h3.448a.085.085,0,0,1,.1.1v.678a.179.179,0,0,1-.038.115l-2.57,3.095c-.013.013-.016.024-.01.033a.032.032,0,0,0,.029.014h2.5a.084.084,0,0,1,.1.1v.64a.084.084,0,0,1-.1.1h-3.506A.084.084,0,0,1,1251.991,1004.906Z" transform="translate(-1117.166 -984.506)"/><path class="a" d="M1278.988,993.975v-.592a.084.084,0,0,1,.1-.1,1.162,1.162,0,0,0,.788-.22.9.9,0,0,0,.244-.7l-.01-5.044a.085.085,0,0,1,.1-.1h.726a.084.084,0,0,1,.1.1v5.034a2.214,2.214,0,0,1-.191,1,1.144,1.144,0,0,1-.611.544,2.964,2.964,0,0,1-1.137.162A.084.084,0,0,1,1278.988,993.975Zm1.137-7.68a.625.625,0,0,1,.884-.884.66.66,0,0,1,0,.884.647.647,0,0,1-.879,0Z" transform="translate(-1140.562 -971.598)"/><path class="a" d="M1304.654,986.295a.647.647,0,1,1,.439.172A.595.595,0,0,1,1304.654,986.295Zm-.038,5.693v-4.661a.084.084,0,0,1,.1-.1h.726a.085.085,0,0,1,.1.1v4.661a.084.084,0,0,1-.1.1h-.726A.084.084,0,0,1,1304.616,991.988Z" transform="translate(-1162.655 -971.598)"/><path class="a" d="M1339.969,986.557v.611a.084.084,0,0,1-.1.1h-1.834a.034.034,0,0,0-.038.038v5.751a.084.084,0,0,1-.1.1h-.726a.084.084,0,0,1-.1-.1V987.3a.034.034,0,0,0-.038-.038H1335.3a.084.084,0,0,1-.1-.1v-.611a.084.084,0,0,1,.1-.1h4.576A.085.085,0,0,1,1339.969,986.557Z" transform="translate(-1189.277 -972.652)"/><path class="a" d="M1377.833,999.772a1.562,1.562,0,0,1,.669.573,1.526,1.526,0,0,1,.234.836v3.229a.084.084,0,0,1-.1.1h-.726a.084.084,0,0,1-.1-.1v-.344c0-.032-.016-.038-.048-.019a1.663,1.663,0,0,1-.606.4,2.2,2.2,0,0,1-.8.138,1.856,1.856,0,0,1-1.17-.358,1.285,1.285,0,0,1-.463-1.084,1.428,1.428,0,0,1,.521-1.17,2.243,2.243,0,0,1,1.457-.425h1.07a.034.034,0,0,0,.038-.038v-.258a.866.866,0,0,0-.243-.654,1.034,1.034,0,0,0-.74-.234,1.221,1.221,0,0,0-.654.158.649.649,0,0,0-.311.425.1.1,0,0,1-.115.086l-.774-.105c-.064-.013-.092-.038-.086-.077a1.3,1.3,0,0,1,.6-.922,2.288,2.288,0,0,1,1.318-.358A2.358,2.358,0,0,1,1377.833,999.772Zm-.387,3.768a.805.805,0,0,0,.373-.678v-.563a.034.034,0,0,0-.038-.038h-.9a1.614,1.614,0,0,0-.9.22.692.692,0,0,0-.334.611.616.616,0,0,0,.253.535,1.115,1.115,0,0,0,.664.182A1.467,1.467,0,0,0,1377.446,1003.541Z" transform="translate(-1223.536 -984.01)"/><path class="a" d="M1416.732,999.905a.089.089,0,0,1,.048.115l-.153.716c-.007.057-.045.076-.115.057a1,1,0,0,0-.382-.067l-.134.01a1.071,1.071,0,0,0-.74.311,1.027,1.027,0,0,0-.291.759v2.789a.084.084,0,0,1-.1.1h-.726a.084.084,0,0,1-.1-.1v-4.671a.085.085,0,0,1,.1-.1h.726a.085.085,0,0,1,.1.1v.506c0,.019,0,.03.014.033s.017,0,.024-.014a1.332,1.332,0,0,1,1.175-.669A1.224,1.224,0,0,1,1416.732,999.905Z" transform="translate(-1257.606 -984.196)"/><path class="a" d="M1444.025,1000.092a1.649,1.649,0,0,1,.459,1.227v3.152a.084.084,0,0,1-.1.1h-.726a.084.084,0,0,1-.1-.1V1001.5a1.087,1.087,0,0,0-.277-.774.959.959,0,0,0-.735-.3.979.979,0,0,0-.736.3,1.053,1.053,0,0,0-.287.764v2.98a.084.084,0,0,1-.1.1h-.726a.084.084,0,0,1-.1-.1V999.8a.084.084,0,0,1,.1-.1h.726a.085.085,0,0,1,.1.1v.344a.032.032,0,0,0,.014.029c.01.007.017,0,.024-.01a1.446,1.446,0,0,1,1.213-.525A1.689,1.689,0,0,1,1444.025,1000.092Z" transform="translate(-1280.63 -984.072)"/><path class="a" d="M1478.761,1004.224a1.879,1.879,0,0,1-.735-1,3.675,3.675,0,0,1-.172-1.165,3.521,3.521,0,0,1,.162-1.146,1.88,1.88,0,0,1,.735-.989,2.167,2.167,0,0,1,1.251-.358,2.035,2.035,0,0,1,1.2.358,1.961,1.961,0,0,1,.731.979,3.448,3.448,0,0,1,.172,1.146,3.657,3.657,0,0,1-.172,1.175,1.9,1.9,0,0,1-.726,1,2.073,2.073,0,0,1-1.213.358A2.135,2.135,0,0,1,1478.761,1004.224Zm1.9-.65a1.178,1.178,0,0,0,.411-.607,3.291,3.291,0,0,0,.1-.9,3.477,3.477,0,0,0-.1-.888,1.178,1.178,0,0,0-.411-.607,1.129,1.129,0,0,0-.7-.215,1.1,1.1,0,0,0-.678.215,1.176,1.176,0,0,0-.411.607,3.05,3.05,0,0,0-.105.888,3.152,3.152,0,0,0,.105.9,1.116,1.116,0,0,0,.406.607,1.151,1.151,0,0,0,.7.215A1.084,1.084,0,0,0,1480.662,1003.574Z" transform="translate(-1312.901 -984.01)"/><path class="a" d="M1515.4,1004.925l-1.376-4.681-.009-.029q0-.076.1-.076h.745a.1.1,0,0,1,.105.086l.907,3.467c.006.013.014.019.024.019s.017-.006.024-.019l.926-3.467a.1.1,0,0,1,.1-.086h.659a.1.1,0,0,1,.105.086l.946,3.458c.006.013.014.019.024.019s.018-.006.024-.019l.946-3.458a.1.1,0,0,1,.105-.086l.735.01a.081.081,0,0,1,.086.105l-1.385,4.671a.1.1,0,0,1-.1.076h-.745a.1.1,0,0,1-.1-.076l-.936-3.229c-.006-.013-.014-.019-.024-.019s-.017.006-.024.019l-.888,3.219a.1.1,0,0,1-.1.086h-.755A.1.1,0,0,1,1515.4,1004.925Z" transform="translate(-1344.242 -984.506)"/><path class="a" d="M1567.351,1004.576a1.575,1.575,0,0,1-.673-.473,1.043,1.043,0,0,1-.239-.664v-.1a.084.084,0,0,1,.1-.1h.688a.085.085,0,0,1,.1.1v.048a.569.569,0,0,0,.291.468,1.276,1.276,0,0,0,.74.2,1.2,1.2,0,0,0,.7-.186.558.558,0,0,0,.267-.473.448.448,0,0,0-.248-.416,3.924,3.924,0,0,0-.8-.291,7.463,7.463,0,0,1-.912-.31,1.692,1.692,0,0,1-.621-.449,1.1,1.1,0,0,1-.253-.75,1.207,1.207,0,0,1,.5-1.017,2.163,2.163,0,0,1,1.333-.377,2.535,2.535,0,0,1,.979.177,1.494,1.494,0,0,1,.654.492,1.174,1.174,0,0,1,.229.707v.028a.085.085,0,0,1-.1.1h-.669a.084.084,0,0,1-.1-.1v-.028a.548.548,0,0,0-.272-.463,1.542,1.542,0,0,0-1.424-.024.5.5,0,0,0-.262.439.457.457,0,0,0,.253.42,4.069,4.069,0,0,0,.817.306,8.8,8.8,0,0,1,.922.3,1.643,1.643,0,0,1,.626.439,1.1,1.1,0,0,1,.258.759,1.221,1.221,0,0,1-.511,1.032,2.22,2.22,0,0,1-1.361.382A2.73,2.73,0,0,1,1567.351,1004.576Z" transform="translate(-1389.67 -984.196)"/><path class="a" d="M1602.89,993.052v-6.5a.084.084,0,0,1,.1-.1h.726a.085.085,0,0,1,.1.1v3.678a.03.03,0,0,0,.019.029.019.019,0,0,0,.029-.01l1.767-1.92a.139.139,0,0,1,.115-.048h.85c.038,0,.062.011.072.033s0,.049-.024.081l-1.232,1.423a.067.067,0,0,0-.01.057l1.461,3.152.01.038c0,.051-.029.076-.086.076h-.764a.1.1,0,0,1-.1-.076l-1.137-2.6c-.013-.032-.029-.035-.048-.01l-.9.994a.165.165,0,0,0-.019.048v1.548a.084.084,0,0,1-.1.1h-.726A.084.084,0,0,1,1602.89,993.052Z" transform="translate(-1421.259 -972.652)"/><path class="a" d="M1639.3,986.295a.647.647,0,1,1,.439.172A.595.595,0,0,1,1639.3,986.295Zm-.038,5.693v-4.661a.085.085,0,0,1,.1-.1h.726a.085.085,0,0,1,.1.1v4.661a.085.085,0,0,1-.1.1h-.726A.084.084,0,0,1,1639.26,991.988Z" transform="translate(-1452.662 -971.598)"/><path class="a" d="M1660.911,1002.347a.085.085,0,0,1-.1.1h-3.047a.034.034,0,0,0-.038.038,1.651,1.651,0,0,0,.057.5,1.02,1.02,0,0,0,.425.6,1.419,1.419,0,0,0,.807.215,1.227,1.227,0,0,0,1.089-.583c.032-.064.073-.073.124-.029l.545.363a.091.091,0,0,1,.029.124,1.855,1.855,0,0,1-.759.678,2.436,2.436,0,0,1-1.113.249,2.135,2.135,0,0,1-1.175-.306,1.862,1.862,0,0,1-.716-.869,3.631,3.631,0,0,1-.229-1.366,4.041,4.041,0,0,1,.1-1.06,1.827,1.827,0,0,1,.688-1.041,2.042,2.042,0,0,1,1.252-.382,1.949,1.949,0,0,1,1.442.482,2.324,2.324,0,0,1,.583,1.418A7.64,7.64,0,0,1,1660.911,1002.347Zm-2.732-1.781a1.014,1.014,0,0,0-.363.549,2.253,2.253,0,0,0-.086.535.034.034,0,0,0,.038.038h2.188a.034.034,0,0,0,.038-.038,2.809,2.809,0,0,0-.057-.468,1.149,1.149,0,0,0-1.758-.616Z" transform="translate(-1467.989 -984.01)"/><path class="a" d="M1688.036,993.975v-.592a.084.084,0,0,1,.1-.1,1.162,1.162,0,0,0,.788-.22.9.9,0,0,0,.243-.7l-.01-5.044a.085.085,0,0,1,.1-.1h.726a.084.084,0,0,1,.1.1v5.034a2.215,2.215,0,0,1-.191,1,1.147,1.147,0,0,1-.611.544,2.966,2.966,0,0,1-1.137.162A.084.084,0,0,1,1688.036,993.975Zm1.137-7.68a.647.647,0,1,1,.439.172A.595.595,0,0,1,1689.173,986.295Z" transform="translate(-1495.048 -971.598)"/></g></g></svg>