<svg xmlns="http://www.w3.org/2000/svg" width="9.184" height="18.168" viewBox="0 0 9.184 18.168"><defs></defs>
<path class="fb-logo" d="M.293,9.676H2.286v8.2a.293.293,0,0,0,.293.293H5.954a.293.293,0,0,0,.293-.293V9.717H8.539a.3.3,0,0,0,.293-.258l.346-3.018a.3.3,0,0,0-.07-.229.281.281,0,0,0-.217-.1H6.253V4.22c0-.568.3-.862.914-.862H8.891a.293.293,0,0,0,.293-.293V.293A.293.293,0,0,0,8.891,0H6.406A4.553,4.553,0,0,0,3.428,1.125,3.127,3.127,0,0,0,2.391,3.9V6.118H.293A.293.293,0,0,0,0,6.412V9.389a.289.289,0,0,0,.291.287Z"/></svg>