<svg xmlns="http://www.w3.org/2000/svg" xmlns:xlink="http://www.w3.org/1999/xlink" width="545.586" height="317.315" viewBox="0 0 545.586 317.315"><defs><style>.a{stroke:#caf2ed;fill:url(#a);}</style><linearGradient id="a" x1="0.286" y1="-0.104" x2="0.5" y2="1" gradientUnits="objectBoundingBox"><stop offset="0" stop-color="#caf2ed"/><stop offset="0.402" stop-color="#dff7f4" stop-opacity="0.659"/><stop offset="1" stop-color="#fff" stop-opacity="0.71"/></linearGradient></defs><path class="a" d="M669.094,143.21q-5.047.471-10.1.883c-2.219.184-4.441.324-6.661.5-1.9.152-3.8.371-5.708.487-3.5.214-7.005.379-10.509.559-2.291.117-4.589.142-6.871.355-2.512.235-5,.82-7.516.912-2.128.079-4.331-.73-6.4-.439-5.576.784-11.131,1.688-16.739,2.292-4.323.465-8.6,1.363-12.887,2.149-5.35.981-10.7,1.962-16.02,3.095-5.832,1.242-11.631,2.638-17.438,4-4.995,1.166-9.964,2.448-14.981,3.506a17.117,17.117,0,0,1-4.188-.142,21.75,21.75,0,0,0-5.491.724c-2.251.543-4.676.813-6.662,1.876-2.165,1.16-4.319.073-6.375.744-.2.066-.422.083-.629.14-6.032,1.677-12.038,3.448-18.1,5-6.367,1.636-12.789,3.052-19.18,4.593a42.281,42.281,0,0,0-7.281,1.961,43.138,43.138,0,0,1-12.788,3.444,26.525,26.525,0,0,0-5.361.851c-2.638.878-5.073,2.71-7.74,3.082-5.386.752-10.335,2.736-15.437,4.328-4.617,1.44-9.292,2.7-13.942,4.036q-.188-.442-.375-.884l8.46-3.423-.318-.859q-36.339,11.326-72.674,22.653l-.616-1.675L275.1,232.792l1.583-2.12c-4.875,1.89-8.886,4.139-13.45,4.406-.089-1.605-.156-2.785-.233-4.17l-9.417,3.1-.3-.646,3.606-2.114-.175-.728a20.061,20.061,0,0,0-4.132.573c-4.647,1.653-9.23,3.486-13.843,5.235-.7.264-1.776.865-2.081.607-1.776-1.506-3.283-.216-4.758.336-8.264,3.089-16.484,6.3-24.741,9.408-1.175.442-3.007,1.186-3.613.681-1.4-1.163-2.419-.458-3.556-.069-8.847,3.033-17.613,6.327-26.543,9.092-6.97,2.158-14.1,3.887-21.243,5.358-2.556.525-4.39,1.561-5.135,3.744a30.437,30.437,0,0,0-1.688,8.467c-.168,4.157.48,8.345.343,12.5a35.073,35.073,0,0,0,1.611,12.28c1.361,4.144,3.88,6.868,8.412,7.338,1.647.171,3.293.353,5,.538-.047,3.445-3.216,3.763-4.719,5.5a13.65,13.65,0,0,1,.222,2.006c-.1,2.4,1.733,4.911-.429,7.261-.184.2.515,1.824.965,1.906,5.212.947,9.919,5.3,15.726,2.432.282-.139.792.273,1.2.289,4.7.188,9.394.4,14.092.5,3.928.086,7.936-.921,11.917,1.014-.4,2-.677,3.8-3.109,4.681-7.754,2.8-15.41,5.877-23.152,8.715-7.551,2.768-15.232,5.191-22.721,8.11-5.769,2.247-11.683,4.649-13.52,11.576-1.287,4.853-2.686,9.693-3.619,14.618a74.206,74.206,0,0,0-1.09,11.509c-.187,6.092-.611,12.311,2.467,17.909a6.012,6.012,0,0,0,3.782,2.883,22.7,22.7,0,0,0,7.214-.7,77.315,77.315,0,0,0,8.012-2.314q9.457-3.1,18.874-6.316c5.136-1.757,10.243-3.6,15.969-5.618.369,4.067.82,7.492.95,10.93.123,3.29-.095,6.592-.149,9.888a23.706,23.706,0,0,1-.073,4.36c-.619,2.971-1.278,5.886-.3,8.9,1.935,5.979,3.881,11.956,5.745,17.959,1.423,4.579,5.059,7.328,8.6,9.919,4.974,3.646,11.133,3.4,16.953,3.979a19.833,19.833,0,0,0,6.636-.245c8.819-2.2,17.581-4.628,26.352-7.014,1.412-.384,2.745-1.064,4.158-1.44,5.686-1.516,11.445-2.784,17.072-4.5,4.818-1.466,9.5-3.393,14.222-5.157,3.324-1.24,7.151-1.417,9.61-4.529.238-.3.754-.392,1.15-.565,3.343-1.455,6.678-2.928,10.036-4.351,2.647-1.121,5.3-2.23,7.987-3.252,5.883-2.244,11.838-4.312,17.67-6.681,4.269-1.735,8.313-4.027,12.591-5.733,8.453-3.369,17.047-6.385,25.494-9.764q16.384-6.551,32.621-13.462c7.667-3.245,15.229-6.737,22.855-10.078,8.251-3.617,16.469-7.319,24.817-10.7,2.534-1.026,5.124-1.577,6.394-4.341a1.98,1.98,0,0,1,1-.779c2.257-.991,4.517-1.98,6.8-2.9,3.684-1.478,7.4-2.869,11.085-4.355,4.553-1.84,9.079-3.743,13.62-5.613,1.687-.695,3.43-1.272,5.057-2.085,2.763-1.382,5.388-3.05,8.191-4.339,4.828-2.221,9.75-4.237,14.628-6.353,5.469-2.372,10.981-4.656,16.375-7.188,2.264-1.064,4.907-2.229,6.238-4.141,1.532-2.2,3.021-4.04,5.437-5.167,1.636-.763,3.213-1.652,4.636-2.39.307-1.668.566-3.082.833-4.529a4.258,4.258,0,0,0-5.889-.327c-1.541,1.074-3.043,1.83-5.087,1.284a5.855,5.855,0,0,0-3.109.619c-2.523.915-4.97,2.052-7.513,2.9-4.354,1.455-8.819,2.593-13.126,4.166-5.008,1.828-9.872,4.045-14.846,5.971-2.67,1.034-5.886,1.226-8.047,2.861-2.388,1.809-5.013,1.6-7.485,2.387a2.344,2.344,0,0,1-1.977-1.011c-.337-.587-.352-1.958.045-2.259a18.9,18.9,0,0,1,5.107-3.057c4.79-1.617,9.508-3.276,13.557-6.445a4.372,4.372,0,0,1,2.4-.713c4.654-.188,8.219-2.924,12.023-5.076.449-.254.624-.991,1.043-1.7-.718-.261-1.268-.684-1.654-.566-2.958.9-5.916,1.827-8.815,2.9-6.394,2.375-12.74,4.887-19.147,7.224-.927.337-2.113-.111-3.141.044a18.358,18.358,0,0,0-4.2,1.043c-1.743.714-3.35,1.752-5.056,2.564-2.348,1.118-5.321.759-7.193,3.123-.222.28-1.523.023-2.06-.357-.507-.359-.667-1.21-.794-1.467-2.023.536-3.753.954-5.457,1.464-.982.293-1.923.724-2.882,1.1a.606.606,0,0,0,.035-.057c-1.392.155-2.787.286-4.175.471-1.907.254-3.818.5-5.71.84-1.84.336-3.667,1.141-5.48,1.092a7.6,7.6,0,0,0-4.456,1.175c-1.615.956-3.7,1.125-5.577,1.637.919-3.283,3.183-4.147,5.807-4.5a6.744,6.744,0,0,0,2.3-.56c3.455-1.885,6.864-3.856,10.288-5.8.633-.359,1.682-.611,1.816-1.107.344-1.284-.115-2.92.509-3.953.546-.9,2.133-1.169,3.26-1.716-.129-.314-.255-.626-.384-.938-3,.185-5.247,2.653-8.1,3.376-.1-.874-.194-1.612-.339-2.809-.732.654-1.08,1-1.465,1.3-3.6,2.816-6.588,6.451-11.175,7.946-3.163,1.03-4.763.175-5.206-3.166-.111-.839-.264-1.674-.49-3.086a13.236,13.236,0,0,0-1.359,1.455c-1.507,2.515-2.919,5.091-4.519,7.545a4.972,4.972,0,0,1-2.146,1.382c-.111.051-.942-.872-.849-1.078a3.7,3.7,0,0,1,1.4-1.865c1.981-.9,1.809-2.05.754-3.7l-3.2,1.318a5.006,5.006,0,0,1,2.612-5.3c1.615-.969,3.876-.865,6.241-1.3-.887-1.207-1.434-1.951-1.872-2.545a25.974,25.974,0,0,1,1.074-3.038A24,24,0,0,1,432.09,314c-.045-1.217-.184-2.9.568-3.549,2.545-2.215,5.807-2.527,7.675-1.048.835-2.1,1.949-3.677,3.782-1.6,8.978-2.8,17.378-6.2,26.255-8.172,9.208-2.047,18.378-4.277,27.558-6.448,9.067-2.143,18.1-4.444,27.2-6.432s18.243-3.665,27.4-5.485c-.483-.817-.934-1.582-1.757-2.98l7.167-1.478c-.481-.579-1.608-1.558-1.46-1.818,1.522-2.691-1.017-3.1-2.259-4.054-1.43-1.1-2.987-.856-4.429.271a7.839,7.839,0,0,1-1.681.77q-.262-.7-.523-1.4c2.457-.274.1-.9.108-1.357.009-.68.067-1.36.114-2.195.619.646,1.036,1.081,1.588,1.656.954-1.332,1.126-2.514-.454-2.476a67.72,67.72,0,0,0-7.745,1.017c-1.012-.429-2.135-1.907-3.049,1.169-.531-2.1-5.011-.538-3.282-4.487l-4.535.6c.506-.762.9-1.348,1.287-1.936-.141-.168-.284-.334-.426-.5l-5.769,2.265c-1.053-1.979-3.353.382-5.425-1.17,3.108-.7,5.75-1.293,8.391-1.888l-.063-.981-9.8.48-.093-.633c2.41-.811,5.561-.9,4.587-4.879-.1-.407.973-1.347,1.67-1.643a14.652,14.652,0,0,1,3.146-.6c-.448-.449-1-.776-1.18-1.246s.211-1.465.005-1.574c-2.952-1.564-3.147-4.37-3.43-6.947.73-.365,1.5-.537,1.89-1.018a1.972,1.972,0,0,0-.028-1.659c-.3-.692-1.077-1.2-1.3-1.9-1.024-3.27.029-6.051,2.429-8.327a7.761,7.761,0,0,1-1.379-8.788c-.677-1.191-1.356-2.381-2.041-3.585.807-1.286,1.53-2.44,2.273-3.626-1.417-1.98-3.153-1.256-3.469.222-.628,2.933-3.026,2.252-4.711,2.953a14.8,14.8,0,0,1-2.841.312c-2.161.4-4.3.94-6.459,1.334q-12.614,2.3-25.234,4.539c-4.109.737-8.2,1.859-12.335,2.079-4.04.213-7.481,2.351-11.613,2.479-5.018.155-10,1.687-14.982,2.677-2.263.45-4.474,1.255-6.753,1.515a110.167,110.167,0,0,0-22.772,4.624,26.471,26.471,0,0,1-3.442.622c-3.239.625-6.607.908-9.662,2.033-1.885.693-3.085.715-4.656-.649l2.025-1.935-.266-.579-39.44,10.157c-.123-.413-.247-.826-.369-1.239,17.62-7.239,35.9-12.722,53.8-19.182,18.111-6.534,36.573-12.1,54.882-18.087l-.219-.858a41.618,41.618,0,0,1-6.144,1.421c-2.419.206-4.188,2.731-6.947,1.7-.641-.239-1.645.35-2.434.676-2.209.913-4.338,2.052-6.6,2.8-4.579,1.525-9.213,2.895-13.85,4.236a18.774,18.774,0,0,1-3.386.359l-.127-.772a4.791,4.791,0,0,1,.938-.616c4.812-1.73,9.615-3.484,14.451-5.145q13.622-4.677,27.281-9.248c5.032-1.675,10.116-3.2,15.172-4.8,1.3-.414,2.573-.935,3.878-1.339q11.486-3.552,22.983-7.067c.908-.277,1.84-.473,2.762-.7,4.037-1,8.1-1.9,12.1-3.032,3.333-.94,6.562-2.248,9.89-3.206,5.215-1.5,10.482-2.815,15.714-4.265,4.294-1.191,8.655-2.073,12.741-4.067,2.322-1.132,5.249-.991,7.624-2.05,2-.893,4.816-.608,5.869-3.282.052-.133.351-.171.713-.33l1.083,2.014c4.675-1.4,9.407-2.774,14.107-4.247,1.075-.337,2-1.125,3.071-1.5,1.517-.536,3.436-1.65,4.586-1.148,2.163.941,2.237-.359,2.651-1.554.922.372,1.865,1.147,2.564.967,3.9-1,7.773-2.155,11.6-3.411a42.631,42.631,0,0,0,4.806-2.282c2.65,1.625,4.883,1.306,6.433-.859,1.827-.226,3.531.016,4.589-.7,1.008-.678,1.593-.289,2.458-.315a15.459,15.459,0,0,0,4.538-1.1c1.049-.372,1.933-1.351,2.987-1.544,3.162-.579,6.4-.756,9.55-1.38a55.278,55.278,0,0,0,6.438-2.092c.316.05,1.367.555,1.819.229,3.224-2.313,6.925-2.717,10.688-3.136,3.617-.4,3.735-.636,3.833-4.163C674.345,142.679,671.722,142.965,669.094,143.21ZM460.8,333.556a2,2,0,0,1,.894.05c.717.4,1.38.9,2.066,1.355l-2.425,1.649a24.023,24.023,0,0,1-.9-2.3C460.382,334.108,460.64,333.817,460.8,333.556ZM471.5,205.878c4.452-1.5,8.93-2.928,13.4-4.38-.623.642-1.166,1.51-1.922,1.773-4.694,1.631-9.442,3.1-14.172,4.628l-.32-.554A25.622,25.622,0,0,1,471.5,205.878Zm13.507-4.5c.038.013.077.034.115.048l-.07.02-.155.05C484.939,201.459,484.974,201.416,485.012,201.379Zm-85.478,34.743c5.765-1.1,11.318-3.283,17.279-3.376l.137.725-17.212,3.683Q399.635,236.637,399.534,236.122Zm41.234,89.048-1.036.276c-2.151-1.586-4.338-3.128-6.424-4.795a2.413,2.413,0,0,1-.791-1.795,1.719,1.719,0,0,1,1.234-1.169c.623,0,1.675.416,1.807.868.706,2.424,1.7,4.313,4.659,4.345C440.408,322.9,440.585,324.381,440.768,325.171Zm44.359-123.743q7.132-2.062,14.265-4.121c.1.341.209.683.312,1.026-4.125,1.272-8.234,2.6-12.394,3.756C486.693,202.26,485.871,201.7,485.127,201.427Zm-60.809-14.118c-.023-.242-.047-.483-.069-.724l10.87-3.5.17.525Z" transform="translate(-131.936 -141.851)"/></svg>