<svg xmlns="http://www.w3.org/2000/svg" xmlns:xlink="http://www.w3.org/1999/xlink" width="1427.588" height="1048.403" viewBox="0 0 1427.588 1048.403"><defs><style>.a{fill:url(#a);}</style><linearGradient id="a" x1="-0.023" y1="0.823" x2="0.586" y2="0.061" gradientUnits="objectBoundingBox"><stop offset="0" stop-color="#f5f3f4" stop-opacity="0.961"/><stop offset="0.54" stop-color="#fdfcfc" stop-opacity="0.992"/><stop offset="1" stop-color="#fff"/></linearGradient></defs><path class="a" d="M1392.748,144.294q-11.852,1.1-23.718,2.073c-5.212.432-10.43.761-15.642,1.175-4.472.356-8.929.87-13.4,1.144-8.22.5-16.45.891-24.677,1.312-5.38.274-10.776.332-16.135.833-5.9.552-11.749,1.926-17.65,2.142-5,.185-10.17-1.713-15.029-1.031-13.1,1.84-26.141,3.964-39.308,5.383-10.153,1.093-20.2,3.2-30.262,5.047-12.565,2.3-25.13,4.609-37.619,7.268-13.7,2.916-27.312,6.2-40.95,9.382-11.729,2.738-23.4,5.75-35.18,8.234-3.115.658-6.548-.178-9.834-.332a51.067,51.067,0,0,0-12.894,1.7c-5.287,1.275-10.982,1.909-15.645,4.406-5.085,2.724-10.142.171-14.97,1.748-.476.154-.99.2-1.477.329-14.165,3.937-28.268,8.1-42.5,11.753-14.953,3.841-30.033,7.168-45.041,10.786-5.746,1.388-11.77,2.237-17.1,4.605a101.3,101.3,0,0,1-30.03,8.086c-4.228.48-8.611.675-12.589,2-6.2,2.063-11.914,6.363-18.177,7.237-12.647,1.765-24.269,6.425-36.252,10.163-10.841,3.382-21.82,6.336-32.74,9.478-.295-.692-.586-1.384-.881-2.076q9.93-4.019,19.867-8.039l-.747-2.018q-85.335,26.6-170.662,53.2l-1.446-3.934L467.532,354.662l3.718-4.979c-11.448,4.437-20.867,9.721-31.585,10.348-.209-3.769-.367-6.541-.548-9.793-8.073,2.655-15.094,4.968-22.114,7.278-.233-.507-.466-1.011-.7-1.518q4.235-2.483,8.467-4.965l-.411-1.71c-3.248.418-6.692.274-9.7,1.346-10.913,3.882-21.676,8.186-32.507,12.294-1.638.62-4.17,2.032-4.886,1.425-4.17-3.536-7.71-.507-11.174.788-19.408,7.254-38.709,14.8-58.1,22.094-2.758,1.038-7.062,2.786-8.484,1.6-3.279-2.731-5.681-1.076-8.35-.161-20.775,7.124-41.361,14.857-62.331,21.35-16.368,5.068-33.1,9.128-49.886,12.582-6,1.234-10.31,3.666-12.058,8.792a71.485,71.485,0,0,0-3.964,19.884c-.394,9.762,1.127,19.6.805,29.365a82.361,82.361,0,0,0,3.783,28.837c3.2,9.731,9.111,16.128,19.754,17.232,3.868.4,7.734.829,11.746,1.264-.11,8.09-7.552,8.837-11.081,12.911a32.045,32.045,0,0,1,.521,4.711c-.226,5.643,4.071,11.534-1.007,17.05-.432.469,1.21,4.283,2.265,4.475,12.239,2.224,23.293,12.435,36.93,5.712.661-.326,1.861.641,2.82.678,11.03.442,22.06.935,33.093,1.182,9.224.2,18.637-2.162,27.984,2.381-.929,4.687-1.59,8.926-7.3,10.992-18.208,6.586-36.187,13.8-54.368,20.466-17.732,6.5-35.769,12.191-53.357,19.044-13.548,5.277-27.436,10.917-31.75,27.186-3.022,11.4-6.308,22.762-8.5,34.326a174.273,174.273,0,0,0-2.56,27.028c-.439,14.305-1.436,28.909,5.794,42.056,1.689,3.067,5.637,6.377,8.881,6.771,5.513.661,11.386-.473,16.941-1.648a181.689,181.689,0,0,0,18.815-5.434q22.209-7.273,44.321-14.833c12.061-4.125,24.054-8.453,37.5-13.192.867,9.55,1.926,17.595,2.231,25.668.288,7.727-.223,15.481-.349,23.221-.058,3.42.514,6.956-.171,10.238-1.453,6.976-3,13.822-.709,20.9,4.543,14.042,9.114,28.076,13.49,42.173,3.341,10.752,11.879,17.208,20.185,23.293,11.681,8.563,26.144,7.977,39.812,9.344,5.143.514,10.636.658,15.584-.576,20.71-5.16,41.286-10.869,61.882-16.471,3.317-.9,6.445-2.5,9.765-3.382,13.353-3.56,26.877-6.538,40.09-10.56,11.314-3.444,22.3-7.967,33.4-12.109,7.806-2.912,16.793-3.327,22.567-10.636.559-.709,1.772-.922,2.7-1.326,7.85-3.416,15.683-6.877,23.567-10.218,6.216-2.632,12.448-5.236,18.757-7.638,13.816-5.27,27.8-10.125,41.495-15.69,10.026-4.074,19.521-9.457,29.567-13.463,19.85-7.912,40.031-14.994,59.867-22.93q38.476-15.383,76.606-31.613c18.006-7.62,35.762-15.82,53.672-23.667,19.377-8.494,38.674-17.187,58.277-25.13,5.952-2.409,12.034-3.7,15.015-10.194a4.649,4.649,0,0,1,2.337-1.83c5.3-2.327,10.608-4.65,15.978-6.8,8.652-3.471,17.386-6.736,26.031-10.228,10.691-4.321,21.32-8.789,31.983-13.182,3.961-1.631,8.056-2.988,11.876-4.9,6.49-3.245,12.654-7.161,19.236-10.19,11.338-5.215,22.9-9.95,34.351-14.919,12.842-5.571,25.787-10.934,38.455-16.879,5.318-2.5,11.523-5.236,14.648-9.724,3.6-5.171,7.093-9.488,12.767-12.133,3.841-1.792,7.545-3.879,10.886-5.612.72-3.916,1.33-7.237,1.957-10.636-4.516-4.146-9.118-4.05-13.829-.768-3.618,2.522-7.144,4.3-11.945,3.015-2.162-.579-4.962.6-7.3,1.453-5.924,2.149-11.671,4.818-17.643,6.812-10.224,3.416-20.71,6.089-30.824,9.783-11.76,4.293-23.183,9.5-34.864,14.021-6.271,2.429-13.822,2.878-18.9,6.719-5.609,4.249-11.773,3.752-17.578,5.606-1.24.4-3.889-1.059-4.643-2.375-.792-1.377-.826-4.6.106-5.3,3.707-2.806,7.655-5.715,11.993-7.178,11.249-3.8,22.327-7.692,31.835-15.135a10.267,10.267,0,0,1,5.636-1.675c10.931-.442,19.3-6.867,28.234-11.921,1.055-.6,1.466-2.327,2.45-4-1.686-.613-2.978-1.607-3.886-1.33-6.946,2.121-13.891,4.29-20.7,6.819-15.015,5.578-29.917,11.475-44.962,16.964-2.176.792-4.961-.26-7.377.1a43.086,43.086,0,0,0-9.865,2.45c-4.095,1.675-7.867,4.115-11.873,6.02-5.513,2.625-12.5,1.782-16.892,7.333-.521.658-3.577.055-4.838-.839-1.192-.843-1.566-2.84-1.864-3.444-4.749,1.257-8.813,2.241-12.815,3.437-2.306.689-4.516,1.7-6.767,2.573a1.413,1.413,0,0,0,.082-.134c-3.269.363-6.545.672-9.8,1.107-4.478.6-8.967,1.169-13.408,1.974-4.321.788-8.611,2.68-12.87,2.563a17.852,17.852,0,0,0-10.465,2.758c-3.793,2.244-8.683,2.642-13.1,3.844,2.159-7.709,7.473-9.738,13.637-10.57a15.839,15.839,0,0,0,5.4-1.316c8.114-4.427,16.118-9.056,24.16-13.617,1.487-.843,3.951-1.436,4.266-2.6.809-3.015-.271-6.856,1.2-9.282,1.281-2.114,5.009-2.745,7.655-4.03-.3-.737-.6-1.47-.9-2.2-7.045.435-12.322,6.229-19.01,7.929-.247-2.053-.456-3.786-.8-6.6-1.72,1.535-2.536,2.351-3.44,3.06-8.456,6.613-15.47,15.148-26.243,18.661-7.428,2.419-11.184.411-12.225-7.435-.26-1.97-.62-3.93-1.151-7.247-1.9,2.011-2.711,2.614-3.19,3.416-3.539,5.907-6.856,11.955-10.612,17.718-1.007,1.552-3.221,2.409-5.04,3.245-.26.12-2.214-2.049-1.994-2.532.747-1.652,1.8-3.7,3.3-4.379,4.653-2.114,4.249-4.814,1.771-8.7-2.436,1-4.6,1.891-7.521,3.094-1.086-6.342,2.614-10.341,6.133-12.455,3.793-2.275,9.1-2.032,14.655-3.053-2.083-2.834-3.368-4.581-4.4-5.976a60.956,60.956,0,0,1,2.522-7.134,56.362,56.362,0,0,1,3.94-5.989c-.106-2.858-.432-6.8,1.333-8.333,5.976-5.2,13.637-5.935,18.023-2.46,1.96-4.941,4.578-8.635,8.881-3.749,21.083-6.579,40.809-14.556,61.656-19.192,21.624-4.807,43.156-10.043,64.716-15.142,21.292-5.033,42.5-10.437,63.873-15.1,21.344-4.66,42.841-8.607,64.349-12.88-1.134-1.919-2.193-3.714-4.125-7l16.831-3.471c-1.131-1.36-3.776-3.659-3.43-4.269,3.574-6.318-2.388-7.271-5.3-9.519-3.358-2.584-7.014-2.011-10.4.637a18.419,18.419,0,0,1-3.947,1.809q-.617-1.64-1.227-3.283c5.77-.644.237-2.114.254-3.187.021-1.6.158-3.193.267-5.153,1.453,1.518,2.433,2.539,3.728,3.889,2.241-3.128,2.645-5.9-1.066-5.815-6.079.151-12.126,1.528-18.188,2.388-2.378-1.007-5.013-4.478-7.162,2.745-1.247-4.924-11.766-1.264-7.706-10.536-3.656.483-7.035.925-10.649,1.4,1.189-1.789,2.107-3.166,3.022-4.547-.333-.394-.668-.785-1-1.179l-13.548,5.318c-2.474-4.646-7.874.9-12.739-2.748,7.3-1.641,13.5-3.036,19.705-4.434l-.147-2.3q-11.513.565-23.022,1.127l-.219-1.487c5.661-1.905,13.058-2.111,10.773-11.458-.237-.956,2.286-3.163,3.923-3.858,2.214-.935,4.811-.97,7.388-1.415-1.052-1.055-2.347-1.823-2.772-2.926s.5-3.44.014-3.7c-6.932-3.673-7.391-10.262-8.056-16.313,1.713-.857,3.529-1.261,4.437-2.392.644-.805.438-2.755-.065-3.9-.716-1.624-2.529-2.823-3.043-4.461-2.405-7.679.068-14.21,5.7-19.555-5.294-4.955-6.552-13.956-3.238-20.638-1.59-2.8-3.183-5.592-4.794-8.419,1.895-3.019,3.594-5.729,5.338-8.515-3.327-4.65-7.4-2.95-8.145.521-1.474,6.887-7.106,5.287-11.064,6.935-1.98.822-4.472.322-6.671.733-5.075.949-10.091,2.207-15.169,3.132q-29.62,5.4-59.257,10.66c-9.649,1.73-19.253,4.365-28.967,4.883-9.488.5-17.568,5.52-27.271,5.822-11.784.363-23.478,3.961-35.183,6.288-5.314,1.055-10.505,2.947-15.858,3.557-18.157,2.07-36.091,5.02-53.477,10.858-2.57.864-5.393.942-8.083,1.46-7.607,1.466-15.515,2.131-22.69,4.773-4.427,1.628-7.244,1.679-10.934-1.525,1.727-1.652,3.241-3.1,4.756-4.544l-.624-1.36q-46.308,11.924-92.617,23.852c-.288-.97-.579-1.939-.867-2.909,41.378-17,84.3-29.875,126.351-45.044,42.529-15.344,85.884-28.409,128.88-42.474l-.514-2.015c-4.8,1.165-9.56,2.926-14.429,3.337-5.681.483-9.834,6.414-16.313,3.992-1.5-.562-3.862.822-5.715,1.586C875.5,306,870.506,308.675,865.2,310.44c-10.752,3.581-21.635,6.8-32.524,9.947-2.522.73-5.294.586-7.953.843l-.3-1.813a11.243,11.243,0,0,1,2.2-1.446c11.3-4.064,22.58-8.182,33.936-12.082q31.989-10.983,64.065-21.717c11.818-3.934,23.756-7.5,35.628-11.28,3.06-.973,6.041-2.2,9.108-3.146q26.973-8.342,53.97-16.594c2.131-.651,4.321-1.11,6.486-1.648,9.481-2.351,19.031-4.468,28.426-7.12,7.826-2.207,15.409-5.28,23.225-7.528,12.246-3.526,24.616-6.61,36.9-10.016,10.084-2.8,20.326-4.869,29.92-9.55,5.452-2.659,12.325-2.327,17.9-4.814,4.7-2.1,11.311-1.429,13.781-7.706.123-.312.826-.4,1.676-.774.75,1.4,1.518,2.823,2.543,4.729,10.978-3.283,22.09-6.514,33.127-9.974,2.526-.791,4.7-2.642,7.213-3.529,3.563-1.258,8.07-3.875,10.769-2.7,5.078,2.21,5.253-.843,6.226-3.649,2.166.874,4.379,2.693,6.02,2.272,9.169-2.344,18.253-5.061,27.251-8.011,3.66-1.2,7.024-3.3,11.287-5.359,6.222,3.817,11.465,3.067,15.107-2.018,4.29-.531,8.292.038,10.776-1.638,2.368-1.593,3.742-.678,5.774-.74,3.584-.117,7.209-1.367,10.656-2.594,2.464-.874,4.54-3.173,7.014-3.625,7.425-1.36,15.029-1.775,22.426-3.241,5.006-.99,9.786-3.135,15.118-4.914.744.116,3.211,1.3,4.273.538,7.569-5.431,16.262-6.38,25.1-7.363,8.495-.942,8.772-1.494,9-9.776C1405.08,143.047,1398.919,143.718,1392.748,144.294ZM903.605,591.287a4.7,4.7,0,0,1,2.1.116c1.682.942,3.242,2.107,4.852,3.183q-2.847,1.938-5.695,3.872a56.5,56.5,0,0,1-2.1-5.407C902.625,592.582,903.232,591.9,903.605,591.287Zm25.14-299.83c10.454-3.526,20.97-6.877,31.462-10.286-1.463,1.508-2.738,3.546-4.513,4.163-11.023,3.831-22.173,7.288-33.281,10.869l-.75-1.3A60.18,60.18,0,0,1,928.745,291.457Zm31.719-10.564c.089.031.182.079.271.113l-.164.048-.363.117C960.293,281.082,960.375,280.979,960.464,280.894ZM759.735,362.481c13.538-2.573,26.579-7.71,40.576-7.929l.322,1.7q-20.209,4.323-40.419,8.648Q759.973,363.691,759.735,362.481ZM856.567,571.6l-2.433.648c-5.051-3.724-10.187-7.346-15.087-11.259a5.666,5.666,0,0,1-1.857-4.215,4.035,4.035,0,0,1,2.9-2.745c1.463-.01,3.934.977,4.242,2.039,1.658,5.691,4,10.129,10.941,10.2C855.72,566.274,856.135,569.742,856.567,571.6ZM960.735,281.007q16.75-4.842,33.5-9.676c.243.8.49,1.6.733,2.409-9.687,2.988-19.335,6.116-29.1,8.82C964.411,282.963,962.482,281.654,960.735,281.007Zm-142.8-33.155c-.055-.569-.11-1.134-.161-1.7l25.527-8.213.4,1.234Q830.819,243.511,817.937,247.852Z" transform="matrix(-0.966, 0.259, -0.259, -0.966, 1592.32, 820.678)"/></svg>