<svg xmlns="http://www.w3.org/2000/svg" width="1305.904" height="896.79" viewBox="0 0 1305.904 896.79"><defs><style>.a{fill:silver; opacity: 0.7;}</style></defs><path class="a" d="M1317.79,144.182q-11.147,1.039-22.307,1.95c-4.9.406-9.81.715-14.712,1.105-4.206.335-8.4.819-12.607,1.076-7.731.474-15.472.838-23.21,1.234-5.06.258-10.135.313-15.176.783-5.55.519-11.051,1.811-16.6,2.014-4.7.174-9.565-1.611-14.135-.97-12.317,1.731-24.586,3.729-36.971,5.063-9.549,1.028-19,3.01-28.463,4.747-11.818,2.166-23.635,4.334-35.382,6.835-12.881,2.743-25.688,5.827-38.514,8.824-11.031,2.575-22.008,5.408-33.087,7.744-2.929.619-6.159-.168-9.249-.313a48.03,48.03,0,0,0-12.127,1.6c-4.972,1.2-10.328,1.8-14.715,4.144-4.782,2.562-9.539.161-14.08,1.644-.448.145-.931.184-1.389.309-13.323,3.7-26.587,7.615-39.974,11.054-14.064,3.613-28.247,6.742-42.362,10.145-5.4,1.305-11.07,2.1-16.081,4.331a95.277,95.277,0,0,1-28.244,7.606c-3.977.451-8.1.635-11.84,1.879-5.827,1.94-11.205,5.985-17.1,6.806-11.895,1.66-22.826,6.043-34.1,9.559-10.2,3.181-20.522,5.959-30.793,8.914-.277-.651-.551-1.3-.828-1.953l18.685-7.56-.7-1.9q-80.259,25.016-160.512,50.032l-1.36-3.7L447.6,342.039l3.5-4.683c-10.767,4.173-19.626,9.143-29.707,9.733-.2-3.545-.345-6.152-.516-9.21-7.593,2.5-14.2,4.673-20.8,6.845-.219-.477-.438-.951-.657-1.428q3.983-2.335,7.963-4.67l-.387-1.608c-3.055.393-6.294.258-9.127,1.266-10.264,3.651-20.387,7.7-30.574,11.563-1.54.583-3.922,1.911-4.6,1.341-3.922-3.326-7.251-.477-10.509.741-18.253,6.822-36.407,13.916-54.644,20.78-2.594.977-6.642,2.62-7.979,1.505-3.084-2.569-5.343-1.012-7.854-.151-19.539,6.7-38.9,13.974-58.624,20.081-15.395,4.766-31.131,8.585-46.919,11.834-5.646,1.16-9.7,3.448-11.341,8.269a67.234,67.234,0,0,0-3.729,18.7c-.371,9.181,1.06,18.431.757,27.618a77.463,77.463,0,0,0,3.558,27.122c3.007,9.152,8.569,15.169,18.579,16.207,3.638.377,7.274.78,11.047,1.189-.1,7.609-7.1,8.311-10.422,12.143a30.138,30.138,0,0,1,.49,4.431c-.213,5.308,3.829,10.848-.948,16.036-.406.441,1.138,4.028,2.13,4.209,11.511,2.091,21.908,11.7,34.734,5.372.622-.306,1.75.6,2.652.638,10.374.416,20.748.88,31.125,1.112,8.675.19,17.528-2.034,26.32,2.24-.873,4.409-1.5,8.4-6.868,10.338-17.125,6.194-34.035,12.981-51.134,19.249-16.677,6.113-33.642,11.466-50.184,17.912-12.742,4.963-25.8,10.267-29.861,25.569-2.842,10.719-5.933,21.408-7.992,32.285a163.908,163.908,0,0,0-2.407,25.421c-.412,13.455-1.35,27.19,5.45,39.555,1.589,2.884,5.3,6,8.353,6.368,5.185.622,10.709-.445,15.933-1.55a170.871,170.871,0,0,0,17.7-5.111q20.888-6.84,41.685-13.951c11.344-3.88,22.623-7.95,35.269-12.407.815,8.982,1.811,16.549,2.1,24.141.271,7.267-.21,14.56-.329,21.84-.055,3.216.483,6.542-.161,9.629-1.366,6.561-2.823,13-.667,19.662,4.273,13.206,8.572,26.407,12.688,39.665,3.142,10.113,11.173,16.185,18.985,21.908,10.986,8.054,24.589,7.5,37.444,8.788,4.837.483,10,.619,14.657-.542,19.478-4.853,38.83-10.222,58.2-15.491,3.12-.848,6.062-2.349,9.185-3.181,12.559-3.348,25.279-6.149,37.706-9.932,10.641-3.239,20.976-7.493,31.411-11.389,7.341-2.739,15.794-3.129,21.225-10,.525-.667,1.666-.867,2.54-1.247,7.383-3.213,14.75-6.468,22.166-9.61,5.846-2.475,11.708-4.924,17.641-7.183,12.994-4.956,26.146-9.523,39.027-14.757,9.43-3.832,18.36-8.895,27.809-12.662,18.669-7.441,37.651-14.1,56.307-21.566q36.188-14.468,72.05-29.732c16.935-7.167,33.635-14.879,50.48-22.259,18.224-7.989,36.374-16.165,54.812-23.635,5.6-2.266,11.318-3.484,14.122-9.588a4.373,4.373,0,0,1,2.2-1.721c4.985-2.188,9.977-4.373,15.027-6.4,8.137-3.265,16.352-6.336,24.483-9.62,10.055-4.064,20.052-8.266,30.081-12.4,3.725-1.534,7.577-2.81,11.17-4.605,6.1-3.052,11.9-6.735,18.092-9.584,10.664-4.9,21.534-9.359,32.308-14.032,12.078-5.24,24.254-10.284,36.168-15.875,5-2.349,10.838-4.924,13.777-9.146,3.384-4.863,6.671-8.924,12.008-11.411,3.613-1.685,7.1-3.648,10.239-5.279.677-3.684,1.25-6.806,1.84-10-4.248-3.9-8.576-3.809-13.007-.722-3.4,2.372-6.719,4.041-11.234,2.836-2.033-.545-4.667.567-6.867,1.366-5.572,2.021-10.977,4.531-16.594,6.407-9.616,3.213-19.478,5.727-28.991,9.2-11.06,4.038-21.8,8.933-32.791,13.187-5.9,2.285-13,2.707-17.773,6.32-5.275,4-11.073,3.529-16.532,5.272-1.167.374-3.658-1-4.367-2.233-.745-1.3-.777-4.325.1-4.989,3.487-2.639,7.2-5.375,11.279-6.751,10.58-3.571,21-7.235,29.942-14.235a9.656,9.656,0,0,1,5.3-1.576c10.28-.416,18.153-6.458,26.555-11.212.993-.561,1.379-2.188,2.3-3.758-1.586-.577-2.8-1.511-3.655-1.25-6.532,1.995-13.065,4.035-19.468,6.413-14.122,5.246-28.137,10.793-42.288,15.956-2.047.745-4.666-.245-6.938.1a40.524,40.524,0,0,0-9.278,2.3c-3.851,1.576-7.4,3.87-11.167,5.662-5.185,2.469-11.753,1.676-15.888,6.9-.49.619-3.365.052-4.551-.79-1.121-.793-1.473-2.672-1.753-3.239-4.467,1.183-8.289,2.108-12.053,3.232-2.169.648-4.248,1.6-6.365,2.42a1.321,1.321,0,0,0,.077-.126c-3.074.342-6.155.632-9.22,1.041-4.212.561-8.434,1.1-12.61,1.856-4.064.741-8.1,2.52-12.1,2.411a16.79,16.79,0,0,0-9.842,2.594c-3.568,2.111-8.166,2.485-12.317,3.616,2.03-7.251,7.029-9.159,12.826-9.942a14.9,14.9,0,0,0,5.076-1.238c7.631-4.164,15.159-8.518,22.723-12.807,1.4-.793,3.716-1.35,4.012-2.446.761-2.836-.255-6.448,1.125-8.73,1.205-1.988,4.711-2.581,7.2-3.79-.284-.693-.564-1.383-.847-2.072-6.626.409-11.589,5.859-17.879,7.457-.232-1.93-.429-3.561-.748-6.2-1.618,1.444-2.385,2.211-3.236,2.878-7.954,6.22-14.55,14.248-24.683,17.551-6.987,2.275-10.519.387-11.5-6.993-.245-1.853-.583-3.7-1.083-6.816a29.23,29.23,0,0,0-3,3.213c-3.329,5.556-6.449,11.244-9.981,16.664-.947,1.46-3.029,2.266-4.74,3.052-.245.113-2.082-1.927-1.876-2.381.7-1.553,1.7-3.477,3.1-4.119,4.376-1.988,4-4.528,1.666-8.179-2.291.944-4.328,1.779-7.074,2.91-1.022-5.965,2.459-9.726,5.769-11.714,3.568-2.14,8.559-1.911,13.783-2.871-1.959-2.665-3.168-4.309-4.135-5.62a57.324,57.324,0,0,1,2.372-6.71,53.009,53.009,0,0,1,3.706-5.633c-.1-2.688-.406-6.394,1.254-7.838,5.62-4.892,12.826-5.582,16.951-2.314,1.843-4.647,4.306-8.121,8.353-3.526,19.829-6.188,38.382-13.69,57.989-18.05,20.338-4.521,40.59-9.446,60.867-14.241,20.026-4.734,39.974-9.816,60.074-14.206,20.074-4.383,40.293-8.1,60.522-12.114-1.067-1.8-2.062-3.493-3.88-6.581l15.83-3.265c-1.063-1.279-3.552-3.442-3.226-4.016,3.361-5.943-2.246-6.839-4.989-8.953-3.158-2.43-6.6-1.892-9.781.6a17.322,17.322,0,0,1-3.712,1.7q-.58-1.542-1.154-3.087c5.427-.606.222-1.988.239-3,.019-1.5.148-3,.251-4.847,1.366,1.428,2.288,2.388,3.506,3.658,2.107-2.942,2.488-5.553-1-5.469-5.717.142-11.405,1.437-17.106,2.246-2.237-.947-4.715-4.212-6.736,2.581-1.173-4.631-11.067-1.189-7.248-9.91-3.439.454-6.616.87-10.016,1.318,1.118-1.682,1.982-2.978,2.842-4.277-.313-.37-.628-.738-.941-1.109l-12.743,5c-2.327-4.37-7.406.844-11.982-2.585,6.864-1.544,12.7-2.855,18.533-4.17l-.139-2.166q-10.828.532-21.653,1.06l-.206-1.4c5.324-1.792,12.282-1.985,10.132-10.777-.222-.9,2.15-2.975,3.69-3.629,2.082-.88,4.525-.912,6.948-1.331-.989-.993-2.208-1.714-2.607-2.752s.467-3.236.013-3.477c-6.52-3.455-6.951-9.652-7.577-15.343,1.611-.806,3.319-1.186,4.173-2.25.606-.757.412-2.591-.061-3.664-.673-1.528-2.378-2.656-2.862-4.2-2.262-7.222.064-13.364,5.366-18.392-4.979-4.66-6.162-13.126-3.045-19.41-1.5-2.63-2.994-5.259-4.509-7.918,1.782-2.839,3.38-5.388,5.021-8.008-3.129-4.373-6.964-2.775-7.66.49-1.386,6.478-6.684,4.973-10.406,6.523-1.863.773-4.206.3-6.275.69-4.773.893-9.491,2.075-14.267,2.946q-27.859,5.076-55.733,10.026c-9.075,1.628-18.108,4.106-27.245,4.592-8.924.471-16.523,5.192-25.649,5.475-11.083.342-22.082,3.725-33.091,5.914-5,.993-9.881,2.772-14.915,3.345-17.077,1.947-33.945,4.721-50.3,10.213-2.417.812-5.072.886-7.6,1.373-7.154,1.379-14.592,2-21.341,4.489-4.164,1.531-6.813,1.579-10.284-1.434,1.624-1.553,3.049-2.913,4.473-4.273l-.587-1.279Q675.28,361.6,631.725,372.815c-.271-.912-.545-1.824-.815-2.736,38.917-15.988,79.288-28.1,118.837-42.365,40-14.431,80.777-26.719,121.215-39.948l-.483-1.895c-4.518,1.1-8.991,2.752-13.571,3.139-5.343.454-9.249,6.033-15.343,3.754-1.415-.528-3.632.773-5.375,1.492-4.879,2.017-9.581,4.531-14.573,6.191-10.113,3.368-20.348,6.394-30.59,9.355-2.372.686-4.979.551-7.48.793l-.28-1.7a10.571,10.571,0,0,1,2.072-1.36c10.628-3.822,21.237-7.7,31.917-11.363q30.087-10.33,60.255-20.425c11.115-3.7,22.343-7.058,33.51-10.609,2.878-.915,5.682-2.066,8.566-2.958q25.369-7.846,50.76-15.607c2-.612,4.064-1.044,6.1-1.55,8.917-2.211,17.9-4.2,26.735-6.7,7.361-2.075,14.492-4.966,21.843-7.08,11.518-3.316,23.152-6.216,34.705-9.42,9.484-2.63,19.117-4.579,28.14-8.982,5.127-2.5,11.592-2.188,16.839-4.528,4.425-1.972,10.638-1.344,12.962-7.248.116-.293.777-.377,1.576-.728.706,1.315,1.427,2.656,2.391,4.447,10.325-3.087,20.777-6.126,31.157-9.381,2.375-.744,4.425-2.485,6.784-3.319,3.352-1.183,7.59-3.645,10.129-2.536,4.776,2.079,4.94-.793,5.856-3.432,2.037.822,4.119,2.533,5.662,2.137,8.624-2.2,17.167-4.76,25.63-7.535,3.442-1.128,6.607-3.1,10.616-5.04,5.852,3.59,10.783,2.884,14.209-1.9,4.035-.5,7.8.035,10.135-1.54,2.227-1.5,3.519-.638,5.43-.7,3.371-.11,6.781-1.286,10.023-2.44,2.317-.822,4.27-2.984,6.6-3.41,6.983-1.279,14.135-1.669,21.092-3.049,4.708-.931,9.2-2.949,14.219-4.621.7.11,3.02,1.225,4.019.506,7.119-5.108,15.295-6,23.606-6.926,7.989-.886,8.25-1.405,8.466-9.194C1329.389,143.009,1323.594,143.64,1317.79,144.182ZM857.739,564.591a4.416,4.416,0,0,1,1.975.11c1.582.886,3.049,1.982,4.563,2.994q-2.678,1.823-5.356,3.642a53.129,53.129,0,0,1-1.979-5.085C856.817,565.809,857.387,565.168,857.739,564.591Zm23.645-282c9.833-3.316,19.723-6.468,29.591-9.674-1.376,1.418-2.575,3.335-4.244,3.916-10.367,3.6-20.854,6.855-31.3,10.222l-.706-1.225A56.606,56.606,0,0,1,881.383,282.593Zm29.833-9.936c.084.029.171.074.254.106l-.155.045-.342.11C911.055,272.835,911.132,272.738,911.216,272.657ZM722.425,349.393c12.733-2.42,25-7.251,38.163-7.457l.3,1.6q-19.007,4.065-38.015,8.134Q722.649,350.53,722.425,349.393ZM813.5,546.07l-2.288.609c-4.75-3.5-9.581-6.909-14.189-10.59a5.329,5.329,0,0,1-1.747-3.964A3.8,3.8,0,0,1,798,529.544c1.376-.01,3.7.919,3.99,1.917,1.56,5.353,3.758,9.526,10.29,9.6C812.7,541.065,813.092,544.327,813.5,546.07ZM911.47,272.764q15.754-4.554,31.508-9.1c.229.754.461,1.508.69,2.266-9.111,2.81-18.186,5.753-27.373,8.3C914.929,274.6,913.114,273.373,911.47,272.764ZM777.165,241.581c-.052-.535-.1-1.067-.151-1.6l24.009-7.725.377,1.16Q789.281,237.5,777.165,241.581Z" transform="matrix(0.985, -0.174, 0.174, 0.985, -155.103, 91.624)"/></svg>