<svg xmlns="http://www.w3.org/2000/svg"
 width="131.068"
 height="123.113"
 viewBox="0 0 131.068 123.113">
 <defs><style>.a{fill:#fff;fill-rule:evenodd;}</style></defs>
 <g transform="translate(-252.218 -74.784)">
<path class="a" d="M309.079,132.853l6.983-13.737a1.507,1.507,0,0,1,1.375-.845,1.491,1.491,0,0,1,1.382.83l5.561,10.641,26.811-54.1a1.526,1.526,0,0,1,1.4-.853,1.508,1.508,0,0,1,1.39.861l23.066,46.915,9.456-15.38a1.558,1.558,0,0,1,2.654,0l15.459,25.255a1.5,1.5,0,0,1,.221.8v2.591a1.522,1.522,0,0,1-1.13,1.485,1.538,1.538,0,0,1-1.746-.687l-14.132-23.082-9.748,15.839a1.558,1.558,0,0,1-2.718-.127l-22.79-46.362-26.74,53.937a1.553,1.553,0,0,1-2.765.032l-5.593-10.7-6.8,13.4a1.556,1.556,0,0,1-2.725.095l-2.141-3.586-2.5,3.531a1.552,1.552,0,0,1-2.82-.885v-2.354a1.5,1.5,0,0,1,.276-.885l3.973-5.617a1.56,1.56,0,0,1,2.607.1Z"
 transform="translate(-34.821)"/>
 <path class="a" d="M367.882,373.342a13,13,0,0,0,1.391.071h1.383a5.518,5.518,0,0,0,3.255-.948q1.351-.948,1.351-3.942V329.516h8.026v38.415a18.018,18.018,0,0,1-.948,6.359,9.772,9.772,0,0,1-2.552,3.91,9.253,9.253,0,0,1-3.689,2.006,16.114,16.114,0,0,1-4.345.585h-1.975a12.692,12.692,0,0,1-1.9-.15Zm-19.867-8.918,0,0h7.749l-3.871-25.847Zm18.335,16.218,0,0h-8.105l-1.39-9.266H347l-1.39,9.266h-7.37l8.176-51.125h11.762Zm-50.02-37.025,0,0v37.025H309.1V329.516h10.072l8.255,30.6v-30.6h7.149v51.125h-8.247ZM287.781,363.7m0,0-10.159-34.181h8.4l6.13,23.3,6.138-23.3h7.663L295.807,363.7v16.944h-8.026Zm-35.35-21.913,0,0q0-6.209,2.962-9.527t8.871-3.318q5.913,0,8.871,3.318t2.955,9.527V343.4H268.5v-2.125a5.707,5.707,0,0,0-1.059-3.91,4.439,4.439,0,0,0-5.917,0,5.707,5.707,0,0,0-1.059,3.91,9.006,9.006,0,0,0,1.169,4.637,19,19,0,0,0,2.923,3.8q1.742,1.789,3.76,3.578a36.674,36.674,0,0,1,3.76,3.9,20.141,20.141,0,0,1,2.915,4.819,15.9,15.9,0,0,1,1.169,6.367q0,6.2-3.026,9.527t-8.95,3.318q-5.912,0-8.942-3.318t-3.025-9.527v-3.152h7.591v3.658c0,1.848.379,3.144,1.129,3.871a4.727,4.727,0,0,0,6.059,0c.758-.727,1.129-2.022,1.129-3.871a9.112,9.112,0,0,0-1.161-4.645,19.47,19.47,0,0,0-2.923-3.792q-1.754-1.79-3.76-3.578a35.3,35.3,0,0,1-3.76-3.91,19.863,19.863,0,0,1-2.923-4.819A16,16,0,0,1,252.431,341.783Z"
  transform="translate(0 -183.328)"/></g></svg>