<svg xmlns="http://www.w3.org/2000/svg" width="137.16" height="136.032" viewBox="0 0 137.16 136.032"><defs><style>.a{fill:#ffbf00;}.b{fill:#060009;}</style></defs><g transform="translate(-109.854 -93.824)"><path class="a" d="M214.945,222.3a1.718,1.718,0,0,0,.555-.083,1.606,1.606,0,0,0,.422-.211,1.342,1.342,0,0,0,.294-.283,1.25,1.25,0,0,0,.172-.3V220.5q-.155-.011-.316-.017c-.108,0-.213-.006-.316-.006a5.718,5.718,0,0,0-.671.039,2.129,2.129,0,0,0-.577.144,1.014,1.014,0,0,0-.4.289.7.7,0,0,0-.15.461.82.82,0,0,0,.278.638,1.021,1.021,0,0,0,.71.25m-1.576-4.45a3.194,3.194,0,0,1,.982-.377,5.481,5.481,0,0,1,1.171-.122,2.31,2.31,0,0,1,.926.155,1.291,1.291,0,0,1,.533.4,1.387,1.387,0,0,1,.244.549,3,3,0,0,1,.061.6q0,.666-.033,1.3t-.033,1.2q0,.41.033.777a3.668,3.668,0,0,0,.122.677h-.655l-.233-.777h-.055a1.846,1.846,0,0,1-.25.305,1.586,1.586,0,0,1-.361.266,2.273,2.273,0,0,1-.488.194,2.347,2.347,0,0,1-.632.078,1.916,1.916,0,0,1-.66-.111,1.539,1.539,0,0,1-.527-.316,1.477,1.477,0,0,1-.35-.494,1.6,1.6,0,0,1-.128-.655,1.54,1.54,0,0,1,.2-.816,1.441,1.441,0,0,1,.56-.521,2.775,2.775,0,0,1,.866-.278,6.888,6.888,0,0,1,1.115-.083h.305a2.153,2.153,0,0,1,.305.022q.033-.333.033-.6a1.191,1.191,0,0,0-.244-.854,1.249,1.249,0,0,0-.888-.244,3.215,3.215,0,0,0-.4.028c-.144.02-.292.046-.444.081a3.379,3.379,0,0,0-.433.126,2.055,2.055,0,0,0-.361.165Zm-3.828,2.641h-.51v2.5h-.888v-7.767h.888v4.727l.455-.155,1.72-2.352h1.032l-1.7,2.23-.455.366.555.444,1.853,2.508h-1.1Zm-3.628.988a.682.682,0,0,0-.2-.521,1.693,1.693,0,0,0-.494-.316q-.294-.128-.644-.244a3.016,3.016,0,0,1-.644-.3,1.665,1.665,0,0,1-.494-.472,1.341,1.341,0,0,1-.2-.777,1.425,1.425,0,0,1,.455-1.171,1.946,1.946,0,0,1,1.265-.372,4.064,4.064,0,0,1,1,.105,3.908,3.908,0,0,1,.7.25l-.211.732a3.487,3.487,0,0,0-.616-.216,3.042,3.042,0,0,0-.771-.094,1.225,1.225,0,0,0-.716.166.67.67,0,0,0-.227.577.545.545,0,0,0,.2.449,2.142,2.142,0,0,0,.494.289q.294.128.643.25a2.766,2.766,0,0,1,.644.322,1.784,1.784,0,0,1,.494.505,1.448,1.448,0,0,1,.2.8,1.884,1.884,0,0,1-.117.666,1.347,1.347,0,0,1-.361.532,1.755,1.755,0,0,1-.6.35,2.542,2.542,0,0,1-.849.128,4.1,4.1,0,0,1-1.076-.122,3.4,3.4,0,0,1-.743-.289l.266-.755a3.26,3.26,0,0,0,.666.266,2.9,2.9,0,0,0,.832.122,1.5,1.5,0,0,0,.788-.189A.726.726,0,0,0,205.912,221.48Zm-7-4.039,1.276,3.24.277,1.065h.022l.211-1.087.987-3.218h.843l-1.864,5.67h-.433l-1.454-3.662-.211-.91h-.033l-.222.921-1.4,3.651h-.433l-1.931-5.67h.965l1.1,3.229.188,1.076h.011l.266-1.1,1.187-3.207Zm-8.81,2.774a3.846,3.846,0,0,0,.083.81,2.131,2.131,0,0,0,.261.677,1.4,1.4,0,0,0,.466.466,1.31,1.31,0,0,0,.7.177q1.509.011,1.509-2.131a3.918,3.918,0,0,0-.083-.821,2.129,2.129,0,0,0-.261-.677,1.357,1.357,0,0,0-.466-.461,1.343,1.343,0,0,0-.7-.172Q190.1,218.074,190.1,220.215Zm-.921,0a3.279,3.279,0,0,1,.627-2.158,2.219,2.219,0,0,1,1.8-.749,2.633,2.633,0,0,1,1.082.205,1.964,1.964,0,0,1,.76.588,2.54,2.54,0,0,1,.444.921,4.6,4.6,0,0,1,.144,1.193,3.279,3.279,0,0,1-.627,2.158,2.219,2.219,0,0,1-1.8.749,2.638,2.638,0,0,1-1.082-.205,1.963,1.963,0,0,1-.76-.588,2.547,2.547,0,0,1-.444-.921A4.6,4.6,0,0,1,189.179,220.215Zm-2.2,2.774v-3.162a2.7,2.7,0,0,0-.25-1.3.961.961,0,0,0-.915-.438,1.474,1.474,0,0,0-.971.316,1.684,1.684,0,0,0-.538.793v3.795h-.888v-5.548h.622l.166.677h.044a2.009,2.009,0,0,1,.716-.582,2.342,2.342,0,0,1,1.071-.228,2.736,2.736,0,0,1,.8.105,1.2,1.2,0,0,1,.571.372,1.775,1.775,0,0,1,.344.715,4.637,4.637,0,0,1,.116,1.138v3.351Zm-4.716-4.694a2.005,2.005,0,0,0-.632-.111,1.057,1.057,0,0,0-.755.261,1.135,1.135,0,0,0-.344.66v3.884h-.888v-5.548h.622l.166.677h.044a1.711,1.711,0,0,1,.5-.582,1.279,1.279,0,0,1,.749-.205,2.717,2.717,0,0,1,.721.111ZM175.63,222.3a1.718,1.718,0,0,0,.555-.083,1.607,1.607,0,0,0,.422-.211,1.355,1.355,0,0,0,.294-.283,1.257,1.257,0,0,0,.172-.3V220.5q-.156-.011-.316-.017t-.316-.006a5.718,5.718,0,0,0-.671.039,2.133,2.133,0,0,0-.577.144,1.015,1.015,0,0,0-.4.289.7.7,0,0,0-.15.461.819.819,0,0,0,.277.638A1.022,1.022,0,0,0,175.63,222.3Zm-1.576-4.45a3.192,3.192,0,0,1,.982-.377,5.48,5.48,0,0,1,1.171-.122,2.309,2.309,0,0,1,.926.155,1.293,1.293,0,0,1,.533.4,1.386,1.386,0,0,1,.244.549,3,3,0,0,1,.061.6q0,.666-.033,1.3t-.033,1.2q0,.41.033.777a3.645,3.645,0,0,0,.122.677h-.655l-.233-.777h-.055a1.846,1.846,0,0,1-.25.305,1.592,1.592,0,0,1-.361.266,2.273,2.273,0,0,1-.488.194,2.349,2.349,0,0,1-.632.078,1.916,1.916,0,0,1-.66-.111,1.537,1.537,0,0,1-.527-.316,1.477,1.477,0,0,1-.35-.494,1.6,1.6,0,0,1-.128-.655,1.54,1.54,0,0,1,.2-.816,1.439,1.439,0,0,1,.56-.521,2.771,2.771,0,0,1,.865-.278,6.893,6.893,0,0,1,1.115-.083h.305a2.157,2.157,0,0,1,.305.022q.033-.333.033-.6a1.191,1.191,0,0,0-.244-.854,1.248,1.248,0,0,0-.888-.244,3.208,3.208,0,0,0-.4.028c-.144.02-.292.046-.444.081a3.386,3.386,0,0,0-.433.126,2.058,2.058,0,0,0-.361.165Zm.2-1.809h-2.419v6.946h-.921v-6.946H168.5v-.821h5.759Zm-11.74,6.258a1.718,1.718,0,0,0,.555-.083,1.606,1.606,0,0,0,.422-.211,1.349,1.349,0,0,0,.294-.283,1.257,1.257,0,0,0,.172-.3V220.5q-.155-.011-.316-.017t-.316-.006a5.718,5.718,0,0,0-.671.039,2.133,2.133,0,0,0-.577.144,1.015,1.015,0,0,0-.4.289.7.7,0,0,0-.15.461.819.819,0,0,0,.278.638A1.021,1.021,0,0,0,162.515,222.3Zm-1.576-4.45a3.194,3.194,0,0,1,.982-.377,5.48,5.48,0,0,1,1.171-.122,2.311,2.311,0,0,1,.927.155,1.292,1.292,0,0,1,.532.4,1.386,1.386,0,0,1,.244.549,2.986,2.986,0,0,1,.061.6q0,.666-.033,1.3t-.033,1.2q0,.41.033.777a3.668,3.668,0,0,0,.122.677h-.655l-.233-.777H164a1.834,1.834,0,0,1-.25.305,1.587,1.587,0,0,1-.361.266,2.267,2.267,0,0,1-.488.194,2.348,2.348,0,0,1-.632.078,1.916,1.916,0,0,1-.66-.111,1.539,1.539,0,0,1-.527-.316,1.48,1.48,0,0,1-.35-.494,1.6,1.6,0,0,1-.128-.655,1.54,1.54,0,0,1,.2-.816,1.439,1.439,0,0,1,.56-.521,2.775,2.775,0,0,1,.866-.278,6.888,6.888,0,0,1,1.115-.083h.305a2.154,2.154,0,0,1,.305.022q.033-.333.033-.6a1.191,1.191,0,0,0-.244-.854,1.249,1.249,0,0,0-.888-.244,3.211,3.211,0,0,0-.4.028c-.144.02-.292.046-.444.081a3.378,3.378,0,0,0-.433.126,2.055,2.055,0,0,0-.361.165Zm-2.885-2.1a.618.618,0,0,1,.172-.438.575.575,0,0,1,.438-.183.629.629,0,0,1,.455.183.589.589,0,0,1,.189.438.537.537,0,0,1-.189.422.663.663,0,0,1-.455.166.6.6,0,0,1-.438-.166A.562.562,0,0,1,158.054,215.754Zm.189,1.687h.888v5.848a2.715,2.715,0,0,1-.355,1.542,1.281,1.281,0,0,1-1.132.51q-.089,0-.166-.006c-.052,0-.107-.009-.166-.017v-.755a1.088,1.088,0,0,0,.494-.094.642.642,0,0,0,.283-.294,1.424,1.424,0,0,0,.128-.5q.028-.305.028-.716Zm-5.526,4.771,2.563-3.529.466-.466h-3.029v-.777h3.95v.777l-2.576,3.562-.453.433h3.029v.777h-3.95Zm-2.985-4.128a1.538,1.538,0,0,0-1.049.344,1.721,1.721,0,0,0-.471,1.176h2.752a1.7,1.7,0,0,0-.322-1.182A1.2,1.2,0,0,0,149.732,218.084Zm1.909,4.461a2.508,2.508,0,0,1-.838.422,3.616,3.616,0,0,1-1.071.156,2.711,2.711,0,0,1-1.1-.205,1.958,1.958,0,0,1-.766-.588,2.55,2.55,0,0,1-.444-.915,4.584,4.584,0,0,1-.144-1.2,3.256,3.256,0,0,1,.632-2.164,2.244,2.244,0,0,1,1.809-.743,3.484,3.484,0,0,1,.755.083,1.595,1.595,0,0,1,1.165.976,2.824,2.824,0,0,1,.188,1.126,5.523,5.523,0,0,1-.066.81H148.2a3.388,3.388,0,0,0,.1.865,1.684,1.684,0,0,0,.311.638,1.346,1.346,0,0,0,.549.4,2.184,2.184,0,0,0,.827.139,2.254,2.254,0,0,0,.755-.133,1.6,1.6,0,0,0,.566-.31Zm-5.016.078a2.423,2.423,0,0,1-.788.372,3.51,3.51,0,0,1-.954.128,2.581,2.581,0,0,1-1.087-.205,1.856,1.856,0,0,1-.727-.588,2.5,2.5,0,0,1-.411-.921,5.163,5.163,0,0,1-.128-1.193,3.3,3.3,0,0,1,.621-2.158,2.19,2.19,0,0,1,1.787-.749,4.2,4.2,0,0,1,.9.083,2.773,2.773,0,0,1,.671.238l-.255.766a2.428,2.428,0,0,0-.566-.227,2.569,2.569,0,0,0-.666-.083q-1.576,0-1.576,2.131a3.784,3.784,0,0,0,.083.8,1.984,1.984,0,0,0,.278.677,1.455,1.455,0,0,0,.51.472,1.581,1.581,0,0,0,.782.177,1.972,1.972,0,0,0,.715-.122,2.036,2.036,0,0,0,.516-.277Zm-7.157-4.538a1.538,1.538,0,0,0-1.049.344,1.722,1.722,0,0,0-.472,1.176H140.7a1.705,1.705,0,0,0-.322-1.182A1.2,1.2,0,0,0,139.468,218.084Zm1.908,4.461a2.506,2.506,0,0,1-.838.422,3.618,3.618,0,0,1-1.071.156,2.71,2.71,0,0,1-1.1-.205,1.956,1.956,0,0,1-.766-.588,2.546,2.546,0,0,1-.444-.915,4.585,4.585,0,0,1-.144-1.2,3.256,3.256,0,0,1,.632-2.164,2.244,2.244,0,0,1,1.809-.743,3.482,3.482,0,0,1,.755.083,1.593,1.593,0,0,1,1.165.976,2.819,2.819,0,0,1,.189,1.126,5.493,5.493,0,0,1-.067.81h-3.562a3.389,3.389,0,0,0,.1.865,1.681,1.681,0,0,0,.311.638,1.346,1.346,0,0,0,.549.4,2.184,2.184,0,0,0,.827.139,2.253,2.253,0,0,0,.755-.133,1.605,1.605,0,0,0,.566-.31Zm-7.024-6.791a.618.618,0,0,1,.172-.438.575.575,0,0,1,.438-.183.63.63,0,0,1,.455.183.59.59,0,0,1,.189.438.538.538,0,0,1-.189.422.663.663,0,0,1-.455.166.6.6,0,0,1-.438-.166A.562.562,0,0,1,134.352,215.754Zm.189,1.687h.888v5.548h-.888Zm-5.26-1.487h-.316q-.172,0-.339.011l-.3.022c-.093.007-.165.015-.217.022v6.214a1.563,1.563,0,0,0,.211.017l.322.011.322.011q.156.006.211.006a2.873,2.873,0,0,0,1.3-.266,2.254,2.254,0,0,0,.843-.716,2.9,2.9,0,0,0,.449-1.032,5.381,5.381,0,0,0,.133-1.2,5.02,5.02,0,0,0-.122-1.093,2.873,2.873,0,0,0-.422-.993,2.318,2.318,0,0,0-.8-.727A2.572,2.572,0,0,0,129.281,215.954Zm101.837-10.733a7.873,7.873,0,0,1-1.4,1.653,8.7,8.7,0,0,1-2.269,1.459l0-.015.382-1.953a1.075,1.075,0,0,0-.616-1.2,4.755,4.755,0,0,1-1.1-.627l-.016-.016a.474.474,0,0,1-.136-.512l1.383-7.109h.87a3.381,3.381,0,0,0,2.551-1.09Zm-5.652-20.781v-23.3h7.548v29.312a3.015,3.015,0,0,0-1.125.42q-.029-.043-.063-.084a1.052,1.052,0,0,0-.838-.4H228.62l.9-4.7a1.086,1.086,0,0,0-1.066-1.29h-2.482A3.864,3.864,0,0,0,225.467,184.44Zm-6.93,17.871q.536.06,1.123.067l-.072.373a6.034,6.034,0,0,0-.154,1.306,6.661,6.661,0,0,0,2.237,5.252h-1.35a12.679,12.679,0,0,1-1.784-.137Zm-18.663-8.371h7.273l-3.637-24.289Zm10.964,15.232H209.48l-1.3-8.714h-9.263l-1.3,8.714h-6.93l7.685-48.029h11.047l6.767,42.295h-1.4a3.464,3.464,0,0,0-2.12.684,3.118,3.118,0,0,0-1.231,1.979l-.584,3.021C210.843,209.139,210.84,209.155,210.838,209.172ZM170.1,174.385v34.787H163.3V161.143h9.469l7.753,28.749V161.143h6.724v48.029H179.5Zm-26.828,18.869-9.537-32.111h7.89l5.764,21.888,5.764-21.888h7.2l-9.538,32.111v15.918h-7.547ZM110.06,172.67q0-5.832,2.779-8.954t8.336-3.122q5.558,0,8.336,3.122t2.779,8.954v1.51h-7.136v-1.99a5.343,5.343,0,0,0-.995-3.671,4.162,4.162,0,0,0-5.558,0,5.343,5.343,0,0,0-.995,3.671,8.5,8.5,0,0,0,1.1,4.357,18.125,18.125,0,0,0,2.745,3.568q1.647,1.681,3.534,3.362a33.6,33.6,0,0,1,3.533,3.671,18.686,18.686,0,0,1,2.744,4.528,14.953,14.953,0,0,1,1.1,5.969q0,5.832-2.848,8.954t-8.405,3.122q-5.558,0-8.405-3.122t-2.847-8.954v-2.95h7.136v3.431a4.971,4.971,0,0,0,1.063,3.637,4.454,4.454,0,0,0,5.695,0,4.97,4.97,0,0,0,1.064-3.637,8.5,8.5,0,0,0-1.1-4.357,18.132,18.132,0,0,0-2.744-3.568q-1.647-1.681-3.534-3.362a33.6,33.6,0,0,1-3.534-3.671,18.685,18.685,0,0,1-2.744-4.529A14.953,14.953,0,0,1,110.06,172.67Zm20.7-22.785,6.961-13.8a1.086,1.086,0,0,1,1.933-.01l5.64,10.884L171.14,94.43a1.086,1.086,0,0,1,1.95,0l22.254,45.593,9.365-15.343a1.086,1.086,0,0,1,1.855,0l14.706,24.19a1.04,1.04,0,0,1,.158.564v2.483a1.086,1.086,0,0,1-2.013.564l-13.781-22.669-9.6,15.722a1.086,1.086,0,0,1-1.9-.089L172.1,100.316l-25.782,52.4a1.086,1.086,0,0,1-1.938.02L138.717,141.8,131.9,155.322a1.086,1.086,0,0,1-1.9.065l-2.347-3.96-2.724,3.88a1.086,1.086,0,0,1-1.974-.624v-2.25a1.044,1.044,0,0,1,.2-.624l3.781-5.386a1.086,1.086,0,0,1,1.823.07Zm14.567,78.9h52.218v1.075H145.325v-1.075Zm-18.142-13.559q.211-.033.472-.05t.544-.022l.555-.011q.272-.006.505-.006a4.13,4.13,0,0,1,1.615.289,3,3,0,0,1,1.126.8,3.341,3.341,0,0,1,.66,1.237,5.8,5.8,0,0,1,.011,3.1,3.638,3.638,0,0,1-.649,1.287,3.2,3.2,0,0,1-1.154.9,3.972,3.972,0,0,1-1.72.339q-.177,0-.46-.006t-.583-.022q-.3-.016-.555-.028a2.71,2.71,0,0,1-.366-.033Z"/><path class="b" d="M539.349,460.181a2.268,2.268,0,0,1,2.317-1.366h2.983l-6.6,15.308a5.135,5.135,0,0,1-1.8,2.374,4.955,4.955,0,0,1-2.784.717,3.251,3.251,0,0,1-2.738-1.27,4.933,4.933,0,0,1-.865-2.869l-.45-12.24a1.726,1.726,0,0,1,1.964-2.021h2.306l.484,13.4ZM522.538,471.14a1.533,1.533,0,0,0,.45,1.5,5.107,5.107,0,0,0,1.418.848l-.381,1.953a1.627,1.627,0,0,1-1.6,1.531,2.948,2.948,0,0,1-1.953-.763,5.657,5.657,0,0,1-2.317-4.8,4.914,4.914,0,0,1,.131-1.1l3.051-15.712a2.04,2.04,0,0,1,.8-1.3,2.43,2.43,0,0,1,1.469-.467h2.482l-1.15,5.989h3.683l-.5,2.567a2.139,2.139,0,0,1-.814,1.3,2.355,2.355,0,0,1-1.452.467h-1.765Zm-8.221,3.751a2.1,2.1,0,0,1-.8,1.3,2.452,2.452,0,0,1-1.48.467h-2.488l.586-3.034a2.043,2.043,0,0,1,.814-1.3,2.394,2.394,0,0,1,1.469-.467H514.9Z" transform="translate(-297.634 -267.334)"/></g></svg>