<?xml version="1.0" encoding="utf-8"?>
<!-- Generator: Adobe Illustrator 25.3.1, SVG Export Plug-In . SVG Version: 6.00 Build 0)  -->
<svg version="1.1" id="Warstwa_1" xmlns="http://www.w3.org/2000/svg" xmlns:xlink="http://www.w3.org/1999/xlink" x="0px" y="0px"
	 viewBox="0 0 143.3 150" style="enable-background:new 0 0 143.3 150;" xml:space="preserve">
<style type="text/css">
	.st0{fill:#01873F;}
	.st1{fill:#D54032;}
	.st2{fill:#FAC114;}
</style>
<path id="Path_208" class="st0" d="M38.4,24c0-5.5,0-11,0-16.5c-0.2-3.9,2.7-7.2,6.6-7.4c0.2,0,0.5,0,0.7,0c5.7-0.1,11.3,0,17,0
	c0.5,0,1,0.2,1.3,0.7c3.4,5.3,5.1,11.6,4.6,17.9c-0.4,4.9-2.6,9.5-6.1,12.9c-3.2,3-6.6,5.8-10.3,8.2c-3.9,2.6-7.6,5.6-10.9,9
	c-4.6,4.9-7.5,11.3-8.1,18c-0.7,5.2-0.1,10.5,1.8,15.4c0.2,0.5,0.1,0.7-0.5,0.7c-0.2,0-0.4,0-0.7,0c-8.9,0-17.8,0-26.8,0
	c-4,0-7.2-3.2-7.2-7.2c0.1-8.8,0.1-17.6,0-26.3c0-4,3.3-7.3,7.3-7.2c0,0,0,0,0,0c10,0.1,20.1,0,30.1,0.1c0.8,0,1.1-0.2,1.1-1.1
	C38.4,35.4,38.4,29.7,38.4,24z"/>
<path id="Path_209" class="st0" d="M38.7,89.1c0.1,0.1,0.2,0.2,0.3,0.3c3.3,4.6,7.4,8.5,11.7,12.2c4.4,3.9,8.8,7.8,13.1,11.8
	c6.9,6.5,10.6,14.8,12.1,24.1c0.4,2.8,0.5,5.7,0.5,8.5c0,2.2-1.7,4-3.9,4c0,0-0.1,0-0.1,0c-9.1,0-18.1,0-27.2,0
	c-3.8-0.1-6.8-3.3-6.7-7.1c0-12.4,0-24.8,0-37.2V89.1L38.7,89.1z"/>
<path id="Path_210" class="st1" d="M65,44.2c-0.6-0.6-0.8-1.4-0.6-2.2c0.2-0.9,1-1.5,1.9-1.5c0.5,0,0.9,0,1.1-0.6
	c0.3-0.4,0.3-1-0.1-1.4c-0.7-0.9-0.5-2.1,0.4-2.8c0.3-0.3,0.8-0.4,1.2-0.4c0.7,0,0.8-0.4,1-0.8c0.2-0.4,0.1-0.7-0.2-1
	c-0.6-0.6-0.7-1.5-0.4-2.2c0.4-0.9,1.2-1.4,2.2-1.3c0.4-0.6,0.5-1.1-0.2-1.6c-0.6-0.5-0.8-1.3-0.6-2c0.2-0.7,0.8-1.3,1.5-1.5
	c0.2-0.1,0.6-0.3,0.6-0.4c0-0.3-0.1-0.5-0.4-0.7c-1.3-1-0.9-2.4,1-3.3c-0.2-0.3-0.4-0.6-0.7-0.9c-0.7-0.4-1-1.4-0.5-2.1
	c0.1-0.2,0.3-0.4,0.5-0.5c0.6-0.4,0.5-0.9-0.1-1.2c-0.7-0.3-1-1.1-0.8-1.8c0.1-0.2,0.2-0.3,0.3-0.5c0.5-0.5,0.3-0.8-0.2-1.1
	c-0.6-0.2-1-0.8-0.8-1.4c0-0.2,0.1-0.3,0.2-0.4c0.2-0.4,0.2-0.6-0.3-0.8c-0.9-0.3-1.1-0.7-0.8-1.6c0.2-0.5,0-0.7-0.4-0.8
	c-0.5-0.1-0.7-0.5-0.7-1.1c0-0.3,0-0.7-0.2-0.9c-1.2-1.6-2.4-3.1-3.6-4.7c-0.2-0.2-0.3-0.4-0.5-0.6L65,0c0.3,0.1,0.7,0.2,0.9,0.4
	c1.2,1.4,2.3,2.9,3.4,4.4c0.3,0.4,0.8,0.7,1.1,1.1c0.2,0.3,0.4,0.7,0.4,1c0,0.5,0.1,0.7,0.5,0.8c0.6,0.1,1,0.6,1,1.1
	c0,0.2-0.1,0.4-0.2,0.5c-0.2,0.5-0.2,0.7,0.3,0.8c0.6,0.1,1,0.7,1,1.3c0,0.2-0.1,0.4-0.3,0.6c-0.4,0.6-0.2,0.9,0.4,1.2
	c0.7,0.2,1.1,1,0.9,1.7c-0.1,0.2-0.2,0.4-0.4,0.6c-0.5,0.5-0.4,1,0.2,1.4c0.7,0.4,1,1.3,0.6,2c-0.1,0.2-0.3,0.5-0.6,0.6
	c-0.4,0.2-0.5,0.6-0.4,1c0.1,0.1,0.2,0.3,0.3,0.3c0.8,0.5,1.1,1.5,0.6,2.3c-0.2,0.3-0.5,0.6-0.8,0.7c-0.3,0.2-0.5,0.5-0.7,0.9
	c1.1,0.3,1.7,1.5,1.4,2.6c-0.2,1-1.1,1.7-2.1,1.6c-0.4,0.5-0.3,1.2,0.2,1.7c0,0,0,0,0.1,0.1c0.5,0.5,0.7,1.4,0.3,2.1
	c-0.3,0.7-0.9,1.3-1.7,1.3c-0.6,0-1.1,0.6-1.1,1.2c0,0.3,0.1,0.5,0.3,0.7c1,1.3,0.3,3.3-1.3,3.3c-1.2,0-1.4,0.7-1.7,1.5
	c0.9,1.2,1.1,2.3,0.2,3.1c-0.5,0.3-1.1,0.6-1.7,0.7c-0.3,0.1-0.6,0.1-0.7,0.3c-1.6,2.7-3.3,5.3-4.9,8c-0.1,0.1-0.1,0.3-0.2,0.5
	c0.9,0.5,1.4,1.6,1.1,2.6c-0.2,1.1-1.2,1.9-2.3,1.8c-0.4,0-0.6,0.1-0.7,0.5c-0.2,0.9-0.4,1.8-0.6,2.7c-0.1,1.1-0.2,2.2-0.2,3.2
	c1.9,0.6,2.7,1.8,2.2,3.2c-0.2,0.5-0.7,0.8-1,1.3c-0.2,0.2-0.2,0.5-0.2,0.7c0.1,0.3,0.3,0.6,0.5,0.6c0.9-0.1,1.8,0.4,2.1,1.3
	c0.3,0.8,0.1,1.8-0.6,2.4c0.2,0.4,0.5,0.8,0.7,1.1c0.2,0.1,0.4,0.2,0.6,0.2c0.9-0.2,1.8,0.3,2.1,1.2c0.1,0.4,0.1,0.8-0.1,1.1
	c-0.1,0.2,0,0.5,0.1,0.7c1.1,1.2,2.3,2.4,3.4,3.5c0.1,0.1,0.2,0.1,0.4,0.1c-0.1-0.2-0.3-0.5-0.4-0.7c-2.3-3-3.8-6.5-4.6-10.2
	c-1.6-9.1,0.7-17,7.8-23.3c3-2.4,5.6-5.3,7.7-8.6c0.2-0.4,0.4-0.7,0.7-1.1c0,0,0.1,0,0.2-0.1c0.1,0.2,0.1,0.3,0.2,0.5
	c0,0.4,0,0.7,0.1,1.1c0.2,2.1,0.9,2.8,3,2.8c9.4,0,18.7,0.1,28.1,0c4,0,7.2,3.2,7.3,7.1c0,0,0,0,0,0c0,8.8,0,17.6,0,26.4
	c0.1,3.9-2.9,7.1-6.8,7.2c-0.2,0-0.3,0-0.5,0c-7.7,0-15.4,0-23.2,0h-0.8c0.2-1.5,2.3-2.8,3.5-2.7c0.8,0.1,1.5,0.2,2.3,0.3
	c2.1,0.4,3.5-0.6,3.6-2.7c0-0.7,0.3-1.4,0.8-1.9c0.7-0.5,0.2-1-0.2-1.4c1.3-0.8,1.4-1,0.7-2.4c-0.3-0.7-0.2-1,0.6-1.3
	c0.4-0.1,0.7-0.2,1.1-0.4c0.5-0.2,0.9-0.7,0.7-1.3c0-0.2-0.1-0.3-0.3-0.4c-0.4-0.6-0.9-1.2-1.4-1.8c-1.2-1.4-1.5-3.3-0.8-5.1
	c0.4-1.2,0.6-2.4,0.7-3.6c0-1.3-0.4-2.6-1.3-3.6c-0.3-0.5-0.7-0.4-1.1-0.2c-2.5,1.3-4.8,3.2-6.5,5.5c-2.2,2.7-3.3,6-4.5,9.2
	c-0.8,2.1-1.9,4.1-2.9,6.1c-0.2,0.3-0.4,0.6-0.7,0.7c0.4-1.1,0.7-2.3,0.9-3.5c0.3-2.7,0.5-5.4,0.6-8.1c0.1-3.7,0.9-7.2,3.1-10.2
	c1.8-2.6,4.4-4.4,7.5-5.1c0.1,0,0.2,0,0.2-0.1c0.1,0,0.1-0.1,0.2-0.1c-2.6-0.7-5.3-0.9-8-0.7c-4.3,0.2-8.3,1.8-11.6,4.6
	c-3.8,3.4-6.2,8.2-6.6,13.3c-0.8,7,1.3,13.3,4.6,19.3c0.5,0.9,1,1.9,1.3,2.4c-0.7-0.6-1.8-1.5-2.8-2.5c-2.2-2.2-4.3-4.4-6.5-6.6
	c-0.3-0.2-0.6-0.3-1-0.3c-0.9,0.2-1.8-0.5-2-1.4c0-0.3,0-0.6,0.1-0.9c0.2-0.9-0.3-1.8-1.2-2c-0.1,0-0.1,0-0.2,0
	c-0.7,0-1.4-0.4-1.7-1.1c-0.4-0.7-0.3-1.5,0.2-2.1c0.4-0.5,0.4-1.2-0.1-1.6c-0.2-0.2-0.4-0.3-0.7-0.3c-0.9-0.2-1.6-1-1.8-1.9
	c-0.2-0.9,0.3-1.9,1.1-2.3c0.6-0.3,0.6-0.6,0.6-1.1c0.2-1.8,0.5-3.7,0.7-5.5c0-0.3-0.1-0.7-0.3-1c-0.7-0.7-0.9-1.7-0.5-2.6
	c0.3-0.9,1.2-1.4,2.1-1.5c0.3,0,0.5-0.1,0.7-0.3c1.7-2.7,3.3-5.4,4.9-8.1C64.8,44.5,64.9,44.4,65,44.2z M67.8,82.1l0.1,0.1l0-0.2
	L67.7,82L67.8,82.1z"/>
<path id="Path_211" class="st0" d="M100.7,101.5c0.1-3,0.3-5.8,0.4-8.5c0-0.9,0.1-1.8,0.1-2.7c0-0.7,0.5-1.3,1.2-1.3c0,0,0,0,0.1,0
	c1.3,0,2.6,0,3.9,0c0.9,0,1.4,0.6,1.3,1.6c-0.2,2.2-0.3,4.5-0.5,6.7c-0.4,4.9-0.8,9.9-1.3,14.8c-0.1,1.1-0.5,1.5-1.7,1.5
	c-2.2,0-4.4,0-6.5,0c-1.3,0-1.7-0.4-1.8-1.7c-0.3-5-0.5-9.9-0.8-14.9c0-0.2-0.1-0.5-0.2-0.6c0,0.5-0.1,1.1-0.1,1.6
	c-0.3,4.6-0.5,9.2-0.8,13.9c-0.1,1.3-0.5,1.7-1.8,1.7c-2.1,0-4.2,0-6.3,0c-1.1,0-1.6-0.4-1.7-1.6c-0.6-7.1-1.3-14.2-1.9-21.3
	c-0.1-1.1,0.4-1.8,1.6-1.8s2.3,0,3.4,0c0.7-0.1,1.4,0.4,1.5,1.1c0,0.1,0,0.2,0,0.3c0.3,3.4,0.5,6.8,0.8,10.2c0,0.1,0,0.3,0,0.4
	c0.1,0.1,0.2,0.3,0.3,0.4c0.1-0.1,0.3-0.3,0.3-0.4c0.2-1.3,0.3-2.7,0.4-4c0.2-2.1,0.4-4.3,0.7-6.4c0-0.7,0.6-1.3,1.4-1.3
	c1.6,0,3.2,0,4.8,0c0.8,0,1.3,0.5,1.4,1.3c0.4,3.1,0.7,6.3,1.1,9.4c0,0.4,0.1,0.7,0.2,1.1C100.2,101.1,100.4,101.2,100.7,101.5z"/>
<path id="Path_212" class="st2" d="M52.5,100.2c-0.7-0.7-1.4-1.3-2.1-2.1c-2.9-3.3-5.9-6.4-8.5-9.8c-4-5.2-6.3-11.5-6.3-18.1
	c-0.2-6.4,2.7-12.6,7.7-16.6c2.3-1.9,4.7-3.6,7.3-5.1c4.5-2.6,9.1-5,13.6-7.5c-0.6,0.9-0.6,2.1,0,3c0.1,0.1-0.1,0.4-0.2,0.6
	c-1.3,2.1-2.6,4.2-3.9,6.2c-0.2,0.3-0.6,0.5-0.9,0.7c-3.7,1.8-7.2,4.1-10.3,6.8c-3.8,3.5-6.4,7.7-6.9,13c-0.4,4.4,0.2,8.9,1.8,13.1
	c2.1,5.3,4.9,10.3,8.2,14.9c0.2,0.3,0.4,0.6,0.6,0.9L52.5,100.2z"/>
<path id="Path_213" class="st0" d="M125.8,101.2c0-3.5,0-7,0-10.5c0-1.3,0.4-1.7,1.7-1.7c2.9-0.1,5.9,0,8.8,0.2
	c4.3,0.5,6.5,2.7,6.7,7.1c0.2,3.5,0.2,7-0.1,10.4c-0.4,4.3-3.1,6.7-7.4,6.9c-2.8,0.1-5.6,0.1-8.4,0.1c-0.9,0-1.3-0.5-1.3-1.6
	C125.8,108.4,125.8,104.8,125.8,101.2z M132.5,101.2c0,1.9,0,3.7,0,5.6c-0.1,0.6,0.4,1.2,1,1.3c0.1,0,0.2,0,0.4,0
	c1.3,0.1,2.4-0.8,2.6-2.1c0-0.1,0-0.3,0-0.4c0.1-1.9,0.1-3.8,0.1-5.6c0-1.2,0-2.4-0.2-3.6c-0.2-1.5-0.8-2-2.3-2
	c-1.1,0-1.5,0.3-1.5,1.5C132.5,97.6,132.5,99.4,132.5,101.2L132.5,101.2z"/>
<path id="Path_214" class="st0" d="M113.5,109.9c0.4-2.6-0.9-5.1-1.6-7.7c-1.1-4-2.2-7.9-3.3-11.9c-0.3-1,0-1.4,1-1.4
	c1.5,0,3.1,0,4.6,0c0.6-0.1,1.1,0.3,1.2,0.9c0.2,0.6,0.4,1.3,0.6,1.9c0.2,0.5,0.3,1.1,0.9,0.9c0.4-0.2,0.7-0.5,0.9-0.9
	c0.3-0.7,0.5-1.3,0.7-2c0.1-0.5,0.6-0.8,1.1-0.8c1.6,0,3.1,0,4.7,0c1,0,1.2,0.4,1,1.4c-1.6,5.4-3.1,10.8-4.7,16.2
	c-0.3,1.5-0.4,3.1-0.3,4.7c0,2.5,0.1,2.4-2.4,2.3c-1,0-2.1,0-3.1,0c-0.9,0-1.2-0.2-1.2-1.2C113.5,111.7,113.5,110.9,113.5,109.9z"/>
<path id="Path_215" class="st0" d="M97.3,139.9c0.2-1.4,0.4-3.2,0.8-4.9c0.4-2.4,2.4-4.2,4.8-4.4c1.6-0.2,3.2-0.1,4.8,0.1
	c2.5,0.4,3.7,2.3,4.3,4.6c0.7,3.1,0.7,6.2,0.1,9.3c-0.7,3.5-2.8,5.3-6.5,5.4c-0.9,0-1.9,0-2.8-0.2c-2.9-0.5-4.5-2.4-5-5.6
	C97.6,142.9,97.5,141.6,97.3,139.9z M106,140.1c-0.1-1.1-0.1-2.2-0.2-3.3c0-0.5-0.1-1-0.8-1.1c-0.7,0-0.8,0.6-0.8,1
	c0,2.3,0,4.5,0,6.8c0.1,0.4,0.4,0.8,0.8,1c0.6,0.1,0.8-0.5,0.8-1C105.9,142.4,105.9,141.3,106,140.1L106,140.1z"/>
<path id="Path_216" class="st0" d="M133,135.9c-0.7,0-1.3,0-2,0.1c-0.6,0.1-0.9-0.2-1-0.8c0-1-0.1-2.1-0.1-3.1c0-0.5,0.4-1,0.9-1.1
	c3-0.8,6.2-0.8,9.2,0.1c1.6,0.4,2.7,1.8,2.9,3.4c0.4,1.6,0.1,3.3-0.8,4.6c-0.2,0.4-0.1,0.9,0.1,1.3c1.4,2.2,1.4,4.9,0.1,7.1
	c-0.9,1.2-2.2,2-3.7,2.1c-2.6,0.4-5.2,0.2-7.8-0.3c-0.6-0.1-1.1-0.6-1-1.3c0,0,0,0,0,0c0-0.8,0-1.6,0.1-2.4c0.1-1.1,0.4-1.4,1.5-1.3
	c1.3,0.1,2.7,0.1,4,0.1c0.6,0,1.4,0.1,1.4-0.8s-0.8-0.9-1.4-0.9c-0.9-0.1-1.7,0-2.6,0c-0.9,0-1.3-0.4-1.4-1.3c0-0.8,0-1.6,0-2.4
	c0-1,0.5-1.3,1.5-1.4c0.8,0,1.6,0,2.4,0c0.3,0,0.5,0,0.8-0.1c0.2-0.1,0.6-0.4,0.6-0.7c-0.1-0.3-0.3-0.6-0.5-0.7
	c-1-0.1-2-0.2-3.1-0.2L133,135.9z"/>
<path id="Path_217" class="st0" d="M89.2,149.6c-1.8,0-3.7,0-5.5,0c-0.9,0-1.1-0.2-1.1-1.1c0-1.1,0-2.1,0-3.2c0-0.4,0.2-0.8,0.5-1.1
	c1.5-1.6,3.1-3,4.7-4.6c0.6-0.6,1-1.2,1.4-1.9c0.5-1,0.1-1.8-1-1.8c-1.1,0-2.3,0-3.4,0.2c-1.4,0.2-1.7-0.1-1.8-1.5
	c-0.1-0.8-0.1-1.7-0.2-2.5c-0.1-0.5,0.2-0.9,0.6-1c2.6-0.9,5.5-1.1,8.2-0.5c2.8,0.7,4.2,2.5,4.3,5.4c0.2,2.6-1.1,5.1-3.2,6.5
	c-0.2,0.1-0.4,0.2-0.5,0.4c-0.2,0.3-0.4,0.7-0.6,1c0.3,0.2,0.7,0.4,1.1,0.5c0.7,0.1,1.4,0.1,2.1,0c0.7,0,1,0.3,1,1
	c0,1.1,0,2.1,0,3.2c0,0.7-0.3,1-1.1,1C92.9,149.6,91,149.6,89.2,149.6z"/>
<path id="Path_218" class="st0" d="M120.6,149.6c-1.8,0-3.5,0-5.3,0c-1,0-1.2-0.2-1.2-1.1c0-1.1,0-2.1,0-3.2c0-0.4,0.2-0.8,0.5-1.1
	c1.5-1.5,3-3,4.5-4.5c0.5-0.5,1-1.1,1.3-1.7c0.7-1.2,0.2-2.1-1.1-2.1c-1.1,0-2.2,0.1-3.3,0.2c-1.3,0.2-1.7-0.1-1.8-1.4
	c-0.1-0.9-0.1-1.7-0.1-2.6c0-0.4,0.2-0.7,0.6-0.9c2.8-1,5.7-1.2,8.6-0.5c2.5,0.5,4.2,2.8,4,5.3c0.1,2.7-1.2,5.3-3.5,6.7
	c-0.4,0.3-0.9,0.8-0.8,1.1c0.1,0.7,0.8,0.6,1.4,0.6c0.7,0,1.3,0,2,0c0.4,0,0.8,0.2,0.8,0.6c0,0.1,0,0.1,0,0.2c0,1.1,0,2.3,0,3.4
	c0,0.7-0.4,0.9-1,0.9C124.4,149.6,122.5,149.6,120.6,149.6z"/>
<path id="Path_219" class="st2" d="M63.5,48.9c0.7-1.1,1.4-2.2,2.1-3.3c0.2-0.2,0.4-0.3,0.6-0.3c2.3-0.2,3.4-2,2.4-4.1
	c-0.2-0.3-0.1-0.8,0.2-1c0.1-0.1,0.3-0.1,0.4-0.1c1.4-0.1,2.5-1.4,2.4-2.8c0-0.4-0.2-0.9-0.4-1.2c-0.4-0.6-0.3-1,0.5-1.2
	c1.4-0.3,2.4-1.7,2.1-3.1c0-0.4,0.1-0.7,0.2-1c2.2-3.2,3.1-7.2,2.7-11c-0.4-3.6-1.5-7.2-3.3-10.3c-1.6-2.8-3.3-5.6-4.9-8.4
	c0,0,0.1-0.1,0.1-0.1c2.1,2.6,4.2,5.2,6.2,7.9c2.5,3.4,4.3,7.3,5.4,11.4c1.8,7.2,0,13.8-4.4,19.6c-3.2,4.2-7.5,7-12.1,9.4
	C63.6,48.9,63.6,48.9,63.5,48.9z"/>
<path id="Path_220" class="st1" d="M136,124.2c0,0.9,0,1.8,0,2.7c0,1-0.2,1.2-1.2,1.2c-0.7,0-1.4,0-2,0c-0.5,0.1-0.9-0.3-1-0.7
	c0-0.1,0-0.2,0-0.3c0-3.4,0-6.7,0-10.1c0-0.7,0.3-1,1.1-1c3-0.1,3-0.1,4.7,2.5c0.3,0.4,0.6,0.9,1,1.3l0.4-0.1c0-0.8,0-1.5,0-2.3
	c0-1.2,0.1-1.3,1.3-1.3c0.7,0,1.4,0,2,0c0.4-0.1,0.8,0.2,0.9,0.7c0,0.1,0,0.1,0,0.2c0,3.4,0,6.9,0,10.3c0.1,0.4-0.3,0.9-0.7,0.9
	c-0.1,0-0.1,0-0.2,0c-0.9,0-1.7,0-2.6,0c-0.4-0.1-0.7-0.3-1-0.6c-0.6-0.9-1.2-1.8-1.7-2.8c-0.1-0.3-0.3-0.5-0.4-0.8L136,124.2z"/>
<path id="Path_221" class="st1" d="M111.8,115.9c1.2,0.1,2.3,0.1,3.5,0.2c2.9,0.4,3.1,3.1,2.2,4.9c-0.3,0.5-0.3,0.9,0.1,1.3
	c1.1,1.5,0.9,3.6-0.6,4.8c-0.1,0.1-0.2,0.2-0.3,0.2c-0.9,0.4-1.9,0.6-2.9,0.6c-1.5,0.1-3.1,0-4.6,0c-0.7,0-1.1-0.3-1.1-1.1
	c0-3.3,0-6.6,0-9.9c0-0.9,0.2-1.1,1.1-1.1C110.1,116,111,116,111.8,115.9L111.8,115.9z M113.1,125.2c1,0,1.2-0.2,1.2-1
	c0-0.8-0.5-0.9-1.2-1c-1-0.1-0.7,0.6-0.8,1.1C112.2,125,112.5,125.3,113.1,125.2L113.1,125.2z M112.3,119.7c-0.1,0.6,0,1,0.8,0.9
	c0.6,0,1-0.2,1-0.9c0-0.8-0.5-0.9-1.1-0.9C112.3,118.7,112.3,119.1,112.3,119.7L112.3,119.7z"/>
<path id="Path_222" class="st1" d="M124.9,128.3c-0.6-0.1-1.3-0.1-1.9-0.2c-1.8-0.3-3.2-1.6-3.6-3.3c-0.5-1.8-0.5-3.7,0-5.6
	c0.3-1.7,1.7-3.1,3.5-3.3c1.3-0.2,2.6-0.2,4,0c1.8,0.2,3.3,1.6,3.4,3.4c0.2,1.6,0.3,3.2,0.1,4.8c-0.4,2.6-2,3.9-4.8,4.1
	C125.4,128.2,125.2,128.2,124.9,128.3L124.9,128.3z M126.4,122c-0.1-0.6-0.1-1.2-0.2-1.8c0-0.7-0.6-1.2-1.3-1.1
	c-0.7,0-1.3,0.3-1.4,1c-0.1,1.2-0.1,2.5,0,3.7c0.1,0.7,0.6,1,1.3,1c0.7,0,1.2-0.5,1.3-1.1C126.3,123.1,126.4,122.6,126.4,122
	L126.4,122z"/>
<path id="Path_223" class="st1" d="M102.7,124.3c-0.3-0.1-0.6-0.2-0.9-0.3c-0.9-0.2-1.9-0.4-2.8-0.7c-1.1-0.4-1.9-1.4-1.9-2.6
	c-0.3-3.6,1.1-5.1,4.8-5c1.2,0,2.4,0.2,3.7,0.3c0.5,0,1,0.4,1,1c0,0.1,0,0.1,0,0.2c-0.1,1.9,0.1,2.4-2.1,2.1c-1-0.1-2-0.1-3,0
	l-0.1,0.3c0.2,0.2,0.4,0.3,0.7,0.4c0.8,0.2,1.6,0.4,2.4,0.6c2,0.6,2.7,1.6,2.6,3.7c-0.1,2.6-1.2,3.8-3.7,4c-1.8,0-3.5-0.1-5.3-0.4
	c-0.6-0.1-0.9-0.5-0.9-1.1c0-2.1,0.1-2.2,2.2-2.1c0.8,0.1,1.6,0.1,2.4,0.1c0.3,0,0.6-0.1,0.9-0.2L102.7,124.3z"/>
<path id="Path_224" class="st1" d="M82.5,122c0-1.6,0-3.2,0-4.8c0-1,0.2-1.2,1.2-1.2c0.6,0,1.2,0,1.8,0c1.1,0,1.2,0.1,1.2,1.2
	c0,2,0,4.1,0,6.1c0,1.1,0.2,1.2,1.2,1.2c0.6,0,1.1,0,1.7,0c0.6,0,0.9,0.3,0.9,0.9c0,2.6,0.4,2.5-2.4,2.5c-1.5,0-3,0-4.5,0
	c-1,0-1.2-0.2-1.2-1.2C82.5,125.2,82.5,123.6,82.5,122z"/>
<path id="Path_225" class="st1" d="M91.7,121.9c0-1.7,0-3.3,0-5c0-0.7,0.3-1,1-1s1.5,0,2.2,0c0.6,0,0.9,0.2,0.9,0.9
	c0,3.4,0,6.8,0,10.2c0,0.7-0.3,0.9-0.9,0.9c-0.7,0-1.5,0-2.2,0c-0.7,0-1-0.3-1-1C91.7,125.3,91.7,123.6,91.7,121.9z"/>
<path id="Path_226" class="st1" d="M78.8,11.6c-2.3-4.4-5.7-7.9-9.1-11.3c0.1-0.1,0.1-0.2,0.2-0.2c4.2-0.6,8.1,0.9,9,5.3
	c0.4,1.9,0.1,4,0.1,6.1L78.8,11.6z"/>
<path id="Path_227" class="st2" d="M65.4,40.1l1.4-1c0.5,0.4,0.4,0.9-0.1,1c-0.2,0-0.4,0-0.6,0C65.9,40,65.7,40,65.4,40.1z"/>
<path id="Path_228" class="st2" d="M52.8,100.7l-0.2-0.4l0.1-0.1l0.2,0.4L52.8,100.7z"/>
<path id="Path_229" class="st1" d="M73.1,88.8v-0.3h0.1L73.1,88.8L73.1,88.8z"/>
<path id="Path_230" class="st2" d="M68.5,0.6l-0.1,0l0-0.1L68.5,0.6L68.5,0.6z"/>
<path id="Path_231" class="st2" d="M68.6,0.9l-0.1-0.3l0,0l0.2,0.1C68.6,0.8,68.6,0.8,68.6,0.9z"/>
<path id="Path_232" class="st2" d="M63.6,49h-0.2l0.1-0.1C63.6,48.9,63.6,48.9,63.6,49z"/>
<path id="Path_233" class="st1" d="M80.5,76.3L80.5,76.3C80.5,76.3,80.5,76.3,80.5,76.3C80.5,76.3,80.5,76.2,80.5,76.3L80.5,76.3z"
	/>
</svg>
